<?xml version="1.0" encoding="utf-8"?>
<!-- Generator: Adobe Illustrator 26.3.1, SVG Export Plug-In . SVG Version: 6.00 Build 0)  -->
<svg version="1.1" id="Layer_1" xmlns="http://www.w3.org/2000/svg" xmlns:xlink="http://www.w3.org/1999/xlink" x="0px" y="0px"
	 viewBox="0 0 1840 1380" style="enable-background:new 0 0 1840 1380;" xml:space="preserve">
<style type="text/css">
	.st0{fill-rule:evenodd;clip-rule:evenodd;fill:#F4E2AE;}
	.st1{fill-rule:evenodd;clip-rule:evenodd;fill:#FFFFFF;}
	.st2{fill:#F8C708;}
	.st3{fill-rule:evenodd;clip-rule:evenodd;fill:#F8C708;}
	.st4{fill:#FFFFFF;}
	.st5{fill:#FFFFFF;filter:url(#Adobe_OpacityMaskFilter);}
	.st6{mask:url(#mask0_00000103226325129862311360000000147899116626950579_);}
	.st7{fill:#F4E2AE;}
</style>
<path class="st0" d="M1126.6,396c0.4-1.2,1.5-2.1,2.8-2.1c0,0,0,0,0,0c1.2,0,2.1,1,2.1,2.1c0,0.4,0,0.7,0,0.7c0,0,0,0,0,0
	c0,1.4-1.1,2.5-2.5,2.6l-0.4,0c-0.1,0-0.2,0-0.3,0c-1.2-0.2-2.1-1.3-1.9-2.5C1126.3,396.8,1126.4,396.5,1126.6,396z M1136.6,444
	c0.4-1.2,1.5-2.1,2.8-2.1c0,0,0,0,0,0c1.2,0,2.1,1,2.1,2.1c0,0.4,0,0.7,0,0.7c0,0,0,0,0,0c0,1.4-1.1,2.5-2.5,2.6l-0.4,0
	c-0.1,0-0.2,0-0.3,0c-1.2-0.2-2.1-1.3-1.9-2.5C1136.3,444.8,1136.4,444.5,1136.6,444z M839.6,409.1c0.2,0.4,0.3,0.7,0.3,0.8
	c0.3,1.2-0.4,2.5-1.6,2.8c-0.1,0-0.2,0-0.3,0.1l-0.4,0c-1.4,0.2-2.6-0.8-2.8-2.2c0-0.1,0-0.3-0.1-0.7c-0.1-1.2,0.7-2.3,1.9-2.4
	C837.9,407.1,839.1,407.9,839.6,409.1z M836.4,452.4c0.2,0.5,0.3,0.8,0.4,0.9c0.4,1.4-0.5,2.8-1.9,3.2c-0.1,0-0.2,0.1-0.4,0.1
	l-0.5,0.1c-1.6,0.2-3-1-3.2-2.6c0-0.1,0-0.4-0.1-0.8c-0.2-1.4,0.8-2.6,2.2-2.8C834.4,450.2,835.8,451,836.4,452.4z M938.6,306.2
	c0.6-2.2,2.6-3.6,4.9-3.6c2.1,0,3.7,1.7,3.7,3.7c0,0.7,0,1.1,0,1.3c0,2.4-1.9,4.4-4.3,4.4l-0.7,0c-0.2,0-0.4,0-0.6,0
	c-2.1-0.3-3.7-2.2-3.4-4.4C938.3,307.4,938.4,306.9,938.6,306.2z"/>
<path class="st1" d="M889.3,693.9c2.3,18.1,4.1,28.4,5.5,31c2,3.9,12.5,7.5,14.5,7.5c1.3,0,50.7,4.2,148,12.5c7.3,0,13.7-2.2,19-6.5
	c2.1-1.7,1.9-4.2,3-8c1-3.7,2-11.5,3-23.5l-25-13H889.3z"/>
<path class="st2" d="M836.9,406.8c-1.6,0.2-2.7,1.7-2.5,3.3c0,0.4,0.1,0.6,0.1,0.7c0.2,1.8,1.8,3.1,3.6,2.9l0.4,0
	c0.1,0,0.3,0,0.4-0.1c1.6-0.4,2.6-2.1,2.2-3.7c0-0.1-0.1-0.4-0.3-0.9C840,407.5,838.5,406.6,836.9,406.8z M839.3,409.6
	c0.2,0.4,0.3,0.6,0.3,0.6c0.2,0.8-0.3,1.6-1.1,1.9c-0.1,0-0.1,0-0.2,0l-0.4,0c-1,0.1-1.9-0.6-2-1.6c0-0.1,0-0.3-0.1-0.7
	c-0.1-0.8,0.5-1.5,1.2-1.6C838,408.2,838.9,408.7,839.3,409.6z M833.2,449.9c-1.8,0.2-3,1.8-2.8,3.6c0.1,0.5,0.1,0.7,0.1,0.8
	c0.2,2,2,3.4,4,3.2l0.5-0.1c0.2,0,0.3,0,0.5-0.1c1.8-0.5,2.9-2.3,2.4-4.1c0-0.2-0.2-0.4-0.4-1C836.8,450.7,835,449.7,833.2,449.9z
	 M836.1,453c0.2,0.4,0.3,0.7,0.3,0.8c0.3,1-0.3,2-1.3,2.2c-0.1,0-0.2,0-0.3,0l-0.5,0.1c-1.2,0.1-2.2-0.7-2.4-1.9
	c0-0.1,0-0.4-0.1-0.8c-0.1-1,0.6-1.8,1.5-1.9C834.6,451.3,835.7,451.9,836.1,453z M1129.4,392.8c-1.6,0-3.1,1.1-3.5,2.6
	c-0.2,0.5-0.2,0.8-0.2,0.9c-0.2,1.6,0.9,3.2,2.6,3.4c0.1,0,0.3,0,0.4,0l0.4,0c1.8,0,3.2-1.5,3.2-3.3v0c0-0.1,0-0.3,0-0.7
	C1132.3,394.1,1131,392.8,1129.4,392.8C1129.4,392.8,1129.4,392.8,1129.4,392.8z M1127.1,396.6c0,0,0.1-0.3,0.2-0.7
	c0.3-0.9,1.1-1.6,2.1-1.6c0,0,0,0,0,0c0.8,0,1.4,0.6,1.4,1.4c0,0.4,0,0.7,0,0.8v0c0,1-0.8,1.8-1.8,1.8l-0.4,0c-0.1,0-0.2,0-0.2,0
	C1127.6,398.2,1127,397.4,1127.1,396.6z M1139.4,440.8c-1.6,0-3.1,1.1-3.5,2.6c-0.2,0.5-0.2,0.8-0.2,0.9c-0.2,1.6,0.9,3.2,2.6,3.4
	c0.1,0,0.3,0,0.4,0l0.4,0c1.8,0,3.2-1.5,3.2-3.3v0c0-0.1,0-0.3,0-0.7C1142.3,442.1,1141,440.8,1139.4,440.8
	C1139.4,440.8,1139.4,440.8,1139.4,440.8z M1137.1,444.6c0,0,0.1-0.3,0.2-0.7c0.3-0.9,1.1-1.6,2.1-1.6c0,0,0,0,0,0
	c0.8,0,1.4,0.6,1.4,1.4c0,0.4,0,0.7,0,0.8v0c0,1-0.8,1.8-1.8,1.8l-0.4,0c-0.1,0-0.2,0-0.2,0C1137.6,446.2,1137,445.4,1137.1,444.6z
	 M937.5,307.6c-0.3,2.6,1.5,4.9,4,5.2c0.2,0,0.4,0,0.7,0l0.7,0c2.8,0,5.1-2.3,5.1-5.2c0-0.1,0-0.5,0-1.2c0-2.5-2-4.5-4.5-4.5
	c-2.6,0-4.9,1.7-5.6,4.2C937.6,307,937.5,307.4,937.5,307.6z M943.5,303.5c1.7,0,3,1.3,3,3c0,0.7,0,1.1,0,1.3c0,2-1.6,3.6-3.6,3.7
	l-0.7,0c-0.2,0-0.3,0-0.5,0c-1.7-0.2-3-1.8-2.7-3.6c0-0.1,0.1-0.5,0.3-1.2C939.9,304.7,941.6,303.5,943.5,303.5z"/>
<path class="st2" d="M893.5,441.2l-6.3,13.3l-50.1-1.5l0,1.5l51.1,1.5l7.1-14.8l29.8-0.7l0-1.5l-30.6,0.7l-5.2-20.4l-49.2-9.1
	l-0.3,1.5l48.2,8.9l5.3,20.7L893.5,441.2z"/>
<path class="st3" d="M1001.8,505.4l72.5-14l-32.5,87.5h-28L1001.8,505.4z"/>
<path class="st1" d="M911.3,594.4l-115.8-27.5c-16-3.8-32.8-0.4-46.1,9.3l-80.4,59c-13.1,9.6-21.4,24.5-22.7,40.7l-11,138.4h26
	l15.3-128.6c1.4-11.8,7.5-22.5,16.9-29.7l73.1-56.2c6.2-4.8,14.1-6.7,21.8-5.4l119.9,20.4L911.3,594.4z"/>
<path class="st2" d="M912.1,593.9l-116.5-27.7c-16.2-3.8-33.3-0.4-46.7,9.5l-80.4,59c-13.3,9.8-21.7,24.8-23,41.3l-11,139.2H662
	l15.4-129.3c1.4-11.6,7.4-22.1,16.6-29.2l73.1-56.2c6-4.6,13.7-6.5,21.2-5.3l120.7,20.6L912.1,593.9z M907.7,614.1l-119.2-20.3
	c-7.9-1.3-16,0.7-22.4,5.6L693,655.6c-9.5,7.3-15.7,18.2-17.2,30.2l-15.2,128h-24.5L647,676.1c1.3-16,9.4-30.7,22.4-40.2l80.4-59
	c13.1-9.6,29.7-13,45.5-9.2L910.5,595L907.7,614.1z"/>
<path class="st3" d="M908.9,731.7l-7.6-30.2l142.5,9.5l1.6,4.2l11.9,29c8.6-0.4,14.4-1.8,17.5-4.3c2.8-2.2,4.9-10.5,6.3-24.8
	l-21.8-16.4l11-117.7l23.5,42l-10.8,86.9c0,0,0,0.1,0,0.1c-1.4,17.9-3.7,28.2-7.3,31c-3.4,2.8-9.6,4.3-18.6,4.6l0.1,0.3l-148-12.5
	l-0.1-0.3c-9-0.3-16.5-7.1-17.7-16l-3-22.5l1.5-0.2l3,22.5C894.1,725,900.8,731.2,908.9,731.7z"/>
<path class="st4" d="M883.3,456.3l5.2,25.9c4.9,24.3,28.5,40.1,52.9,35.3l132.4-26.3l-14.7-62.2c-10.3-43.7-52.3-72.5-96.8-66.3
	c-5.9,0.8-12.2,1.9-19,3.3C901.9,374.5,875,414.8,883.3,456.3z"/>
<defs>
	<filter id="Adobe_OpacityMaskFilter" filterUnits="userSpaceOnUse" x="865.4" y="417.1" width="139.3" height="86.2">
		<feColorMatrix  type="matrix" values="1 0 0 0 0  0 1 0 0 0  0 0 1 0 0  0 0 0 1 0"/>
	</filter>
</defs>
<mask maskUnits="userSpaceOnUse" x="865.4" y="417.1" width="139.3" height="86.2" id="mask0_00000103226325129862311360000000147899116626950579_">
	<path class="st5" d="M883.3,456.3l5.2,25.9c4.9,24.3,28.5,40.1,52.9,35.3l132.4-26.3l-14.7-62.2c-10.3-43.7-52.3-72.5-96.8-66.3
		c-5.9,0.8-12.2,1.9-19,3.3C901.9,374.5,875,414.8,883.3,456.3z"/>
</mask>
<g class="st6">
	<path class="st0" d="M882.3,502.9l104.9-17.5c10.2-1.7,17.5-11,16.6-21.3l-2-25.6c-1-12.1-11.6-21.1-23.7-20.2
		c-0.8,0.1-1.7,0.2-2.5,0.4l-109.3,21.7L882.3,502.9z"/>
	<path class="st2" d="M881.7,503.3l105.6-17.6c10.6-1.8,18.1-11.4,17.3-22.1l-2-25.6c-1-12.5-12-21.9-24.5-20.9
		c-0.9,0.1-1.7,0.2-2.6,0.4l-110,21.8L881.7,503.3z M867.2,440.5L975.7,419c0.8-0.2,1.6-0.3,2.4-0.3c11.7-0.9,21.9,7.8,22.9,19.5
		l2,25.6c0.8,10-6.2,18.9-16,20.5l-104.2,17.4L867.2,440.5z"/>
</g>
<path class="st2" d="M944.5,340.3l-0.2-28.4c0-0.4-0.3-0.8-0.8-0.8s-0.8,0.3-0.8,0.8L943,341c0,0.4,0.3,0.8,0.8,0.8H964l-11.4,21.9
	c-0.2,0.4,0,0.8,0.3,1c0.4,0.2,0.8,0,1-0.3l12-23c0.3-0.5-0.1-1.1-0.7-1.1H944.5z"/>
<path class="st2" d="M882.6,456.5l5.2,25.9c4.9,24.7,29,40.8,53.8,35.9l132.4-26.3c0.4-0.1,0.7-0.5,0.6-0.9l-14.7-62.2
	c-10.4-44.1-52.7-73.1-97.6-66.8c-5.9,0.8-12.3,1.9-19,3.3C901.3,373.8,874.2,414.6,882.6,456.5z M941.2,516.8
	c-23.9,4.7-47.2-10.8-52-34.7l-5.2-25.9c-8.2-41.1,18.4-81,59.4-89.3c6.7-1.4,13.1-2.5,18.9-3.3c44.1-6.1,85.7,22.3,96,65.7
	l14.5,61.5L941.2,516.8z"/>
<path class="st1" d="M904,578.7l-16.4,106.5c-1.2,7.6,4.1,14.8,11.7,16c0.4,0.1,0.8,0.1,1.2,0.1l143.5,9.8
	c7.2,0.5,13.6-4.6,14.8-11.7l17.1-105.3c1.2-7.6-3.9-14.8-11.6-16.1c-0.4-0.1-0.8-0.1-1.2-0.1l-144.2-10.9
	C911.6,566.4,905.1,571.5,904,578.7z"/>
<path class="st2" d="M903.3,578.6l-16.4,106.5c-1.2,8.1,4.3,15.6,12.3,16.8c0.4,0.1,0.8,0.1,1.2,0.1l143.5,9.8
	c7.6,0.5,14.3-4.8,15.6-12.4l17.1-105.3c1.3-8-4.2-15.6-12.2-16.9c-0.4-0.1-0.8-0.1-1.2-0.1L919,566.2
	C911.3,565.6,904.5,571,903.3,578.6z M904.8,578.9c1.1-6.8,7.2-11.7,14.1-11.2l144.2,10.9c0.4,0,0.8,0.1,1.1,0.1
	c7.2,1.2,12.1,8,11,15.2L1058,699.2c-1.1,6.8-7.2,11.6-14,11.1l-143.5-9.8c-0.4,0-0.7-0.1-1.1-0.1c-7.2-1.1-12.2-7.9-11.1-15.1
	L904.8,578.9z"/>
<path class="st1" d="M629.2,813.2c-0.5,8.7,6.2,16.1,14.9,16.6c0.3,0,0.5,0,0.8,0l8.6,0c8.8,0,16-7.1,16-15.9c0,0,0,0,0-0.1
	c0-8.9-7.1-16.2-16-16.5l-6.8-0.2C637.4,796.8,629.6,804,629.2,813.2z"/>
<path class="st1" d="M818.9,1001.7l73.4-35.5l-92.8-65.3l-72.2,29.3"/>
<path class="st2" d="M628.7,813.6c-0.5,9.1,6.5,16.9,15.6,17.4c0.3,0,0.5,0,0.8,0l8.6,0c9.2,0,16.7-7.4,16.8-16.7v-0.1
	c0-9.3-7.4-17-16.8-17.2l-6.8-0.2C637.2,796.6,629.2,804,628.7,813.6z M630.2,813.7c0.5-8.8,7.8-15.6,16.6-15.3l6.8,0.2
	c8.5,0.2,15.3,7.2,15.3,15.7v0.1c0,8.4-6.9,15.2-15.2,15.2l-8.6,0c-0.2,0-0.5,0-0.7,0C636.1,829.1,629.7,822,630.2,813.7z"/>
<path class="st1" d="M624.3,1001.7l-78.5,34.2c-45.8-49.3-68.7-74.7-68.5-76c0.2-1.3,27.2-11.3,81-30L624.3,1001.7z"/>
<path class="st1" d="M632.3,1100.1l177-1.2l10-97h-195l-40.5,17.5l5,40.5L632.3,1100.1z"/>
<path class="st0" d="M696.3,1001.9v58l31-19l29,19v-58H696.3z"/>
<path class="st2" d="M631.6,1100.1l-43.5-39.8l-5.4-39.8l-37,16.1L476,959.4l82.5-29.8l66.3,71.4h193.9l72.1-34.9l-91.4-64.3
	l-71.6,29.7l-0.6-1.4l72.4-30l94.2,66.3L820,1002l-10,97.4l-178.4,1.2L631.6,1100.1z M631.4,1097.9l-7.8-95.2l-39.5,17.2l5.4,39.7
	L631.4,1097.9z M625.1,1002.5l7.9,96.7l175.6-1.2l9.8-95.5H625.1z M558.1,931.3l-79.5,28.7l67.4,74.8l77-33.6L558.1,931.3z"/>
<path class="st2" d="M755.9,1060.6c0.5,0.3,1.2,0,1.2-0.6v-58c0-0.4-0.3-0.8-0.8-0.8h-60c-0.4,0-0.8,0.3-0.8,0.8v58
	c0,0.6,0.6,0.9,1.1,0.6l30.6-18.8L755.9,1060.6z M755.6,1002.7v55.9l-27.8-18.2c-0.2-0.2-0.6-0.2-0.8,0l-29.9,18.3v-55.9H755.6z"/>
<path class="st4" d="M898,457.4c-0.5-2.4,1.1-4.8,3.6-5.3c2.4-0.5,4.8,1.1,5.3,3.6l2.7,13.7c0.5,2.4-1.1,4.8-3.6,5.3
	c-2.4,0.5-4.8-1.1-5.3-3.6L898,457.4z"/>
<path class="st4" d="M968.5,448.6c-0.3-2.7,1.6-5.2,4.4-5.6c2.7-0.3,5.2,1.6,5.6,4.4l1.7,13.9c0.3,2.7-1.6,5.2-4.4,5.6
	c-2.7,0.3-5.2-1.6-5.6-4.4L968.5,448.6z"/>
<path class="st2" d="M973.3,443l-1,0.1c-2.5,0.3-4.2,2.5-3.9,5l1.8,14.9c0.3,2.5,2.5,4.2,5,3.9l1-0.1c2.5-0.3,4.2-2.5,3.9-5
	l-1.8-14.9C978,444.4,975.8,442.7,973.3,443z M973.5,444.5c1.6-0.2,3.1,1,3.3,2.6l1.8,14.9c0.2,1.6-1,3.1-2.6,3.3l-1,0.1
	c-1.6,0.2-3.1-1-3.3-2.6l-1.8-14.9c-0.2-1.6,1-3.1,2.6-3.3L973.5,444.5z M973.1,445c-1.6,0.2-2.8,1.7-2.6,3.3l1.7,13.9
	c0.2,1.6,1.7,2.8,3.3,2.6c1.6-0.2,2.8-1.7,2.6-3.3l-1.7-13.9C976.2,446,974.7,444.8,973.1,445z M979.9,443.1c0.4,0,0.8-0.3,0.8-0.7
	s-0.3-0.8-0.7-0.8l-13.9-1.5c-0.4,0-0.8,0.3-0.8,0.7c0,0.4,0.3,0.8,0.7,0.8L979.9,443.1z M895.6,453.6l13-5c0.4-0.1,0.6-0.6,0.4-1
	c-0.1-0.4-0.6-0.6-1-0.4l-13,5c-0.4,0.1-0.6,0.6-0.4,1C894.8,453.6,895.2,453.8,895.6,453.6z M935.1,473.4c2-2.4,4.5-3.8,7.6-4.1
	c5.2-0.5,6.3-0.4,10.3,1.3c0.4,0.2,0.8,0,1-0.4c0.2-0.4,0-0.8-0.4-1c-4.2-1.8-5.7-2-11.1-1.4c-3.5,0.4-6.4,1.9-8.6,4.6
	c-0.3,0.3-0.2,0.8,0.1,1.1C934.4,473.8,934.9,473.7,935.1,473.4z M902.2,451.6l-1,0.2c-2.5,0.4-4.1,2.7-3.7,5.1l2.3,14.8
	c0.4,2.5,2.7,4.1,5.1,3.7l1-0.2c2.5-0.4,4.1-2.7,3.7-5.1l-2.3-14.8C907,452.8,904.7,451.2,902.2,451.6z M902.4,453
	c1.6-0.3,3.2,0.9,3.4,2.5l2.3,14.8c0.3,1.6-0.9,3.2-2.5,3.4l-1,0.2c-1.6,0.3-3.2-0.9-3.4-2.5l-2.3-14.8c-0.3-1.6,0.9-3.2,2.5-3.4
	L902.4,453z M902,453.6c-1.6,0.3-2.8,1.8-2.5,3.4l2.2,13.8c0.3,1.6,1.8,2.8,3.4,2.5c1.6-0.3,2.8-1.8,2.5-3.4l-2.2-13.8
	C905.2,454.5,903.7,453.4,902,453.6z"/>
<path class="st3" d="M818.3,1001.7h-194l-66-71.5h169L818.3,1001.7z M609.4,1047.4c-3.5,1-7.9-3.8-9.8-10.7
	c-2-6.9-0.8-13.3,2.7-14.3s7.9,3.8,9.8,10.7S612.8,1046.4,609.4,1047.4z"/>
<path class="st1" d="M1002.8,735.4l27.2,156.5l-9.2,175.5l-27.8,25c-1.6,1.5-1.8,4-0.3,5.7c0.8,0.8,1.8,1.3,3,1.3h87.6
	c-12.5-94.1-22.6-164.2-30.3-210.5c-7.5-44.7-17.7-96.9-30.6-156.7c-0.8-3.7-4-6.3-7.8-6.3c-0.9,0-1.7,0-2.6,0c-0.7,0-1.4,0-2.2,0.1
	c-4.4,0.5-7.5,4.4-7.1,8.8C1002.8,735.1,1002.8,735.2,1002.8,735.4z"/>
<path class="st2" d="M1019.8,1067.1l-27.5,24.8c-1.9,1.8-2.1,4.8-0.3,6.7c0.9,1,2.2,1.6,3.5,1.6h87.6c0.5,0,0.8-0.4,0.8-0.8
	c-12.5-94.1-22.6-164.3-30.3-210.5c-7.5-44.7-17.7-96.9-30.6-156.7c-0.9-4-4.4-6.9-8.5-6.9h-2.6c-0.7,0-1.5,0-2.3,0.1
	c-4.8,0.5-8.3,4.9-7.7,9.7c0,0.2,0,0.4,0.1,0.5l27.2,156.5L1019.8,1067.1z M1019.8,1067.4l0.2-0.5l-0.2,0.2L1019.8,1067.4z
	 M1082.2,1098.7h-86.7c-0.9,0-1.8-0.4-2.4-1.1c-1.2-1.3-1.1-3.4,0.2-4.6l27.8-25c0.1-0.1,0.2-0.3,0.2-0.5l9.2-175.5l0-0.2
	l-27.2-156.5c0-0.1-0.1-0.3-0.1-0.4c-0.4-4,2.4-7.6,6.4-8c0.8-0.1,1.5-0.1,2.1-0.1h2.6c3.4,0,6.4,2.4,7.1,5.7
	c13,59.8,23.2,112,30.6,156.7C1059.8,935.2,1069.8,1005,1082.2,1098.7z"/>
<path class="st0" d="M1023.4,890.3c-0.9-7.7,4.6-14.7,12.3-15.7l5.1-0.6c7.7-0.9,14.8,4.5,16,12.2c0,0.1,0,0.2,0,0.3
	c0.9,7.5-4.4,14.4-11.9,15.3l-5.9,0.7c0,0-0.1,0-0.1,0C1031.3,903.5,1024.3,898,1023.4,890.3z M1032.4,889c0.4,3.4,3.5,5.8,6.9,5.4
	l2.7-0.3c3.3-0.4,5.6-3.4,5.2-6.6c0-0.1,0-0.1,0-0.2c-0.5-3.4-3.6-5.8-7-5.4l-2.4,0.3C1034.4,882.5,1032,885.6,1032.4,889
	C1032.4,888.9,1032.4,889,1032.4,889z"/>
<path class="st2" d="M1022.3,890.8c-1-8.1,4.8-15.5,13-16.5l5.1-0.6c8.2-1,15.6,4.7,16.8,12.8c0,0.1,0,0.2,0,0.3
	c1,7.9-4.6,15.2-12.6,16.1l-5.9,0.7l-0.1,0C1030.6,904.6,1023.2,898.9,1022.3,890.8z M1023.8,890.6c0.9,7.3,7.5,12.5,14.7,11.6
	l0.1,0l5.9-0.7c7.1-0.9,12.2-7.4,11.3-14.5c0-0.1,0-0.2,0-0.3c-1.1-7.3-7.8-12.4-15.1-11.6l-5.1,0.6
	C1028.1,876.6,1022.9,883.3,1023.8,890.6z M1031.3,889.4c-0.4-3.8,2.3-7.2,6-7.6l2.4-0.3c3.8-0.4,7.3,2.2,7.8,6c0,0.1,0,0.1,0,0.2
	c0.5,3.7-2.2,7-5.8,7.5l-2.7,0.3C1035.2,895.9,1031.8,893.2,1031.3,889.4L1031.3,889.4z M1038.8,894l2.7-0.3
	c2.8-0.3,4.9-2.9,4.5-5.8c0-0.1,0-0.1,0-0.2c-0.5-3-3.2-5.1-6.2-4.7l-2.4,0.3c-2.9,0.3-5,3-4.7,6v0
	C1033.1,892.2,1035.8,894.3,1038.8,894z"/>
<path class="st1" d="M962.7,732.1l-49.4,158.2l72.9,134.2l-4.5,46.6c-0.2,2.2,1.4,4.2,3.6,4.4c1.1,0.1,2.2-0.2,3-0.9l67.5-57.6
	l-16-16L936.9,891.2l44.8-155.7c1.2-4-1.2-8.2-5.2-9.3c-0.7-0.2-1.4-0.3-2.1-0.3c-0.7,0-1.4,0-2.2-0.1
	C968,725.3,963.9,727.9,962.7,732.1z"/>
<path class="st2" d="M985.9,1024.8l-0.1-0.4l0,0.2L985.9,1024.8z M981.3,1071c-0.3,2.6,1.7,4.9,4.3,5.2c1.3,0.1,2.6-0.3,3.5-1.1
	l67.5-57.6c0.3-0.3,0.3-0.8,0-1.1l-16-16L938.1,891l44.7-155.2c1.3-4.4-1.3-9-5.7-10.2c-0.7-0.2-1.5-0.3-2.3-0.3
	c-0.7,0-1.4,0-2.1-0.1c-4.7-0.5-9,2.3-10.4,6.8L912.9,890c-0.1,0.2,0,0.4,0.1,0.6l72.8,134L981.3,1071z M988.1,1073.9
	c-0.7,0.6-1.5,0.8-2.4,0.8c-1.8-0.2-3.1-1.8-2.9-3.5l4.5-46.6c0-0.2,0-0.3-0.1-0.4l-72.8-133.9l49.3-157.9c1.2-3.8,4.9-6.2,8.8-5.7
	c0.8,0.1,1.5,0.1,2.3,0.1c0.6,0,1.3,0.1,1.9,0.3c3.6,1,5.7,4.8,4.6,8.4L936.5,891c-0.1,0.3,0,0.5,0.2,0.7l102.9,109.7l15.4,15.4
	L988.1,1073.9z"/>
<path class="st0" d="M909.6,894.9c-1.4-7.5,3.4-14.8,10.8-16.5l5.3-1.2c7.2-1.6,14.4,2.9,16.2,10c1.8,7.1-2.6,14.4-9.7,16.2
	l-6.7,1.7c-0.2,0.1-0.5,0.1-0.7,0.2C917.8,906.6,910.9,902,909.6,894.9z M918.5,893.4c0.6,3.1,3.7,5.1,6.8,4.5c0.1,0,0.1,0,0.2,0
	l3.3-0.8c3-0.7,4.9-3.7,4.2-6.7c0-0.1,0-0.1,0-0.1c-0.8-3.1-3.9-5-7.1-4.4l-2.7,0.6C919.9,887.1,917.9,890.2,918.5,893.4z"/>
<path class="st2" d="M908.9,895.4c-1.5-7.9,3.5-15.6,11.4-17.4l5.3-1.2c7.6-1.7,15.2,3,17.1,10.6c1.9,7.5-2.7,15.2-10.3,17.1
	l-6.7,1.7c-0.2,0.1-0.5,0.1-0.7,0.2C917.6,907.8,910.4,902.9,908.9,895.4z M910.4,895.1c1.3,6.7,7.7,11,14.4,9.8
	c0.2,0,0.4-0.1,0.7-0.1l6.7-1.7c6.7-1.7,10.8-8.5,9.2-15.2c-1.7-6.8-8.5-11-15.3-9.5l-5.3,1.2C913.6,881.1,909,888,910.4,895.1z
	 M917.9,893.9c-0.7-3.6,1.6-7.1,5.2-7.9l2.7-0.6c3.5-0.7,7,1.4,7.9,4.9c0,0.1,0,0.1,0,0.2c0.8,3.4-1.3,6.8-4.7,7.6l-3.3,0.8
	c-0.1,0-0.1,0-0.2,0C922.1,899.7,918.6,897.4,917.9,893.9z M919.4,893.6c0.6,2.7,3.2,4.4,5.9,3.9c0,0,0.1,0,0.1,0l3.3-0.8
	c2.6-0.6,4.2-3.2,3.6-5.8c0,0,0-0.1,0-0.1c-0.7-2.7-3.4-4.4-6.2-3.8l-2.7,0.6C920.6,888.1,918.8,890.8,919.4,893.6z"/>
<path class="st0" d="M812.3,797.2c1.4-4.7,5.7-7.9,10.7-7.9c4.5,0,8.2,3.7,8.2,8.2c0,1.5,0,2.3,0,2.6c0,0,0,0,0,0
	c0,5.2-4.1,9.4-9.3,9.5l-1.8,0c-0.4,0-0.8,0-1.1-0.1c-4.7-0.6-8-4.9-7.4-9.5C811.6,799.7,811.8,798.7,812.3,797.2z M767.3,688.2
	c1.4-4.7,5.7-7.9,10.7-7.9c4.5,0,8.2,3.7,8.2,8.2c0,1.5,0,2.3,0,2.6c0,0,0,0,0,0c0,5.2-4.1,9.4-9.3,9.5l-1.8,0c-0.4,0-0.8,0-1.1-0.1
	c-4.7-0.6-8-4.9-7.4-9.5C766.6,690.7,766.8,689.7,767.3,688.2z M1231.3,666.2c1.4-4.7,5.7-7.9,10.7-7.9c4.5,0,8.2,3.7,8.2,8.2
	c0,1.5,0,2.3,0,2.6c0,0,0,0,0,0c0,5.2-4.1,9.4-9.3,9.5l-1.8,0c-0.4,0-0.8,0-1.1-0.1c-4.7-0.6-8-4.9-7.4-9.5
	C1230.6,668.7,1230.8,667.7,1231.3,666.2z M1133.3,831.2c1.4-4.7,5.7-7.9,10.7-7.9c4.5,0,8.2,3.7,8.2,8.2c0,1.5,0,2.3,0,2.6
	c0,0,0,0,0,0c0,5.2-4.1,9.4-9.3,9.5l-1.8,0c-0.4,0-0.8,0-1.1-0.1c-4.7-0.6-8-4.9-7.4-9.5C1132.6,833.7,1132.8,832.7,1133.3,831.2z
	 M1262.3,891.2c1.4-4.7,5.7-7.9,10.7-7.9c4.5,0,8.2,3.7,8.2,8.2c0,1.5,0,2.3,0,2.6c0,0,0,0,0,0c0,5.2-4.1,9.4-9.3,9.5l-1.8,0
	c-0.4,0-0.8,0-1.1-0.1c-4.7-0.6-8-4.9-7.4-9.5C1261.6,893.7,1261.8,892.7,1262.3,891.2z M1154.3,503.2c1.4-4.7,5.7-7.9,10.7-7.9
	c4.5,0,8.2,3.7,8.2,8.2c0,1.5,0,2.4,0,2.6c0,0,0,0,0,0c0,5.2-4.1,9.4-9.3,9.5l-1.8,0c-0.4,0-0.8,0-1.1-0.1c-4.7-0.6-8-4.9-7.4-9.5
	C1153.6,505.7,1153.8,504.7,1154.3,503.2z M563.3,759.2c1.4-4.7,5.7-7.9,10.7-7.9c4.5,0,8.2,3.7,8.2,8.2c0,1.5,0,2.3,0,2.6
	c0,0,0,0,0,0c0,5.2-4.1,9.4-9.3,9.5l-1.8,0c-0.4,0-0.8,0-1.1-0.1c-4.7-0.6-8-4.9-7.4-9.5C562.6,761.7,562.8,760.7,563.3,759.2z
	 M683.3,541.2c1.4-4.7,5.7-7.9,10.7-7.9c4.5,0,8.2,3.7,8.2,8.2c0,1.5,0,2.3,0,2.6c0,0,0,0,0,0c0,5.2-4.1,9.4-9.3,9.5l-1.8,0
	c-0.4,0-0.8,0-1.1-0.1c-4.7-0.6-8-4.9-7.4-9.5C682.6,543.7,682.8,542.7,683.3,541.2z"/>
<path class="st0" d="M630,886.3c-8.5-5.6-14.4-15-15-25.9c-1-18.2,13-33.7,31.2-34.7c18.2-1,33.7,13,34.7,31.2
	c0.6,11.2-4.4,21.3-12.6,27.7L656,868.9c3.2-2.5,5.2-6.5,5-10.9c-0.4-7.2-6.5-12.7-13.7-12.3c-7.2,0.4-12.7,6.5-12.3,13.7
	c0.2,4.3,2.5,8,5.9,10.2L630,886.3z"/>
<path class="st2" d="M630.7,887.6l-0.6-0.4c-9-5.9-14.7-15.6-15.3-26.5c-1-18.6,13.3-34.5,31.9-35.5c18.6-1,34.5,13.3,35.5,31.9
	c0.6,11.1-4.3,21.6-12.9,28.3l-0.6,0.5L655.4,869l0.6-0.5c3.1-2.4,4.9-6.3,4.7-10.3c-0.4-6.8-6.1-11.9-12.9-11.6
	c-6.8,0.4-11.9,6.1-11.6,12.9c0.2,4,2.3,7.5,5.6,9.6l0.6,0.4L630.7,887.6z M630.2,885.6l10.1-15.5c-3.3-2.4-5.4-6.2-5.6-10.4
	c-0.4-7.6,5.4-14.1,13-14.5c7.6-0.4,14.1,5.4,14.5,13c0.2,4.3-1.5,8.3-4.7,11.1l11.4,14.6c7.9-6.5,12.3-16.2,11.7-26.6
	c-0.9-17.8-16.1-31.4-33.9-30.5c-17.8,0.9-31.5,16.1-30.5,33.9C616.8,870.8,622,879.9,630.2,885.6z"/>
<path class="st1" d="M1096.8,635.3l189.1-74.3c4.1-1.6,8.8,0.4,10.4,4.5c0.2,0.5,0.3,1,0.4,1.5l37.7,213.4c0.5,2.7-1.3,5.3-4.1,5.8
	c-0.9,0.2-1.9,0.1-2.8-0.3l-236.1-98v24l238.4,104c12.2,5.3,26.3-0.3,31.6-12.4c1.8-4.2,2.4-8.8,1.7-13.3l-37.9-239.5
	c-2.5-15.8-17.4-26.6-33.2-24.1c-2.3,0.4-4.6,1-6.8,2L1088,612.4c-4.3,1.8-7,6.2-6.7,10.9c0.1,1.4,0.3,2.8,0.6,4.1c0,0,0,0.1,0,0.1
	c1.4,5.9,7.3,9.6,13.2,8.2C1095.8,635.6,1096.3,635.5,1096.8,635.3z"/>
<path class="st2" d="M1097.3,636l189.1-74.3c3.7-1.5,7.9,0.4,9.4,4.1c0.2,0.4,0.3,0.9,0.4,1.4l37.7,213.4c0.4,2.3-1.1,4.5-3.4,4.9
	c-0.8,0.1-1.6,0.1-2.4-0.3l-237.1-98.4v25.6l238.8,104.2c12.5,5.5,27.1-0.3,32.6-12.8c1.9-4.3,2.5-9.1,1.8-13.8l-37.9-239.5
	c-2.6-16.2-17.8-27.3-34-24.7c-2.4,0.4-4.8,1.1-7,2l-197.3,83.9c-4.6,2-7.5,6.7-7.1,11.7c0.1,1.4,0.3,2.8,0.6,4.2c0,0.1,0,0.1,0,0.1
	c1.5,6.3,7.8,10.2,14.1,8.8C1096.3,636.4,1096.8,636.2,1097.3,636z M1092.6,689.1l235,97.6c1,0.4,2.1,0.5,3.2,0.4
	c3.1-0.6,5.2-3.5,4.7-6.7l-37.7-213.4c-0.1-0.6-0.3-1.1-0.5-1.7c-1.8-4.5-6.8-6.7-11.3-4.9l-189.1,74.3c-0.5,0.2-0.9,0.3-1.4,0.4
	c-5.5,1.3-11-2.1-12.3-7.6c0-0.1,0-0.1,0-0.1c-0.3-1.3-0.5-2.7-0.6-4c-0.3-4.4,2.2-8.5,6.2-10.2l197.3-83.9c2.1-0.9,4.4-1.5,6.7-1.9
	c15.4-2.4,29.9,8.1,32.3,23.5l37.9,239.5c0.7,4.4,0.1,8.9-1.7,12.9c-5.1,11.8-18.8,17.1-30.6,12l-237.9-103.8V689.1z"/>
<path class="st0" d="M1098.8,779.8c-9.6-3.5-17.4-11.4-20.4-21.9c-5-17.5,5.1-35.8,22.6-40.8c17.5-5,35.8,5.1,40.8,22.6
	c3.1,10.7,0.5,21.8-6.1,29.8l-15.6-12.6c2.6-3.2,3.6-7.5,2.4-11.8c-2-6.9-9.2-10.9-16.1-8.9c-6.9,2-10.9,9.2-8.9,16.1
	c1.2,4.2,4.3,7.3,8.1,8.6L1098.8,779.8z"/>
<path class="st2" d="M1099.2,780.8l-0.7-0.3c-10.1-3.7-17.9-11.9-20.9-22.4c-5.1-17.9,5.2-36.6,23.1-41.7
	c17.9-5.1,36.6,5.2,41.8,23.1c3.1,10.7,0.7,22-6.2,30.5l-0.5,0.6l-16.7-13.5l0.5-0.6c2.5-3.1,3.4-7.2,2.2-11.1
	c-1.9-6.5-8.7-10.3-15.2-8.4s-10.3,8.6-8.4,15.2c1.1,3.8,3.9,6.8,7.6,8.1l0.7,0.3L1099.2,780.8z M1104.7,761.5
	c-3.8-1.6-6.7-4.8-7.8-8.9c-2.1-7.3,2.1-14.9,9.4-17c7.3-2.1,14.9,2.1,17,9.4c1.2,4.1,0.4,8.5-2.1,11.8l14.4,11.6
	c6.2-8.1,8.3-18.6,5.5-28.6c-4.9-17.1-22.8-27-39.9-22.1c-17.1,4.9-27,22.8-22.1,39.9c2.8,9.8,10,17.5,19.3,21.1L1104.7,761.5z"/>
<path class="st1" d="M1104.1,722.3c8.6-1.2,14.6-9.2,13.4-17.8c0-0.3-0.1-0.5-0.1-0.8l-1.6-8.4c-1.7-8.7-10-14.3-18.7-12.7
	c0,0-0.1,0-0.1,0c-8.8,1.7-14.6,10.1-13.1,18.9l1.1,6.7C1086.6,717.4,1095,723.6,1104.1,722.3z"/>
<path class="st2" d="M1104.1,722.8c9-1.3,15.3-9.6,14.1-18.7c0-0.3-0.1-0.5-0.1-0.8l-1.6-8.4c-1.7-9.1-10.5-15-19.6-13.3l-0.1,0
	c-9.2,1.8-15.2,10.5-13.7,19.8l1.1,6.7C1085.7,717.7,1094.6,724.2,1104.1,722.8z M1103.9,721.4c-8.7,1.2-16.8-4.7-18.2-13.4
	l-1.1-6.7c-1.4-8.4,4.2-16.4,12.5-18l0.1,0c8.2-1.6,16.2,3.8,17.8,12.1l1.6,8.4c0.1,0.2,0.1,0.5,0.1,0.7
	C1117.8,712.6,1112.1,720.2,1103.9,721.4z"/>
<path class="st7" d="M928.7,583l124.5,9c3.9,0.3,6.8,3.6,6.5,7.5c0,0.1,0,0.3,0,0.4l-12,88.7c-0.5,3.7-3.9,6.4-7.6,6l-126.4-12
	c-3.8-0.4-6.7-3.8-6.3-7.6c0-0.2,0-0.3,0.1-0.5l13.9-85.7C921.9,585.2,925.1,582.7,928.7,583z M914.3,675.5l126.4,12.2l12.1-88.8
	l-124.7-9L914.3,675.5z M962.4,638.9c-5,0-9-4-9-9c0-5,4-9,9-9c5,0,9,4,9,9C971.4,634.9,967.3,638.9,962.4,638.9z M948.6,649.7
	l64.8,4.5l-0.3,4l-64.8-4.5L948.6,649.7z M1003.6,641.9l-8.2-9.8l9.8-8.2l8.2,9.8L1003.6,641.9z"/>
<path class="st3" d="M1294.3,526.9c6.4-0.6,11.2-0.1,14.5,1.5c3.3,1.6,7.4,5.4,12.5,11.5l-26,23.5c-1.3-1-2.3-1.7-3-2
	c-0.7-0.3-1.8-0.7-3.5-1L1294.3,526.9z M758.8,571.4c4.3-2.2,8.3-3.7,12-4.5s9.3-1.3,17-1.5l-6.5,29l-3.5,0.5l-3.5,1.1L758.8,571.4z
	 M646.7,672.5c1.4-5.9,2.7-10.4,4.1-13.6c1.4-3.1,3.9-7.7,7.6-13.6l22.9,25.1l-1.6,3.2l-1.1,3.5L646.7,672.5z M1363.8,793.4
	c-1.7,8.5-3.9,14.1-6.5,17s-7.8,5.2-15.5,7l-12-31c1.8-0.5,3-1.1,3.5-1.6c0.5-0.5,1-1.5,1.5-2.9L1363.8,793.4z"/>
<path class="st2" d="M1070.3,437.6l9.5,14.5l56.4-8.4l0.2,1.5l-57.3,8.6l-10.1-15.5l-34.6,3.4c-0.4,0-0.8-0.3-0.8-0.7
	c-0.1-0.4,0.3-0.8,0.7-0.8l34.7-3.4l3-23.9l54.1-17.1c0.4-0.1,0.8,0.1,0.9,0.5c0.1,0.4-0.1,0.8-0.5,0.9l-53.2,16.9L1070.3,437.6z"/>
<path class="st2" d="M928.7,665.7c-0.4,0-0.7-0.4-0.7-0.9l9.5-58.5c0.1-0.4,0.4-0.7,0.8-0.6l99.5,7.5c0.4,0,0.8,0.4,0.7,0.9l-8.5,60
	c-0.1,0.4-0.4,0.7-0.8,0.6L928.7,665.7z M938.9,607.2l-9.3,57l99,8.9l8.3-58.5L938.9,607.2z M928.3,582.4l124.5,9
	c4.3,0.3,7.5,4,7.2,8.3c0,0.2,0,0.3-0.1,0.5l-12,88.7c-0.6,4.1-4.3,7.1-8.4,6.7l-126.4-12c-4.3-0.4-7.4-4.2-7-8.4
	c0-0.2,0-0.3,0.1-0.5l13.9-85.7C920.7,585,924.3,582.1,928.3,582.4z M928.2,583.9c-3.2-0.2-6.1,2-6.6,5.2l-13.9,85.7
	c0,0.1,0,0.3-0.1,0.4c-0.3,3.4,2.2,6.5,5.6,6.8l126.4,12c3.3,0.3,6.3-2.1,6.8-5.4l12-88.7c0-0.1,0-0.3,0-0.4
	c0.2-3.4-2.3-6.4-5.8-6.7L928.2,583.9z M913,676.4l14.1-87.1l126.1,9.1l-12.3,90.3L913,676.4z M1039.7,687.1l11.9-87.3L928.4,591
	l-13.6,84.1L1039.7,687.1z M962.3,639.7c-5.4,0-9.8-4.4-9.8-9.8c0-5.4,4.4-9.8,9.8-9.8s9.8,4.4,9.8,9.8
	C972.1,635.3,967.7,639.7,962.3,639.7z M962.3,638.2c4.6,0,8.2-3.7,8.2-8.2c0-4.6-3.7-8.2-8.2-8.2c-4.6,0-8.2,3.7-8.2,8.2
	C954.1,634.5,957.7,638.2,962.3,638.2z M947.8,648.9l66.3,4.6l-0.4,5.5l-66.3-4.6L947.8,648.9z M949,653l63.3,4.4l0.2-2.5l-63.3-4.4
	L949,653z M1003.4,643l-9.1-10.9l10.9-9.1l9.1,10.9L1003.4,643z M1012.2,633.6l-7.2-8.6l-8.6,7.2l7.2,8.6L1012.2,633.6z"/>
<path class="st2" d="M1032.3,1068.2v-1.5V1068.2z M1032.3,1066.7c1,0,1,1.5,0,1.5h-11.5c-1,0-1-1.5,0-1.5H1032.3h11.5
	c1,0,1,1.5,0,1.5h-11.5C1031.3,1068.2,1031.3,1066.7,1032.3,1066.7z M996.5,1017.3l-1-1.2L996.5,1017.3z M996.5,1017.3l-9.2,7.8
	c-0.8,0.6-1.7-0.5-1-1.2l9.2-7.8l9.2-7.8c0.8-0.6,1.7,0.5,1,1.2L996.5,1017.3z"/>
</svg>
