<svg id="Layer_1" data-name="Layer 1" xmlns="http://www.w3.org/2000/svg" viewBox="0 0 595.28 166.34"><defs><style>.cls-1{fill:#1f1f19;}.cls-2{fill:#fdc406;}</style></defs><path class="cls-1" d="M192.52,86.39a6.68,6.68,0,0,0,2.67,2.49,7.8,7.8,0,0,0,3.69.9,10.08,10.08,0,0,0,3.21-.51,11,11,0,0,0,2.82-1.41A7.77,7.77,0,0,0,207,85.64v8.82a11.27,11.27,0,0,1-3.6,1.83,17.52,17.52,0,0,1-5.28.69,18.19,18.19,0,0,1-8.19-1.8,14,14,0,0,1-5.7-5,14.9,14.9,0,0,1,0-15.15,14,14,0,0,1,5.7-5,18.19,18.19,0,0,1,8.19-1.8,17.52,17.52,0,0,1,5.28.69,13.11,13.11,0,0,1,3.6,1.71v8.88a7.47,7.47,0,0,0-2.19-2.22,11.11,11.11,0,0,0-2.91-1.38,10.37,10.37,0,0,0-3.06-.48,7.41,7.41,0,0,0-3.69,1,7,7,0,0,0-3.63,6.24A7.24,7.24,0,0,0,192.52,86.39Zm8.7,6.57-5.16,7.32a3.43,3.43,0,0,1,1-.21q.54,0,1.2,0a5.59,5.59,0,0,1,4.59,2.58,5.87,5.87,0,0,1,.87,3.3,5.46,5.46,0,0,1-1.2,3.57,7.6,7.6,0,0,1-3,2.22,9.36,9.36,0,0,1-3.69.75,18.45,18.45,0,0,1-4.53-.51,13.65,13.65,0,0,1-4.11-1.89L190,106a7,7,0,0,0,2.46,1.17,9.45,9.45,0,0,0,2.22.33,4.66,4.66,0,0,0,2.4-.51,1.73,1.73,0,0,0,.84-1.59,1.49,1.49,0,0,0-1.11-1.56,8,8,0,0,0-2.49-.36q-.42,0-1.89.15a10.52,10.52,0,0,0-3,.81l5.22-11.7Z"/><path class="cls-1" d="M213.85,74.72a13.1,13.1,0,0,1,4.89-4.86,12.82,12.82,0,0,1,6.36-1.68,11,11,0,0,1,6.15,1.74,12,12,0,0,1,4.23,5A17.5,17.5,0,0,1,237,82.58a17.54,17.54,0,0,1-1.56,7.68,12,12,0,0,1-4.23,5A11,11,0,0,1,225.1,97a12.82,12.82,0,0,1-6.36-1.68,13,13,0,0,1-4.89-4.89A15.19,15.19,0,0,1,212,82.58,15.15,15.15,0,0,1,213.85,74.72Zm8.55,11.61a6.42,6.42,0,0,0,5.7,3.33,6,6,0,0,0,3-.84,6.74,6.74,0,0,0,2.43-2.43,8,8,0,0,0,0-7.62,6.74,6.74,0,0,0-2.43-2.43,6,6,0,0,0-3-.84,6.42,6.42,0,0,0-5.7,3.33,8.26,8.26,0,0,0,0,7.5Zm21.18-17.55v27.6h-9V68.78Z"/><path class="cls-1" d="M250.87,74.42a12.32,12.32,0,0,1,4.89-4.68,13.59,13.59,0,0,1,6.36-1.56A11.08,11.08,0,0,1,272.5,74.6a16.91,16.91,0,0,1,1.56,7.62,17,17,0,0,1-1.56,7.59,11,11,0,0,1-10.38,6.45,13.39,13.39,0,0,1-6.36-1.59A12.54,12.54,0,0,1,250.87,90,14.7,14.7,0,0,1,249,82.22,14.82,14.82,0,0,1,250.87,74.42Zm7.47,23.94a5.86,5.86,0,0,0,1,2.82,4.92,4.92,0,0,0,2.19,1.71,8.11,8.11,0,0,0,3.12.57,7,7,0,0,0,3.48-.87,6.33,6.33,0,0,0,2.49-2.58,8.76,8.76,0,0,0,.93-4.23v-27h8.7v27a15.94,15.94,0,0,1-2.07,8.58,12.32,12.32,0,0,1-5.49,4.83,18.61,18.61,0,0,1-7.68,1.53,19.89,19.89,0,0,1-8.43-1.56,11.19,11.19,0,0,1-5-4.35,14.64,14.64,0,0,1-2-6.45Zm4-42.6a3.48,3.48,0,0,0,.48,1.86,3.57,3.57,0,0,0,1.35,1.26,4.22,4.22,0,0,0,2.07.48,4.27,4.27,0,0,0,2-.48,3.52,3.52,0,0,0,1.38-1.26,3.48,3.48,0,0,0,.48-1.86H276a8.78,8.78,0,0,1-1.14,4.41,8.12,8.12,0,0,1-3.33,3.18,12.84,12.84,0,0,1-10.71,0,8.08,8.08,0,0,1-3.36-3.18,8.78,8.78,0,0,1-1.14-4.41Zm-2.88,30.09a5.92,5.92,0,0,0,2.4,2.31,7,7,0,0,0,3.3.78,6.59,6.59,0,0,0,3-.75,6.22,6.22,0,0,0,2.43-2.25,6.77,6.77,0,0,0,1-3.72,7.07,7.07,0,0,0-.57-2.94,6.26,6.26,0,0,0-1.5-2.1,6.33,6.33,0,0,0-2.07-1.26,6.56,6.56,0,0,0-2.28-.42,7,7,0,0,0-3.3.78,6,6,0,0,0-2.4,2.28,7.83,7.83,0,0,0,0,7.29Z"/><path class="cls-1" d="M287.47,55.85A13.1,13.1,0,0,1,292.36,51a12.82,12.82,0,0,1,6.36-1.68,11,11,0,0,1,6.15,1.74,12,12,0,0,1,4.23,5,17.5,17.5,0,0,1,1.56,7.71,17.54,17.54,0,0,1-1.56,7.68,12,12,0,0,1-4.23,5,11,11,0,0,1-6.15,1.74,12.82,12.82,0,0,1-6.36-1.68,13,13,0,0,1-4.89-4.89,15.19,15.19,0,0,1-1.89-7.83A15.15,15.15,0,0,1,287.47,55.85ZM296,67.46a6.42,6.42,0,0,0,5.7,3.33,6,6,0,0,0,3-.84,6.74,6.74,0,0,0,2.43-2.43,8,8,0,0,0,0-7.62,6.74,6.74,0,0,0-2.43-2.43,6,6,0,0,0-3-.84A6.42,6.42,0,0,0,296,60a8.26,8.26,0,0,0,0,7.5ZM317.2,49.91v27.6h-9V49.91Z"/><path class="cls-1" d="M339.46,49.91v7.5H321v-7.5Zm-4.92-9.6v50.4h-8.7V40.31Z"/><path class="cls-1" d="M343.39,55.85A13.1,13.1,0,0,1,348.28,51a12.82,12.82,0,0,1,6.36-1.68,11,11,0,0,1,6.15,1.74A12,12,0,0,1,365,56a17.5,17.5,0,0,1,1.56,7.71A17.54,17.54,0,0,1,365,71.39a12,12,0,0,1-4.23,5,11,11,0,0,1-6.15,1.74,12.82,12.82,0,0,1-6.36-1.68,13,13,0,0,1-4.89-4.89,15.19,15.19,0,0,1-1.89-7.83A15.15,15.15,0,0,1,343.39,55.85Zm8.55,11.61a6.42,6.42,0,0,0,5.7,3.33,6,6,0,0,0,3-.84,6.74,6.74,0,0,0,2.43-2.43,8,8,0,0,0,0-7.62,6.74,6.74,0,0,0-2.43-2.43,6,6,0,0,0-3-.84,6.42,6.42,0,0,0-5.7,3.33,8.26,8.26,0,0,0,0,7.5Zm20.88-17.55v27.6h-8.7V49.91Z"/><path class="cls-1" d="M390.46,90.71h-9l6.72-15.42L376.24,49.91h10l8.94,22.14L390.46,72l8.82-22.08h9.3Z"/><path class="cls-2" d="M411.19,112.37a13.1,13.1,0,0,1-4.89,4.86,12.82,12.82,0,0,1-6.36,1.68,11,11,0,0,1-6.15-1.74,12,12,0,0,1-4.23-5,19.76,19.76,0,0,1,0-15.39,12,12,0,0,1,4.23-5,11,11,0,0,1,6.15-1.74,12.82,12.82,0,0,1,6.36,1.68,13,13,0,0,1,4.89,4.89,17.23,17.23,0,0,1,0,15.69Zm-8.55-11.61a6.42,6.42,0,0,0-5.7-3.33,6,6,0,0,0-3,.84,6.74,6.74,0,0,0-2.43,2.43,8,8,0,0,0,0,7.62,6.74,6.74,0,0,0,2.43,2.43,6,6,0,0,0,3,.84,6.42,6.42,0,0,0,5.7-3.33,8.26,8.26,0,0,0,0-7.5Zm-21.18,17.55V90.71h9v27.6Z"/><path class="cls-2" d="M359.2,118.31v-7.5h18.48v7.5Zm4.92,9.6V77.51h8.7v50.4Z"/><path class="cls-2" d="M355.27,112.37a13.1,13.1,0,0,1-4.89,4.86,12.82,12.82,0,0,1-6.36,1.68,11,11,0,0,1-6.15-1.74,12,12,0,0,1-4.23-5,19.76,19.76,0,0,1,0-15.39,12,12,0,0,1,4.23-5A11,11,0,0,1,344,90.11a12.82,12.82,0,0,1,6.36,1.68,13,13,0,0,1,4.89,4.89,17.23,17.23,0,0,1,0,15.69Zm-8.55-11.61a6.42,6.42,0,0,0-5.7-3.33,6,6,0,0,0-3,.84,6.74,6.74,0,0,0-2.43,2.43,8,8,0,0,0,0,7.62,6.74,6.74,0,0,0,2.43,2.43,6,6,0,0,0,3,.84,6.42,6.42,0,0,0,5.7-3.33,8.26,8.26,0,0,0,0-7.5Zm-20.88,17.55V90.71h8.7v27.6Z"/><path class="cls-2" d="M308.2,77.51h9l-6.72,15.42,11.94,25.38h-10l-8.94-22.14,4.68.06-8.82,22.08h-9.3Z"/></svg>