<?xml version="1.0" encoding="utf-8"?>
<!-- Generator: Adobe Illustrator 26.3.1, SVG Export Plug-In . SVG Version: 6.00 Build 0)  -->
<svg version="1.1" id="Layer_1" xmlns="http://www.w3.org/2000/svg" xmlns:xlink="http://www.w3.org/1999/xlink" x="0px" y="0px"
	 viewBox="0 0 1110.9 748.3" style="enable-background:new 0 0 1110.9 748.3;" xml:space="preserve">
<style type="text/css">
	.st0{opacity:0.5;}
	.st1{fill:none;stroke:#000000;stroke-miterlimit:10;}
	.st2{fill:#E9592F;}
</style>
<g id="Teknik_Çizim_4_">
	<g id="Teknik_Çizim_5_" transform="translate(0,0)" class="st0">
		<g id="page-mountain_6_">
			<path id="page-mountain-mount-hor-1_6_" class="st1" d="M1110.4,192.8H0.5"/>
			<path id="page-mountain-mount-hor-2_6_" class="st1" d="M1110.4,606.3H65.8"/>
			<path id="page-mountain-mount-ver-1_6_" class="st1" d="M784,22.3v682"/>
			<path id="page-mountain-mount-ver-2_6_" class="st1" d="M588.1,22.3v682"/>
			<path id="page-mountain-mount-ver-3_6_" class="st1" d="M261.7,22.3v682"/>
			<path id="page-mountain-mount-ver-4_6_" class="st1" d="M65.8,22.3v584.1"/>
			<path id="page-mountain-mount-ver-5_6_" class="st1" d="M686,44V22.3"/>
			<path id="page-mountain-mount-ver-6_6_" class="st1" d="M163.7,44V22.3"/>
		</g>
		<g id="page-valley_6_">
			<path id="page-valley-valley-hor-1_6_" class="st1" d="M1110.4,44H0.5"/>
			<path id="page-valley-valley-diag-1_6_" class="st1" d="M784,192.8L686,44l-97.9,148.8"/>
			<path id="page-valley-valley-diag-2_6_" class="st1" d="M261.7,192.8L163.7,44L65.8,192.8"/>
			<path id="page-valley-valley-diag-3_6_" class="st1" d="M784,606.3L686,704.3l-97.9-97.9"/>
			<path id="page-valley-valley-diag-4_6_" class="st1" d="M65.8,606.3l97.9,97.9l97.9-97.9"/>
			<path id="page-valley-val-ver-1_6_" class="st1" d="M881.9,0.5V44L784,192.8"/>
			<path id="page-valley-val-ver-2_6_" class="st1" d="M490.2,0.5V44l97.9,148.8"/>
		</g>
		<g id="page-cut_6_">
			<path class="st1" d="M228.2,704.3h33.5l104.9,42c2.6,1,5.3,1.6,8.1,1.6h100.4c2.8,0,5.5-0.5,8.1-1.6l104.9-42H686H784h326.5
				v-97.9V192.8V44V22.3c0-6-2.4-11.4-6.4-15.4c-3.9-3.9-9.4-6.4-15.4-6.4H881.9h-76.2c-6,0-11.5,2.4-15.4,6.4
				c-3.9,3.9-6.4,9.4-6.4,15.4H686h-97.9c0-6-2.4-11.4-6.4-15.4c-3.9-3.9-9.4-6.4-15.4-6.4h-76.2H283.4c-6,0-11.5,2.4-15.4,6.4
				s-6.4,9.4-6.4,15.4h-97.9H65.8H0.5V44v148.8v413.5h65.3v97.9h97.9H228.2"/>
		</g>
	</g>
	<g id="Teknik_Çizim_Çizgi_2_">
		<g>
			<g>
				<rect x="1088.3" y="198.3" class="st2" width="0.8" height="402.5"/>
			</g>
			<g>
				<g>
					<polygon class="st2" points="1084.8,199.5 1088.7,192.8 1092.5,199.5 					"/>
				</g>
			</g>
			<g>
				<g>
					<polygon class="st2" points="1084.8,599.7 1088.7,606.3 1092.5,599.7 					"/>
				</g>
			</g>
		</g>
		<g>
			<g>
				<rect x="1088.3" y="49.5" class="st2" width="0.8" height="137.8"/>
			</g>
			<g>
				<g>
					<polygon class="st2" points="1084.8,50.7 1088.7,44 1092.5,50.7 					"/>
				</g>
			</g>
			<g>
				<g>
					<polygon class="st2" points="1084.8,186.2 1088.7,192.8 1092.5,186.2 					"/>
				</g>
			</g>
		</g>
		<g>
			<g>
				<rect x="21.9" y="49.5" class="st2" width="0.8" height="137.8"/>
			</g>
			<g>
				<g>
					<polygon class="st2" points="18.4,50.7 22.3,44 26.1,50.7 					"/>
				</g>
			</g>
			<g>
				<g>
					<polygon class="st2" points="18.4,186.2 22.3,192.8 26.1,186.2 					"/>
				</g>
			</g>
		</g>
		<g>
			<g>
				<rect x="21.9" y="27.8" class="st2" width="0.8" height="10.7"/>
			</g>
			<g>
				<g>
					<polygon class="st2" points="18.4,28.9 22.3,22.3 26.1,28.9 					"/>
				</g>
			</g>
			<g>
				<g>
					<polygon class="st2" points="18.4,37.4 22.3,44 26.1,37.4 					"/>
				</g>
			</g>
		</g>
		<g>
			<g>
				<rect x="1088.3" y="6" class="st2" width="0.8" height="32.5"/>
			</g>
			<g>
				<g>
					<polygon class="st2" points="1084.8,7.1 1088.7,0.5 1092.5,7.1 					"/>
				</g>
			</g>
			<g>
				<g>
					<polygon class="st2" points="1084.8,37.4 1088.7,44 1092.5,37.4 					"/>
				</g>
			</g>
		</g>
		<g>
			<g>
				<rect x="805.4" y="6" class="st2" width="0.8" height="32.5"/>
			</g>
			<g>
				<g>
					<polygon class="st2" points="801.9,7.1 805.7,0.5 809.6,7.1 					"/>
				</g>
			</g>
			<g>
				<g>
					<polygon class="st2" points="801.9,37.4 805.7,44 809.6,37.4 					"/>
				</g>
			</g>
		</g>
		<g>
			<g>
				<rect x="789.5" y="214.2" class="st2" width="315.4" height="0.8"/>
			</g>
			<g>
				<g>
					<polygon class="st2" points="1103.8,210.8 1110.4,214.6 1103.8,218.4 					"/>
				</g>
			</g>
			<g>
				<g>
					<polygon class="st2" points="790.6,210.8 784,214.6 790.6,218.4 					"/>
				</g>
			</g>
		</g>
		<g>
			<g>
				<rect x="789.5" y="170.7" class="st2" width="315.4" height="0.8"/>
			</g>
			<g>
				<g>
					<polygon class="st2" points="1103.8,167.2 1110.4,171.1 1103.8,174.9 					"/>
				</g>
			</g>
			<g>
				<g>
					<polygon class="st2" points="790.6,167.2 784,171.1 790.6,174.9 					"/>
				</g>
			</g>
		</g>
		<g>
			<g>
				<rect x="789.5" y="65.4" class="st2" width="315.4" height="0.8"/>
			</g>
			<g>
				<g>
					<polygon class="st2" points="1103.8,62 1110.4,65.8 1103.8,69.6 					"/>
				</g>
			</g>
			<g>
				<g>
					<polygon class="st2" points="790.6,62 784,65.8 790.6,69.6 					"/>
				</g>
			</g>
		</g>
		<g>
			<g>
				<rect x="789.5" y="584.2" class="st2" width="315.4" height="0.8"/>
			</g>
			<g>
				<g>
					<polygon class="st2" points="1103.8,580.7 1110.4,584.6 1103.8,588.4 					"/>
				</g>
			</g>
			<g>
				<g>
					<polygon class="st2" points="790.6,580.7 784,584.6 790.6,588.4 					"/>
				</g>
			</g>
		</g>
		<g>
			<g>
				<rect x="789.5" y="682.1" class="st2" width="315.4" height="0.8"/>
			</g>
			<g>
				<g>
					<polygon class="st2" points="1103.8,678.7 1110.4,682.5 1103.8,686.3 					"/>
				</g>
			</g>
			<g>
				<g>
					<polygon class="st2" points="790.6,678.7 784,682.5 790.6,686.3 					"/>
				</g>
			</g>
		</g>
		<g>
			<g>
				<rect x="593.6" y="682.1" class="st2" width="184.9" height="0.8"/>
			</g>
			<g>
				<g>
					<polygon class="st2" points="777.3,678.7 784,682.5 777.3,686.3 					"/>
				</g>
			</g>
			<g>
				<g>
					<polygon class="st2" points="594.7,678.7 588.1,682.5 594.7,686.3 					"/>
				</g>
			</g>
		</g>
		<g>
			<g>
				<rect x="789.5" y="627.7" class="st2" width="315.4" height="0.8"/>
			</g>
			<g>
				<g>
					<polygon class="st2" points="1103.8,624.3 1110.4,628.1 1103.8,631.9 					"/>
				</g>
			</g>
			<g>
				<g>
					<polygon class="st2" points="790.6,624.3 784,628.1 790.6,631.9 					"/>
				</g>
			</g>
		</g>
		<g>
			<g>
				<rect x="1088.4" y="611.8" class="st2" width="0.8" height="86.9"/>
			</g>
			<g>
				<g>
					<polygon class="st2" points="1085,613 1088.8,606.3 1092.6,613 					"/>
				</g>
			</g>
			<g>
				<g>
					<polygon class="st2" points="1085,697.6 1088.8,704.3 1092.6,697.6 					"/>
				</g>
			</g>
		</g>
		<g>
			<g>
				<rect x="267.2" y="627.7" class="st2" width="315.4" height="0.8"/>
			</g>
			<g>
				<g>
					<polygon class="st2" points="581.5,624.3 588.1,628.1 581.5,631.9 					"/>
				</g>
			</g>
			<g>
				<g>
					<polygon class="st2" points="268.3,624.3 261.7,628.1 268.3,631.9 					"/>
				</g>
			</g>
		</g>
		<g>
			<g>
				<rect x="593.6" y="627.7" class="st2" width="184.9" height="0.8"/>
			</g>
			<g>
				<g>
					<polygon class="st2" points="777.3,624.3 784,628.1 777.3,631.9 					"/>
				</g>
			</g>
			<g>
				<g>
					<polygon class="st2" points="594.7,624.3 588.1,628.1 594.7,631.9 					"/>
				</g>
			</g>
		</g>
		<g>
			<g>
				<rect x="71.3" y="682.1" class="st2" width="184.9" height="0.8"/>
			</g>
			<g>
				<g>
					<polygon class="st2" points="255,678.7 261.7,682.5 255,686.3 					"/>
				</g>
			</g>
			<g>
				<g>
					<polygon class="st2" points="72.4,678.7 65.8,682.5 72.4,686.3 					"/>
				</g>
			</g>
		</g>
		<g>
			<g>
				<rect x="87.2" y="611.8" class="st2" width="0.8" height="86.9"/>
			</g>
			<g>
				<g>
					<polygon class="st2" points="83.7,613 87.6,606.3 91.4,613 					"/>
				</g>
			</g>
			<g>
				<g>
					<polygon class="st2" points="83.7,697.6 87.6,704.3 91.4,697.6 					"/>
				</g>
			</g>
		</g>
		<g>
			<g>
				<rect x="21.9" y="198.3" class="st2" width="0.8" height="402.5"/>
			</g>
			<g>
				<g>
					<polygon class="st2" points="18.4,199.5 22.3,192.8 26.1,199.5 					"/>
				</g>
			</g>
			<g>
				<g>
					<polygon class="st2" points="18.4,599.7 22.3,606.3 26.1,599.7 					"/>
				</g>
			</g>
		</g>
		<g>
			<g>
				<rect x="593.6" y="584.2" class="st2" width="184.9" height="0.8"/>
			</g>
			<g>
				<g>
					<polygon class="st2" points="777.3,580.7 784,584.6 777.3,588.4 					"/>
				</g>
			</g>
			<g>
				<g>
					<polygon class="st2" points="594.7,580.7 588.1,584.6 594.7,588.4 					"/>
				</g>
			</g>
		</g>
		<g>
			<g>
				<rect x="267.6" y="584.2" class="st2" width="315.4" height="0.8"/>
			</g>
			<g>
				<g>
					<polygon class="st2" points="581.9,580.7 588.6,584.6 581.9,588.4 					"/>
				</g>
			</g>
			<g>
				<g>
					<polygon class="st2" points="268.7,580.7 262.1,584.6 268.7,588.4 					"/>
				</g>
			</g>
		</g>
		<g>
			<g>
				<rect x="71.3" y="584.2" class="st2" width="184.9" height="0.8"/>
			</g>
			<g>
				<g>
					<polygon class="st2" points="72.4,588.4 65.8,584.6 72.4,580.7 					"/>
				</g>
			</g>
			<g>
				<g>
					<polygon class="st2" points="255,588.4 261.7,584.6 255,580.7 					"/>
				</g>
			</g>
		</g>
		<g>
			<g>
				<rect x="593.6" y="214.2" class="st2" width="184.9" height="0.8"/>
			</g>
			<g>
				<g>
					<polygon class="st2" points="777.3,210.8 784,214.6 777.3,218.4 					"/>
				</g>
			</g>
			<g>
				<g>
					<polygon class="st2" points="594.7,210.8 588.1,214.6 594.7,218.4 					"/>
				</g>
			</g>
		</g>
		<g>
			<g>
				<rect x="267.6" y="214.2" class="st2" width="315.4" height="0.8"/>
			</g>
			<g>
				<g>
					<polygon class="st2" points="581.9,210.8 588.6,214.6 581.9,218.4 					"/>
				</g>
			</g>
			<g>
				<g>
					<polygon class="st2" points="268.7,210.8 262.1,214.6 268.7,218.4 					"/>
				</g>
			</g>
		</g>
		<g>
			<g>
				<rect x="71.3" y="214.2" class="st2" width="184.9" height="0.8"/>
			</g>
			<g>
				<g>
					<polygon class="st2" points="255,210.8 261.7,214.6 255,218.4 					"/>
				</g>
			</g>
			<g>
				<g>
					<polygon class="st2" points="72.4,210.8 65.8,214.6 72.4,218.4 					"/>
				</g>
			</g>
		</g>
		<g>
			<g>
				<rect x="593.6" y="170.7" class="st2" width="184.9" height="0.8"/>
			</g>
			<g>
				<g>
					<polygon class="st2" points="777.3,167.2 784,171.1 777.3,174.9 					"/>
				</g>
			</g>
			<g>
				<g>
					<polygon class="st2" points="594.7,167.2 588.1,171.1 594.7,174.9 					"/>
				</g>
			</g>
		</g>
		<g>
			<g>
				<rect x="267.6" y="170.7" class="st2" width="315.4" height="0.8"/>
			</g>
			<g>
				<g>
					<polygon class="st2" points="581.9,167.2 588.6,171.1 581.9,174.9 					"/>
				</g>
			</g>
			<g>
				<g>
					<polygon class="st2" points="268.7,167.2 262.1,171.1 268.7,174.9 					"/>
				</g>
			</g>
		</g>
		<g>
			<g>
				<rect x="71.3" y="170.7" class="st2" width="184.9" height="0.8"/>
			</g>
			<g>
				<g>
					<polygon class="st2" points="255,167.2 261.7,171.1 255,174.9 					"/>
				</g>
			</g>
			<g>
				<g>
					<polygon class="st2" points="72.4,167.2 65.8,171.1 72.4,174.9 					"/>
				</g>
			</g>
		</g>
		<g>
			<g>
				<rect x="593.6" y="65.4" class="st2" width="184.9" height="0.8"/>
			</g>
			<g>
				<g>
					<polygon class="st2" points="777.3,62 784,65.8 777.3,69.6 					"/>
				</g>
			</g>
			<g>
				<g>
					<polygon class="st2" points="594.7,62 588.1,65.8 594.7,69.6 					"/>
				</g>
			</g>
		</g>
		<g>
			<g>
				<rect x="267.6" y="65.4" class="st2" width="315.4" height="0.8"/>
			</g>
			<g>
				<g>
					<polygon class="st2" points="581.9,62 588.6,65.8 581.9,69.6 					"/>
				</g>
			</g>
			<g>
				<g>
					<polygon class="st2" points="268.7,62 262.1,65.8 268.7,69.6 					"/>
				</g>
			</g>
		</g>
		<g>
			<g>
				<rect x="71.3" y="65.4" class="st2" width="184.9" height="0.8"/>
			</g>
			<g>
				<g>
					<polygon class="st2" points="255,62 261.7,65.8 255,69.6 					"/>
				</g>
			</g>
			<g>
				<g>
					<polygon class="st2" points="72.4,62 65.8,65.8 72.4,69.6 					"/>
				</g>
			</g>
		</g>
		<g>
			<g>
				<rect x="71.3" y="627.7" class="st2" width="184.9" height="0.8"/>
			</g>
			<g>
				<g>
					<polygon class="st2" points="255,624.3 261.7,628.1 255,631.9 					"/>
				</g>
			</g>
			<g>
				<g>
					<polygon class="st2" points="72.4,624.3 65.8,628.1 72.4,631.9 					"/>
				</g>
			</g>
		</g>
		<g>
			<g>
				<rect x="474.7" y="709.8" class="st2" width="0.8" height="32.5"/>
			</g>
			<g>
				<g>
					<polygon class="st2" points="478.9,741.2 475.1,747.8 471.3,741.2 					"/>
				</g>
			</g>
			<g>
				<g>
					<polygon class="st2" points="478.9,710.9 475.1,704.3 471.3,710.9 					"/>
				</g>
			</g>
		</g>
		<g>
			<g>
				<rect x="374.3" y="709.8" class="st2" width="0.8" height="32.5"/>
			</g>
			<g>
				<g>
					<polygon class="st2" points="378.5,741.2 374.7,747.8 370.8,741.2 					"/>
				</g>
			</g>
			<g>
				<g>
					<polygon class="st2" points="378.5,710.9 374.7,704.3 370.8,710.9 					"/>
				</g>
			</g>
		</g>
		<g>
			<g>
				<rect x="267.2" y="703.9" class="st2" width="315.4" height="0.8"/>
			</g>
			<g>
				<g>
					<polygon class="st2" points="268.4,708.1 261.7,704.3 268.4,700.4 					"/>
				</g>
			</g>
			<g>
				<g>
					<polygon class="st2" points="581.5,708.1 588.2,704.3 581.5,700.4 					"/>
				</g>
			</g>
		</g>
		<g>
			<g>
				<rect x="6" y="584.2" class="st2" width="54.3" height="0.8"/>
			</g>
			<g>
				<g>
					<polygon class="st2" points="7.1,588.4 0.5,584.6 7.1,580.7 					"/>
				</g>
			</g>
			<g>
				<g>
					<polygon class="st2" points="59.2,588.4 65.8,584.6 59.2,580.7 					"/>
				</g>
			</g>
		</g>
		<g>
			<g>
				<rect x="6" y="214.2" class="st2" width="54.3" height="0.8"/>
			</g>
			<g>
				<g>
					<polygon class="st2" points="7.1,218.4 0.5,214.6 7.1,210.8 					"/>
				</g>
			</g>
			<g>
				<g>
					<polygon class="st2" points="59.2,218.4 65.8,214.6 59.2,210.8 					"/>
				</g>
			</g>
		</g>
		<g>
			<g>
				<rect x="6" y="170.7" class="st2" width="54.3" height="0.8"/>
			</g>
			<g>
				<g>
					<polygon class="st2" points="7.1,174.9 0.5,171.1 7.1,167.2 					"/>
				</g>
			</g>
			<g>
				<g>
					<polygon class="st2" points="59.2,174.9 65.8,171.1 59.2,167.2 					"/>
				</g>
			</g>
		</g>
		<g>
			<g>
				<rect x="6" y="65.4" class="st2" width="54.3" height="0.8"/>
			</g>
			<g>
				<g>
					<polygon class="st2" points="7.1,69.6 0.5,65.8 7.1,62 					"/>
				</g>
			</g>
			<g>
				<g>
					<polygon class="st2" points="59.2,69.6 65.8,65.8 59.2,62 					"/>
				</g>
			</g>
		</g>
		<g id="Sağ_5_">
			<g id="Sağ_Yazılar_5_">
				<g>
					<path class="st2" d="M648.8,585l-33.4-0.1V214.2h33.4V585z M616.1,584.2l31.9,0.1V215h-31.9V584.2z"/>
				</g>
			</g>
		</g>
	</g>
	<g id="Teknik_Çizim_Ölçü_2_">
		<g>
			<path class="st2" d="M1092.6,411.4h-0.8v-2.3h6.7v0.9h-5.8V411.4z"/>
			<path class="st2" d="M1098.5,405.6v1l-2.2-1.7c0.1,0.2,0.1,0.5,0.1,0.7c0,1.4-1,2.3-2.3,2.3c-1.4,0-2.4-1-2.4-2.4
				c0-1.4,1-2.4,2.4-2.4c0.8,0,1.3,0.2,2.3,0.9L1098.5,405.6z M1092.5,405.6c0,0.9,0.7,1.5,1.6,1.5c0.9,0,1.6-0.6,1.6-1.5
				c0-0.9-0.6-1.5-1.6-1.5C1093.2,404.1,1092.5,404.7,1092.5,405.6z"/>
			<path class="st2" d="M1093.8,397.7c0-1.1,0.6-1.9,1.6-2.1v0.9c-0.6,0.1-0.9,0.6-0.9,1.2c0,0.8,0.6,1.4,1.6,1.4
				c1,0,1.6-0.5,1.6-1.3c0-0.6-0.3-1.1-0.9-1.2v-0.9c1,0.2,1.6,1,1.6,2.1c0,1.3-0.9,2.2-2.4,2.2
				C1094.8,399.9,1093.8,399,1093.8,397.7z"/>
			<path class="st2" d="M1098.5,394.7h-4.5v-0.8l0.6-0.1c-0.4-0.2-0.7-0.7-0.7-1.3c0-0.7,0.3-1.2,0.9-1.4c-0.6-0.2-0.9-0.8-0.9-1.5
				c0-1,0.6-1.7,1.7-1.7h2.9v0.8h-2.7c-0.7,0-1.1,0.4-1.1,1c0,0.7,0.5,1.1,1.2,1.1h2.7v0.9h-2.7c-0.7,0-1.1,0.4-1.1,1
				c0,0.7,0.5,1.1,1.2,1.1h2.7V394.7z"/>
		</g>
		<g>
			<path class="st2" d="M653.3,411.1h-0.8v-2.3h6.7v0.9h-5.8V411.1z"/>
			<path class="st2" d="M652.5,403.2h0.8l5.8,2.5v0.9l-5.8-2.6v3.7h-0.8V403.2z"/>
			<path class="st2" d="M654.6,398.1c0-1.1,0.6-1.9,1.6-2.1v0.9c-0.6,0.1-0.9,0.6-0.9,1.2c0,0.8,0.6,1.4,1.6,1.4
				c1,0,1.6-0.5,1.6-1.3c0-0.6-0.3-1.1-0.9-1.2V396c1,0.2,1.6,1,1.6,2.1c0,1.3-0.9,2.2-2.4,2.2C655.5,400.3,654.6,399.4,654.6,398.1
				z"/>
			<path class="st2" d="M659.2,395.1h-4.5v-0.8l0.6-0.1c-0.4-0.2-0.7-0.7-0.7-1.3c0-0.7,0.3-1.2,0.9-1.4c-0.6-0.2-0.9-0.8-0.9-1.5
				c0-1,0.6-1.7,1.7-1.7h2.9v0.8h-2.7c-0.7,0-1.1,0.4-1.1,1c0,0.7,0.5,1.1,1.2,1.1h2.7v0.9h-2.7c-0.7,0-1.1,0.4-1.1,1
				c0,0.7,0.5,1.1,1.2,1.1h2.7V395.1z"/>
		</g>
		<g>
			<path class="st2" d="M605.9,411.1h-0.8v-2.3h6.7v0.9h-5.8V411.1z"/>
			<path class="st2" d="M605.1,403.2h0.8l5.8,2.5v0.9l-5.8-2.6v3.7h-0.8V403.2z"/>
			<path class="st2" d="M607.1,398.1c0-1.1,0.6-1.9,1.6-2.1v0.9c-0.6,0.1-0.9,0.6-0.9,1.2c0,0.8,0.6,1.4,1.6,1.4
				c1,0,1.6-0.5,1.6-1.3c0-0.6-0.3-1.1-0.9-1.2V396c1,0.2,1.6,1,1.6,2.1c0,1.3-0.9,2.2-2.4,2.2C608.1,400.3,607.1,399.4,607.1,398.1
				z"/>
			<path class="st2" d="M611.7,395.1h-4.5v-0.8l0.6-0.1c-0.4-0.2-0.7-0.7-0.7-1.3c0-0.7,0.3-1.2,0.9-1.4c-0.6-0.2-0.9-0.8-0.9-1.5
				c0-1,0.6-1.7,1.7-1.7h2.9v0.8H609c-0.7,0-1.1,0.4-1.1,1c0,0.7,0.5,1.1,1.2,1.1h2.7v0.9H609c-0.7,0-1.1,0.4-1.1,1
				c0,0.7,0.5,1.1,1.2,1.1h2.7V395.1z"/>
		</g>
		<g>
			<path class="st2" d="M12.4,411.4h-0.8v-2.3h6.7v0.9h-5.8V411.4z"/>
			<path class="st2" d="M18.2,405.6v1L16,405c0.1,0.2,0.1,0.5,0.1,0.7c0,1.4-1,2.3-2.3,2.3c-1.4,0-2.4-1-2.4-2.4
				c0-1.4,1-2.4,2.4-2.4c0.8,0,1.3,0.2,2.3,0.9L18.2,405.6z M12.3,405.6c0,0.9,0.7,1.5,1.6,1.5c0.9,0,1.6-0.6,1.6-1.5
				c0-0.9-0.6-1.5-1.6-1.5C12.9,404.1,12.3,404.7,12.3,405.6z"/>
			<path class="st2" d="M13.6,397.7c0-1.1,0.6-1.9,1.6-2.1v0.9c-0.6,0.1-0.9,0.6-0.9,1.2c0,0.8,0.6,1.4,1.6,1.4c1,0,1.6-0.5,1.6-1.3
				c0-0.6-0.3-1.1-0.9-1.2v-0.9c1,0.2,1.6,1,1.6,2.1c0,1.3-0.9,2.2-2.4,2.2C14.6,399.9,13.6,399,13.6,397.7z"/>
			<path class="st2" d="M18.2,394.7h-4.5v-0.8l0.6-0.1c-0.4-0.2-0.7-0.7-0.7-1.3c0-0.7,0.3-1.2,0.9-1.4c-0.6-0.2-0.9-0.8-0.9-1.5
				c0-1,0.6-1.7,1.7-1.7h2.9v0.8h-2.7c-0.7,0-1.1,0.4-1.1,1c0,0.7,0.5,1.1,1.2,1.1h2.7v0.9h-2.7c-0.7,0-1.1,0.4-1.1,1
				c0,0.7,0.5,1.1,1.2,1.1h2.7V394.7z"/>
		</g>
		<g>
			<path class="st2" d="M935.5,218.6v-0.8h2.3v6.7h-0.9v-5.8H935.5z"/>
			<path class="st2" d="M938.9,222.3h0.9c0,0.9,0.5,1.4,1.4,1.4c0.9,0,1.5-0.6,1.5-1.5c0-0.9-0.5-1.5-1.5-1.5
				c-0.6,0-1.1,0.3-1.4,0.6l-0.8-0.2l0.8-3.4h3.3v0.8h-2.7l-0.4,1.8c0.4-0.3,0.8-0.4,1.3-0.4c1.4,0,2.2,0.9,2.2,2.2
				c0,1.4-1,2.3-2.4,2.3C939.8,224.5,938.9,223.6,938.9,222.3z"/>
			<path class="st2" d="M949,219.8c1.1,0,1.9,0.6,2.1,1.6h-0.9c-0.1-0.6-0.6-0.9-1.2-0.9c-0.8,0-1.4,0.6-1.4,1.6
				c0,1,0.5,1.6,1.3,1.6c0.6,0,1.1-0.3,1.2-0.9h0.9c-0.2,1-1,1.6-2.1,1.6c-1.3,0-2.2-0.9-2.2-2.4C946.7,220.7,947.6,219.8,949,219.8
				z"/>
			<path class="st2" d="M952,224.4v-4.5h0.8l0.1,0.6c0.2-0.4,0.7-0.7,1.3-0.7c0.7,0,1.2,0.3,1.4,0.9c0.2-0.6,0.8-0.9,1.5-0.9
				c1,0,1.7,0.6,1.7,1.7v2.9h-0.8v-2.7c0-0.7-0.4-1.1-1-1.1c-0.7,0-1.1,0.5-1.1,1.2v2.7h-0.9v-2.7c0-0.7-0.4-1.1-1-1.1
				c-0.7,0-1.1,0.5-1.1,1.2v2.7H952z"/>
		</g>
		<g>
			<path class="st2" d="M935.5,175v-0.8h2.3v6.7h-0.9V175H935.5z"/>
			<path class="st2" d="M938.9,178.8h0.9c0,0.9,0.5,1.4,1.4,1.4c0.9,0,1.5-0.6,1.5-1.5c0-0.9-0.5-1.5-1.5-1.5
				c-0.6,0-1.1,0.3-1.4,0.6l-0.8-0.2l0.8-3.4h3.3v0.8h-2.7l-0.4,1.8c0.4-0.3,0.8-0.4,1.3-0.4c1.4,0,2.2,0.9,2.2,2.2
				c0,1.4-1,2.3-2.4,2.3C939.8,181,938.9,180.1,938.9,178.8z"/>
			<path class="st2" d="M949,176.2c1.1,0,1.9,0.6,2.1,1.6h-0.9c-0.1-0.6-0.6-0.9-1.2-0.9c-0.8,0-1.4,0.6-1.4,1.6
				c0,1,0.5,1.6,1.3,1.6c0.6,0,1.1-0.3,1.2-0.9h0.9c-0.2,1-1,1.6-2.1,1.6c-1.3,0-2.2-0.9-2.2-2.4C946.7,177.2,947.6,176.2,949,176.2
				z"/>
			<path class="st2" d="M952,180.9v-4.5h0.8l0.1,0.6c0.2-0.4,0.7-0.7,1.3-0.7c0.7,0,1.2,0.3,1.4,0.9c0.2-0.6,0.8-0.9,1.5-0.9
				c1,0,1.7,0.6,1.7,1.7v2.9h-0.8v-2.7c0-0.7-0.4-1.1-1-1.1c-0.7,0-1.1,0.5-1.1,1.2v2.7h-0.9v-2.7c0-0.7-0.4-1.1-1-1.1
				c-0.7,0-1.1,0.5-1.1,1.2v2.7H952z"/>
		</g>
		<g>
			<path class="st2" d="M935.5,55.9v-0.8h2.3v6.7h-0.9v-5.8H935.5z"/>
			<path class="st2" d="M938.9,59.7h0.9c0,0.9,0.5,1.4,1.4,1.4c0.9,0,1.5-0.6,1.5-1.5c0-0.9-0.5-1.5-1.5-1.5c-0.6,0-1.1,0.3-1.4,0.6
				l-0.8-0.2l0.8-3.4h3.3v0.8h-2.7l-0.4,1.8c0.4-0.3,0.8-0.4,1.3-0.4c1.4,0,2.2,0.9,2.2,2.2c0,1.4-1,2.3-2.4,2.3
				C939.8,61.9,938.9,61,938.9,59.7z"/>
			<path class="st2" d="M949,57.1c1.1,0,1.9,0.6,2.1,1.6h-0.9c-0.1-0.6-0.6-0.9-1.2-0.9c-0.8,0-1.4,0.6-1.4,1.6c0,1,0.5,1.6,1.3,1.6
				c0.6,0,1.1-0.3,1.2-0.9h0.9c-0.2,1-1,1.6-2.1,1.6c-1.3,0-2.2-0.9-2.2-2.4C946.7,58.1,947.6,57.1,949,57.1z"/>
			<path class="st2" d="M952,61.8v-4.5h0.8l0.1,0.6c0.2-0.4,0.7-0.7,1.3-0.7c0.7,0,1.2,0.3,1.4,0.9c0.2-0.6,0.8-0.9,1.5-0.9
				c1,0,1.7,0.6,1.7,1.7v2.9h-0.8V59c0-0.7-0.4-1.1-1-1.1c-0.7,0-1.1,0.5-1.1,1.2v2.7h-0.9V59c0-0.7-0.4-1.1-1-1.1
				c-0.7,0-1.1,0.5-1.1,1.2v2.7H952z"/>
		</g>
		<g>
			<path class="st2" d="M935.5,574.7v-0.8h2.3v6.7h-0.9v-5.8H935.5z"/>
			<path class="st2" d="M938.9,578.5h0.9c0,0.9,0.5,1.4,1.4,1.4c0.9,0,1.5-0.6,1.5-1.5c0-0.9-0.5-1.5-1.5-1.5
				c-0.6,0-1.1,0.3-1.4,0.6l-0.8-0.2l0.8-3.4h3.3v0.8h-2.7l-0.4,1.8c0.4-0.3,0.8-0.4,1.3-0.4c1.4,0,2.2,0.9,2.2,2.2
				c0,1.4-1,2.3-2.4,2.3C939.8,580.7,938.9,579.8,938.9,578.5z"/>
			<path class="st2" d="M949,575.9c1.1,0,1.9,0.6,2.1,1.6h-0.9c-0.1-0.6-0.6-0.9-1.2-0.9c-0.8,0-1.4,0.6-1.4,1.6
				c0,1,0.5,1.6,1.3,1.6c0.6,0,1.1-0.3,1.2-0.9h0.9c-0.2,1-1,1.6-2.1,1.6c-1.3,0-2.2-0.9-2.2-2.4C946.7,576.9,947.6,575.9,949,575.9
				z"/>
			<path class="st2" d="M952,580.6v-4.5h0.8l0.1,0.6c0.2-0.4,0.7-0.7,1.3-0.7c0.7,0,1.2,0.3,1.4,0.9c0.2-0.6,0.8-0.9,1.5-0.9
				c1,0,1.7,0.6,1.7,1.7v2.9h-0.8v-2.7c0-0.7-0.4-1.1-1-1.1c-0.7,0-1.1,0.5-1.1,1.2v2.7h-0.9v-2.7c0-0.7-0.4-1.1-1-1.1
				c-0.7,0-1.1,0.5-1.1,1.2v2.7H952z"/>
		</g>
		<g>
			<path class="st2" d="M935.5,686.5v-0.8h2.3v6.7h-0.9v-5.8H935.5z"/>
			<path class="st2" d="M938.9,690.2h0.9c0,0.9,0.5,1.4,1.4,1.4c0.9,0,1.5-0.6,1.5-1.5c0-0.9-0.5-1.5-1.5-1.5
				c-0.6,0-1.1,0.3-1.4,0.6l-0.8-0.2l0.8-3.4h3.3v0.8h-2.7l-0.4,1.8c0.4-0.3,0.8-0.4,1.3-0.4c1.4,0,2.2,0.9,2.2,2.2
				c0,1.4-1,2.3-2.4,2.3C939.8,692.4,938.9,691.6,938.9,690.2z"/>
			<path class="st2" d="M949,687.7c1.1,0,1.9,0.6,2.1,1.6h-0.9c-0.1-0.6-0.6-0.9-1.2-0.9c-0.8,0-1.4,0.6-1.4,1.6
				c0,1,0.5,1.6,1.3,1.6c0.6,0,1.1-0.3,1.2-0.9h0.9c-0.2,1-1,1.6-2.1,1.6c-1.3,0-2.2-0.9-2.2-2.4C946.7,688.7,947.6,687.7,949,687.7
				z"/>
			<path class="st2" d="M952,692.3v-4.5h0.8l0.1,0.6c0.2-0.4,0.7-0.7,1.3-0.7c0.7,0,1.2,0.3,1.4,0.9c0.2-0.6,0.8-0.9,1.5-0.9
				c1,0,1.7,0.6,1.7,1.7v2.9h-0.8v-2.7c0-0.7-0.4-1.1-1-1.1c-0.7,0-1.1,0.5-1.1,1.2v2.7h-0.9v-2.7c0-0.7-0.4-1.1-1-1.1
				c-0.7,0-1.1,0.5-1.1,1.2v2.7H952z"/>
		</g>
		<g>
			<path class="st2" d="M935.5,618.2v-0.8h2.3v6.7h-0.9v-5.8H935.5z"/>
			<path class="st2" d="M938.9,622h0.9c0,0.9,0.5,1.4,1.4,1.4c0.9,0,1.5-0.6,1.5-1.5c0-0.9-0.5-1.5-1.5-1.5c-0.6,0-1.1,0.3-1.4,0.6
				l-0.8-0.2l0.8-3.4h3.3v0.8h-2.7L940,620c0.4-0.3,0.8-0.4,1.3-0.4c1.4,0,2.2,0.9,2.2,2.2c0,1.4-1,2.3-2.4,2.3
				C939.8,624.2,938.9,623.3,938.9,622z"/>
			<path class="st2" d="M949,619.5c1.1,0,1.9,0.6,2.1,1.6h-0.9c-0.1-0.6-0.6-0.9-1.2-0.9c-0.8,0-1.4,0.6-1.4,1.6
				c0,1,0.5,1.6,1.3,1.6c0.6,0,1.1-0.3,1.2-0.9h0.9c-0.2,1-1,1.6-2.1,1.6c-1.3,0-2.2-0.9-2.2-2.4C946.7,620.4,947.6,619.5,949,619.5
				z"/>
			<path class="st2" d="M952,624.1v-4.5h0.8l0.1,0.6c0.2-0.4,0.7-0.7,1.3-0.7c0.7,0,1.2,0.3,1.4,0.9c0.2-0.6,0.8-0.9,1.5-0.9
				c1,0,1.7,0.6,1.7,1.7v2.9h-0.8v-2.7c0-0.7-0.4-1.1-1-1.1c-0.7,0-1.1,0.5-1.1,1.2v2.7h-0.9v-2.7c0-0.7-0.4-1.1-1-1.1
				c-0.7,0-1.1,0.5-1.1,1.2v2.7H952z"/>
		</g>
		<g>
			<path class="st2" d="M1097.3,665.1h1.3v0.9h-1.3v3.4h-0.8l-4.5-3.1v-1.2h4.5v-0.8h0.8V665.1z M1096.5,666h-3.6l3.6,2.5V666z"/>
			<path class="st2" d="M1099.6,663.3h-0.4c-0.1-0.4-0.3-0.6-0.6-0.6c0,0.1,0.1,0.1,0.1,0.2c0,0.3-0.2,0.6-0.6,0.6
				c-0.4,0-0.6-0.2-0.6-0.6c0-0.4,0.3-0.7,0.8-0.7C1098.9,662.1,1099.5,662.6,1099.6,663.3z"/>
			<path class="st2" d="M1096.5,661.3v-0.9c0.9,0,1.4-0.5,1.4-1.4c0-0.9-0.6-1.5-1.5-1.5c-0.9,0-1.5,0.5-1.5,1.5
				c0,0.6,0.3,1.1,0.6,1.4l-0.2,0.8l-3.4-0.8V657h0.8v2.7l1.8,0.4c-0.3-0.3-0.4-0.8-0.4-1.3c0-1.4,0.9-2.2,2.2-2.2
				c1.4,0,2.3,1,2.3,2.4C1098.7,660.4,1097.9,661.3,1096.5,661.3z"/>
			<path class="st2" d="M1094,651.2c0-1.1,0.6-1.9,1.6-2.1v0.9c-0.6,0.1-0.9,0.6-0.9,1.2c0,0.8,0.6,1.4,1.6,1.4c1,0,1.6-0.5,1.6-1.3
				c0-0.6-0.3-1.1-0.9-1.2v-0.9c1,0.2,1.6,1,1.6,2.1c0,1.3-0.9,2.2-2.4,2.2C1095,653.4,1094,652.5,1094,651.2z"/>
			<path class="st2" d="M1098.6,648.2h-4.5v-0.8l0.6-0.1c-0.4-0.2-0.7-0.7-0.7-1.3c0-0.7,0.3-1.2,0.9-1.4c-0.6-0.2-0.9-0.8-0.9-1.5
				c0-1,0.6-1.7,1.7-1.7h2.9v0.8h-2.7c-0.7,0-1.1,0.4-1.1,1c0,0.7,0.5,1.1,1.2,1.1h2.7v0.9h-2.7c-0.7,0-1.1,0.4-1.1,1
				c0,0.7,0.5,1.1,1.2,1.1h2.7V648.2z"/>
		</g>
		<g>
			<path class="st2" d="M413.1,618.2v-0.8h2.3v6.7h-0.9v-5.8H413.1z"/>
			<path class="st2" d="M416.6,622h0.9c0,0.9,0.5,1.4,1.4,1.4c0.9,0,1.5-0.6,1.5-1.5c0-0.9-0.5-1.5-1.5-1.5c-0.6,0-1.1,0.3-1.4,0.6
				l-0.8-0.2l0.8-3.4h3.3v0.8h-2.7l-0.4,1.8c0.3-0.3,0.8-0.4,1.3-0.4c1.4,0,2.2,0.9,2.2,2.2c0,1.4-1,2.3-2.4,2.3
				C417.5,624.2,416.6,623.3,416.6,622z"/>
			<path class="st2" d="M426.6,619.5c1.1,0,1.9,0.6,2.1,1.6h-0.9c-0.1-0.6-0.6-0.9-1.2-0.9c-0.8,0-1.4,0.6-1.4,1.6
				c0,1,0.5,1.6,1.3,1.6c0.6,0,1.1-0.3,1.2-0.9h0.9c-0.2,1-1,1.6-2.1,1.6c-1.3,0-2.2-0.9-2.2-2.4
				C424.4,620.4,425.3,619.5,426.6,619.5z"/>
			<path class="st2" d="M429.6,624.1v-4.5h0.8l0.1,0.6c0.2-0.4,0.7-0.7,1.3-0.7c0.7,0,1.2,0.3,1.4,0.9c0.2-0.6,0.8-0.9,1.5-0.9
				c1,0,1.7,0.6,1.7,1.7v2.9h-0.8v-2.7c0-0.7-0.4-1.1-1-1.1c-0.7,0-1.1,0.5-1.1,1.2v2.7h-0.9v-2.7c0-0.7-0.4-1.1-1-1.1
				c-0.7,0-1.1,0.5-1.1,1.2v2.7H429.6z"/>
		</g>
		<g>
			<path class="st2" d="M413.2,694.4v-0.8h2.3v6.7h-0.9v-5.8H413.2z"/>
			<path class="st2" d="M416.6,698.2h0.9c0,0.9,0.5,1.4,1.4,1.4c0.9,0,1.5-0.6,1.5-1.5c0-0.9-0.5-1.5-1.5-1.5
				c-0.6,0-1.1,0.3-1.4,0.6l-0.8-0.2l0.8-3.4h3.3v0.8h-2.7l-0.4,1.8c0.4-0.3,0.8-0.4,1.3-0.4c1.4,0,2.2,0.9,2.2,2.2
				c0,1.4-1,2.3-2.4,2.3C417.5,700.4,416.6,699.5,416.6,698.2z"/>
			<path class="st2" d="M426.7,695.6c1.1,0,1.9,0.6,2.1,1.6h-0.9c-0.1-0.6-0.6-0.9-1.2-0.9c-0.8,0-1.4,0.6-1.4,1.6
				c0,1,0.5,1.6,1.3,1.6c0.6,0,1.1-0.3,1.2-0.9h0.9c-0.2,1-1,1.6-2.1,1.6c-1.3,0-2.2-0.9-2.2-2.4
				C424.5,696.6,425.4,695.6,426.7,695.6z"/>
			<path class="st2" d="M429.7,700.3v-4.5h0.8l0.1,0.6c0.2-0.4,0.7-0.7,1.3-0.7c0.7,0,1.2,0.3,1.4,0.9c0.2-0.6,0.8-0.9,1.5-0.9
				c1,0,1.7,0.6,1.7,1.7v2.9h-0.8v-2.7c0-0.7-0.4-1.1-1-1.1c-0.7,0-1.1,0.5-1.1,1.2v2.7h-0.9v-2.7c0-0.7-0.4-1.1-1-1.1
				c-0.7,0-1.1,0.5-1.1,1.2v2.7H429.7z"/>
		</g>
		<g>
			<path class="st2" d="M370.6,735.9H370l-1.9-2.1c-0.9-1.1-1.4-1.4-2.1-1.4c-0.8,0-1.3,0.5-1.3,1.3c0,0.8,0.6,1.4,1.5,1.4v0.9
				c-1.4,0-2.4-0.9-2.4-2.3c0-1.3,0.8-2.2,2.1-2.2c0.9,0,1.6,0.5,2.6,1.6l1.2,1.4v-3.1h0.8L370.6,735.9z"/>
			<path class="st2" d="M366,726c0-1.1,0.6-1.9,1.6-2.1v0.9c-0.6,0.1-0.9,0.6-0.9,1.2c0,0.8,0.6,1.4,1.6,1.4c1,0,1.6-0.5,1.6-1.3
				c0-0.6-0.3-1.1-0.9-1.2v-0.9c1,0.2,1.6,1,1.6,2.1c0,1.3-0.9,2.2-2.4,2.2C367,728.2,366,727.3,366,726z"/>
			<path class="st2" d="M370.6,723h-4.5v-0.8l0.6-0.1c-0.4-0.2-0.7-0.7-0.7-1.3c0-0.7,0.3-1.2,0.9-1.4c-0.6-0.2-0.9-0.8-0.9-1.5
				c0-1,0.6-1.7,1.7-1.7h2.9v0.8h-2.7c-0.7,0-1.1,0.4-1.1,1c0,0.7,0.5,1.1,1.2,1.1h2.7v0.9h-2.7c-0.7,0-1.1,0.4-1.1,1
				c0,0.7,0.5,1.1,1.2,1.1h2.7V723z"/>
		</g>
		<g>
			<path class="st2" d="M484.9,735.9h-0.7l-1.9-2.1c-0.9-1.1-1.4-1.4-2.1-1.4c-0.8,0-1.3,0.5-1.3,1.3c0,0.8,0.6,1.4,1.5,1.4v0.9
				c-1.4,0-2.4-0.9-2.4-2.3c0-1.3,0.8-2.2,2.1-2.2c0.9,0,1.6,0.5,2.6,1.6l1.2,1.4v-3.1h0.8L484.9,735.9z"/>
			<path class="st2" d="M480.3,726c0-1.1,0.6-1.9,1.6-2.1v0.9c-0.6,0.1-0.9,0.6-0.9,1.2c0,0.8,0.6,1.4,1.6,1.4c1,0,1.6-0.5,1.6-1.3
				c0-0.6-0.3-1.1-0.9-1.2v-0.9c1,0.2,1.6,1,1.6,2.1c0,1.3-0.9,2.2-2.4,2.2C481.2,728.2,480.3,727.3,480.3,726z"/>
			<path class="st2" d="M484.9,723h-4.5v-0.8l0.6-0.1c-0.4-0.2-0.7-0.7-0.7-1.3c0-0.7,0.3-1.2,0.9-1.4c-0.6-0.2-0.9-0.8-0.9-1.5
				c0-1,0.6-1.7,1.7-1.7h2.9v0.8h-2.7c-0.7,0-1.1,0.4-1.1,1c0,0.7,0.5,1.1,1.2,1.1h2.7v0.9h-2.7c-0.7,0-1.1,0.4-1.1,1
				c0,0.7,0.5,1.1,1.2,1.1h2.7V723z"/>
		</g>
		<g>
			<path class="st2" d="M678.3,692.3h-1l1.7-2.2c-0.2,0.1-0.5,0.1-0.7,0.1c-1.4,0-2.3-1-2.3-2.3c0-1.4,1-2.4,2.4-2.4
				c1.4,0,2.4,1,2.4,2.4c0,0.8-0.2,1.3-0.9,2.3L678.3,692.3z M678.3,686.3c-0.9,0-1.5,0.7-1.5,1.6c0,0.9,0.6,1.6,1.5,1.6
				c0.9,0,1.5-0.6,1.5-1.6C679.9,687,679.2,686.3,678.3,686.3z"/>
			<path class="st2" d="M686.2,687.7c1.1,0,1.9,0.6,2.1,1.6h-0.9c-0.1-0.6-0.6-0.9-1.2-0.9c-0.8,0-1.4,0.6-1.4,1.6
				c0,1,0.5,1.6,1.3,1.6c0.6,0,1.1-0.3,1.2-0.9h0.9c-0.2,1-1,1.6-2.1,1.6c-1.3,0-2.2-0.9-2.2-2.4C684,688.7,684.9,687.7,686.2,687.7
				z"/>
			<path class="st2" d="M689.2,692.3v-4.5h0.8l0.1,0.6c0.2-0.4,0.7-0.7,1.3-0.7c0.7,0,1.2,0.3,1.4,0.9c0.2-0.6,0.8-0.9,1.5-0.9
				c1,0,1.7,0.6,1.7,1.7v2.9h-0.8v-2.7c0-0.7-0.4-1.1-1-1.1c-0.7,0-1.1,0.5-1.1,1.2v2.7h-0.9v-2.7c0-0.7-0.4-1.1-1-1.1
				c-0.7,0-1.1,0.5-1.1,1.2v2.7H689.2z"/>
		</g>
		<g>
			<path class="st2" d="M678.3,624.1h-1l1.7-2.2c-0.2,0.1-0.5,0.1-0.7,0.1c-1.4,0-2.3-1-2.3-2.3c0-1.4,1-2.4,2.4-2.4
				c1.4,0,2.4,1,2.4,2.4c0,0.8-0.2,1.3-0.9,2.3L678.3,624.1z M678.3,618.1c-0.9,0-1.5,0.7-1.5,1.6s0.6,1.6,1.5,1.6
				c0.9,0,1.5-0.6,1.5-1.6S679.2,618.1,678.3,618.1z"/>
			<path class="st2" d="M686.2,619.5c1.1,0,1.9,0.6,2.1,1.6h-0.9c-0.1-0.6-0.6-0.9-1.2-0.9c-0.8,0-1.4,0.6-1.4,1.6
				c0,1,0.5,1.6,1.3,1.6c0.6,0,1.1-0.3,1.2-0.9h0.9c-0.2,1-1,1.6-2.1,1.6c-1.3,0-2.2-0.9-2.2-2.4C684,620.4,684.9,619.5,686.2,619.5
				z"/>
			<path class="st2" d="M689.2,624.1v-4.5h0.8l0.1,0.6c0.2-0.4,0.7-0.7,1.3-0.7c0.7,0,1.2,0.3,1.4,0.9c0.2-0.6,0.8-0.9,1.5-0.9
				c1,0,1.7,0.6,1.7,1.7v2.9h-0.8v-2.7c0-0.7-0.4-1.1-1-1.1c-0.7,0-1.1,0.5-1.1,1.2v2.7h-0.9v-2.7c0-0.7-0.4-1.1-1-1.1
				c-0.7,0-1.1,0.5-1.1,1.2v2.7H689.2z"/>
		</g>
		<g>
			<path class="st2" d="M82.2,665.1h1.3v0.9h-1.3v3.4h-0.8l-4.5-3.1v-1.2h4.5v-0.8h0.8V665.1z M81.4,666h-3.6l3.6,2.5V666z"/>
			<path class="st2" d="M84.5,663.3h-0.4c-0.1-0.4-0.3-0.6-0.6-0.6c0,0.1,0.1,0.1,0.1,0.2c0,0.3-0.2,0.6-0.6,0.6
				c-0.4,0-0.6-0.2-0.6-0.6c0-0.4,0.3-0.7,0.8-0.7C83.8,662.1,84.4,662.6,84.5,663.3z"/>
			<path class="st2" d="M81.5,661.3v-0.9c0.9,0,1.4-0.5,1.4-1.4c0-0.9-0.6-1.5-1.5-1.5c-0.9,0-1.5,0.5-1.5,1.5
				c0,0.6,0.3,1.1,0.6,1.4l-0.2,0.8l-3.4-0.8V657h0.8v2.7l1.8,0.4c-0.3-0.3-0.4-0.8-0.4-1.3c0-1.4,0.9-2.2,2.2-2.2
				c1.4,0,2.3,1,2.3,2.4C83.6,660.4,82.8,661.3,81.5,661.3z"/>
			<path class="st2" d="M78.9,651.2c0-1.1,0.6-1.9,1.6-2.1v0.9c-0.6,0.1-0.9,0.6-0.9,1.2c0,0.8,0.6,1.4,1.6,1.4c1,0,1.6-0.5,1.6-1.3
				c0-0.6-0.3-1.1-0.9-1.2v-0.9c1,0.2,1.6,1,1.6,2.1c0,1.3-0.9,2.2-2.4,2.2C79.9,653.4,78.9,652.5,78.9,651.2z"/>
			<path class="st2" d="M83.5,648.2H79v-0.8l0.6-0.1c-0.4-0.2-0.7-0.7-0.7-1.3c0-0.7,0.3-1.2,0.9-1.4c-0.6-0.2-0.9-0.8-0.9-1.5
				c0-1,0.6-1.7,1.7-1.7h2.9v0.8h-2.7c-0.7,0-1.1,0.4-1.1,1c0,0.7,0.5,1.1,1.2,1.1h2.7v0.9h-2.7c-0.7,0-1.1,0.4-1.1,1
				c0,0.7,0.5,1.1,1.2,1.1h2.7V648.2z"/>
		</g>
		<g>
			<path class="st2" d="M156,692.3h-1l1.7-2.2c-0.2,0.1-0.5,0.1-0.7,0.1c-1.4,0-2.3-1-2.3-2.3c0-1.4,1-2.4,2.4-2.4
				c1.4,0,2.4,1,2.4,2.4c0,0.8-0.2,1.3-0.9,2.3L156,692.3z M156,686.3c-0.9,0-1.5,0.7-1.5,1.6c0,0.9,0.6,1.6,1.5,1.6
				c0.9,0,1.5-0.6,1.5-1.6C157.5,687,156.9,686.3,156,686.3z"/>
			<path class="st2" d="M163.9,687.7c1.1,0,1.9,0.6,2.1,1.6h-0.9c-0.1-0.6-0.6-0.9-1.2-0.9c-0.8,0-1.4,0.6-1.4,1.6
				c0,1,0.5,1.6,1.3,1.6c0.6,0,1.1-0.3,1.2-0.9h0.9c-0.2,1-1,1.6-2.1,1.6c-1.3,0-2.2-0.9-2.2-2.4
				C161.7,688.7,162.6,687.7,163.9,687.7z"/>
			<path class="st2" d="M166.9,692.3v-4.5h0.8l0.1,0.6c0.2-0.4,0.7-0.7,1.3-0.7c0.7,0,1.2,0.3,1.4,0.9c0.2-0.6,0.8-0.9,1.5-0.9
				c1,0,1.7,0.6,1.7,1.7v2.9h-0.8v-2.7c0-0.7-0.4-1.1-1-1.1c-0.7,0-1.1,0.5-1.1,1.2v2.7h-0.9v-2.7c0-0.7-0.4-1.1-1-1.1
				c-0.7,0-1.1,0.5-1.1,1.2v2.7H166.9z"/>
		</g>
		<g>
			<path class="st2" d="M413.6,574.7v-0.8h2.3v6.7H415v-5.8H413.6z"/>
			<path class="st2" d="M417,578.5h0.9c0,0.9,0.5,1.4,1.4,1.4c0.9,0,1.5-0.6,1.5-1.5c0-0.9-0.5-1.5-1.5-1.5c-0.6,0-1.1,0.3-1.4,0.6
				l-0.8-0.2l0.8-3.4h3.3v0.8h-2.7l-0.4,1.8c0.4-0.3,0.8-0.4,1.3-0.4c1.4,0,2.2,0.9,2.2,2.2c0,1.4-1,2.3-2.4,2.3
				C417.9,580.7,417,579.8,417,578.5z"/>
			<path class="st2" d="M427.1,575.9c1.1,0,1.9,0.6,2.1,1.6h-0.9c-0.1-0.6-0.6-0.9-1.2-0.9c-0.8,0-1.4,0.6-1.4,1.6
				c0,1,0.5,1.6,1.3,1.6c0.6,0,1.1-0.3,1.2-0.9h0.9c-0.2,1-1,1.6-2.1,1.6c-1.3,0-2.2-0.9-2.2-2.4
				C424.9,576.9,425.8,575.9,427.1,575.9z"/>
			<path class="st2" d="M430.1,580.6v-4.5h0.8l0.1,0.6c0.2-0.4,0.7-0.7,1.3-0.7c0.7,0,1.2,0.3,1.4,0.9c0.2-0.6,0.8-0.9,1.5-0.9
				c1,0,1.7,0.6,1.7,1.7v2.9H436v-2.7c0-0.7-0.4-1.1-1-1.1c-0.7,0-1.1,0.5-1.1,1.2v2.7H433v-2.7c0-0.7-0.4-1.1-1-1.1
				c-0.7,0-1.1,0.5-1.1,1.2v2.7H430.1z"/>
		</g>
		<g>
			<path class="st2" d="M678.3,580.6h-1l1.7-2.2c-0.2,0.1-0.5,0.1-0.7,0.1c-1.4,0-2.3-1-2.3-2.3c0-1.4,1-2.4,2.4-2.4
				c1.4,0,2.4,1,2.4,2.4c0,0.8-0.2,1.3-0.9,2.3L678.3,580.6z M678.3,574.6c-0.9,0-1.5,0.7-1.5,1.6c0,0.9,0.6,1.6,1.5,1.6
				c0.9,0,1.5-0.6,1.5-1.6C679.9,575.3,679.2,574.6,678.3,574.6z"/>
			<path class="st2" d="M686.2,575.9c1.1,0,1.9,0.6,2.1,1.6h-0.9c-0.1-0.6-0.6-0.9-1.2-0.9c-0.8,0-1.4,0.6-1.4,1.6
				c0,1,0.5,1.6,1.3,1.6c0.6,0,1.1-0.3,1.2-0.9h0.9c-0.2,1-1,1.6-2.1,1.6c-1.3,0-2.2-0.9-2.2-2.4C684,576.9,684.9,575.9,686.2,575.9
				z"/>
			<path class="st2" d="M689.2,580.6v-4.5h0.8l0.1,0.6c0.2-0.4,0.7-0.7,1.3-0.7c0.7,0,1.2,0.3,1.4,0.9c0.2-0.6,0.8-0.9,1.5-0.9
				c1,0,1.7,0.6,1.7,1.7v2.9h-0.8v-2.7c0-0.7-0.4-1.1-1-1.1c-0.7,0-1.1,0.5-1.1,1.2v2.7h-0.9v-2.7c0-0.7-0.4-1.1-1-1.1
				c-0.7,0-1.1,0.5-1.1,1.2v2.7H689.2z"/>
		</g>
		<g>
			<path class="st2" d="M619.1,588.5v-0.8h2.3v6.7h-0.9v-5.8H619.1z"/>
			<path class="st2" d="M622.9,595.3v-0.4c0.4-0.1,0.6-0.3,0.6-0.6c-0.1,0-0.1,0.1-0.2,0.1c-0.3,0-0.6-0.2-0.6-0.6
				c0-0.4,0.2-0.6,0.6-0.6c0.4,0,0.7,0.3,0.7,0.8C624.1,594.7,623.6,595.2,622.9,595.3z"/>
			<path class="st2" d="M624.9,592.3h0.9c0,0.9,0.5,1.4,1.4,1.4c0.9,0,1.5-0.6,1.5-1.5c0-0.9-0.5-1.5-1.5-1.5
				c-0.6,0-1.1,0.3-1.4,0.6l-0.8-0.2l0.8-3.4h3.3v0.8h-2.7l-0.4,1.8c0.4-0.3,0.8-0.4,1.3-0.4c1.4,0,2.2,0.9,2.2,2.2
				c0,1.4-1,2.3-2.4,2.3C625.8,594.5,624.9,593.6,624.9,592.3z"/>
			<path class="st2" d="M635,589.7c1.1,0,1.9,0.6,2.1,1.6h-0.9c-0.1-0.6-0.6-0.9-1.2-0.9c-0.8,0-1.4,0.6-1.4,1.6
				c0,1,0.5,1.6,1.3,1.6c0.6,0,1.1-0.3,1.2-0.9h0.9c-0.2,1-1,1.6-2.1,1.6c-1.3,0-2.2-0.9-2.2-2.4C632.8,590.7,633.7,589.7,635,589.7
				z"/>
			<path class="st2" d="M638,594.4v-4.5h0.8l0.1,0.6c0.2-0.4,0.7-0.7,1.3-0.7c0.7,0,1.2,0.3,1.4,0.9c0.2-0.6,0.8-0.9,1.5-0.9
				c1,0,1.7,0.6,1.7,1.7v2.9h-0.8v-2.7c0-0.7-0.4-1.1-1-1.1c-0.7,0-1.1,0.5-1.1,1.2v2.7h-0.9v-2.7c0-0.7-0.4-1.1-1-1.1
				c-0.7,0-1.1,0.5-1.1,1.2v2.7H638z"/>
		</g>
		<g>
			<path class="st2" d="M619.1,204.7v-0.8h2.3v6.7h-0.9v-5.8H619.1z"/>
			<path class="st2" d="M622.9,211.5v-0.4c0.4-0.1,0.6-0.3,0.6-0.6c-0.1,0-0.1,0.1-0.2,0.1c-0.3,0-0.6-0.2-0.6-0.6
				c0-0.4,0.2-0.6,0.6-0.6c0.4,0,0.7,0.3,0.7,0.8C624.1,210.9,623.6,211.4,622.9,211.5z"/>
			<path class="st2" d="M624.9,208.5h0.9c0,0.9,0.5,1.4,1.4,1.4c0.9,0,1.5-0.6,1.5-1.5c0-0.9-0.5-1.5-1.5-1.5
				c-0.6,0-1.1,0.3-1.4,0.6l-0.8-0.2l0.8-3.4h3.3v0.8h-2.7l-0.4,1.8c0.4-0.3,0.8-0.4,1.3-0.4c1.4,0,2.2,0.9,2.2,2.2
				c0,1.4-1,2.3-2.4,2.3C625.8,210.7,624.9,209.8,624.9,208.5z"/>
			<path class="st2" d="M635,205.9c1.1,0,1.9,0.6,2.1,1.6h-0.9c-0.1-0.6-0.6-0.9-1.2-0.9c-0.8,0-1.4,0.6-1.4,1.6
				c0,1,0.5,1.6,1.3,1.6c0.6,0,1.1-0.3,1.2-0.9h0.9c-0.2,1-1,1.6-2.1,1.6c-1.3,0-2.2-0.9-2.2-2.4C632.8,206.9,633.7,205.9,635,205.9
				z"/>
			<path class="st2" d="M638,210.6v-4.5h0.8l0.1,0.6c0.2-0.4,0.7-0.7,1.3-0.7c0.7,0,1.2,0.3,1.4,0.9c0.2-0.6,0.8-0.9,1.5-0.9
				c1,0,1.7,0.6,1.7,1.7v2.9h-0.8v-2.7c0-0.7-0.4-1.1-1-1.1c-0.7,0-1.1,0.5-1.1,1.2v2.7h-0.9v-2.7c0-0.7-0.4-1.1-1-1.1
				c-0.7,0-1.1,0.5-1.1,1.2v2.7H638z"/>
		</g>
		<g>
			<path class="st2" d="M156,580.6h-1l1.7-2.2c-0.2,0.1-0.5,0.1-0.7,0.1c-1.4,0-2.3-1-2.3-2.3c0-1.4,1-2.4,2.4-2.4
				c1.4,0,2.4,1,2.4,2.4c0,0.8-0.2,1.3-0.9,2.3L156,580.6z M156,574.6c-0.9,0-1.5,0.7-1.5,1.6c0,0.9,0.6,1.6,1.5,1.6
				c0.9,0,1.5-0.6,1.5-1.6C157.5,575.3,156.9,574.6,156,574.6z"/>
			<path class="st2" d="M163.9,575.9c1.1,0,1.9,0.6,2.1,1.6h-0.9c-0.1-0.6-0.6-0.9-1.2-0.9c-0.8,0-1.4,0.6-1.4,1.6
				c0,1,0.5,1.6,1.3,1.6c0.6,0,1.1-0.3,1.2-0.9h0.9c-0.2,1-1,1.6-2.1,1.6c-1.3,0-2.2-0.9-2.2-2.4
				C161.7,576.9,162.6,575.9,163.9,575.9z"/>
			<path class="st2" d="M166.9,580.6v-4.5h0.8l0.1,0.6c0.2-0.4,0.7-0.7,1.3-0.7c0.7,0,1.2,0.3,1.4,0.9c0.2-0.6,0.8-0.9,1.5-0.9
				c1,0,1.7,0.6,1.7,1.7v2.9h-0.8v-2.7c0-0.7-0.4-1.1-1-1.1c-0.7,0-1.1,0.5-1.1,1.2v2.7h-0.9v-2.7c0-0.7-0.4-1.1-1-1.1
				c-0.7,0-1.1,0.5-1.1,1.2v2.7H166.9z"/>
		</g>
		<g>
			<path class="st2" d="M413.6,218.6v-0.8h2.3v6.7H415v-5.8H413.6z"/>
			<path class="st2" d="M417,222.3h0.9c0,0.9,0.5,1.4,1.4,1.4c0.9,0,1.5-0.6,1.5-1.5c0-0.9-0.5-1.5-1.5-1.5c-0.6,0-1.1,0.3-1.4,0.6
				l-0.8-0.2l0.8-3.4h3.3v0.8h-2.7l-0.4,1.8c0.4-0.3,0.8-0.4,1.3-0.4c1.4,0,2.2,0.9,2.2,2.2c0,1.4-1,2.3-2.4,2.3
				C417.9,224.5,417,223.6,417,222.3z"/>
			<path class="st2" d="M427.1,219.8c1.1,0,1.9,0.6,2.1,1.6h-0.9c-0.1-0.6-0.6-0.9-1.2-0.9c-0.8,0-1.4,0.6-1.4,1.6
				c0,1,0.5,1.6,1.3,1.6c0.6,0,1.1-0.3,1.2-0.9h0.9c-0.2,1-1,1.6-2.1,1.6c-1.3,0-2.2-0.9-2.2-2.4
				C424.9,220.7,425.8,219.8,427.1,219.8z"/>
			<path class="st2" d="M430.1,224.4v-4.5h0.8l0.1,0.6c0.2-0.4,0.7-0.7,1.3-0.7c0.7,0,1.2,0.3,1.4,0.9c0.2-0.6,0.8-0.9,1.5-0.9
				c1,0,1.7,0.6,1.7,1.7v2.9H436v-2.7c0-0.7-0.4-1.1-1-1.1c-0.7,0-1.1,0.5-1.1,1.2v2.7H433v-2.7c0-0.7-0.4-1.1-1-1.1
				c-0.7,0-1.1,0.5-1.1,1.2v2.7H430.1z"/>
		</g>
		<g>
			<path class="st2" d="M678.3,224.4h-1l1.7-2.2c-0.2,0.1-0.5,0.1-0.7,0.1c-1.4,0-2.3-1-2.3-2.3c0-1.4,1-2.4,2.4-2.4
				c1.4,0,2.4,1,2.4,2.4c0,0.8-0.2,1.3-0.9,2.3L678.3,224.4z M678.3,218.4c-0.9,0-1.5,0.7-1.5,1.6c0,0.9,0.6,1.6,1.5,1.6
				c0.9,0,1.5-0.6,1.5-1.6C679.9,219.1,679.2,218.4,678.3,218.4z"/>
			<path class="st2" d="M686.2,219.8c1.1,0,1.9,0.6,2.1,1.6h-0.9c-0.1-0.6-0.6-0.9-1.2-0.9c-0.8,0-1.4,0.6-1.4,1.6
				c0,1,0.5,1.6,1.3,1.6c0.6,0,1.1-0.3,1.2-0.9h0.9c-0.2,1-1,1.6-2.1,1.6c-1.3,0-2.2-0.9-2.2-2.4C684,220.7,684.9,219.8,686.2,219.8
				z"/>
			<path class="st2" d="M689.2,224.4v-4.5h0.8l0.1,0.6c0.2-0.4,0.7-0.7,1.3-0.7c0.7,0,1.2,0.3,1.4,0.9c0.2-0.6,0.8-0.9,1.5-0.9
				c1,0,1.7,0.6,1.7,1.7v2.9h-0.8v-2.7c0-0.7-0.4-1.1-1-1.1c-0.7,0-1.1,0.5-1.1,1.2v2.7h-0.9v-2.7c0-0.7-0.4-1.1-1-1.1
				c-0.7,0-1.1,0.5-1.1,1.2v2.7H689.2z"/>
		</g>
		<g>
			<path class="st2" d="M156,224.4h-1l1.7-2.2c-0.2,0.1-0.5,0.1-0.7,0.1c-1.4,0-2.3-1-2.3-2.3c0-1.4,1-2.4,2.4-2.4
				c1.4,0,2.4,1,2.4,2.4c0,0.8-0.2,1.3-0.9,2.3L156,224.4z M156,218.4c-0.9,0-1.5,0.7-1.5,1.6c0,0.9,0.6,1.6,1.5,1.6
				c0.9,0,1.5-0.6,1.5-1.6C157.5,219.1,156.9,218.4,156,218.4z"/>
			<path class="st2" d="M163.9,219.8c1.1,0,1.9,0.6,2.1,1.6h-0.9c-0.1-0.6-0.6-0.9-1.2-0.9c-0.8,0-1.4,0.6-1.4,1.6
				c0,1,0.5,1.6,1.3,1.6c0.6,0,1.1-0.3,1.2-0.9h0.9c-0.2,1-1,1.6-2.1,1.6c-1.3,0-2.2-0.9-2.2-2.4
				C161.7,220.7,162.6,219.8,163.9,219.8z"/>
			<path class="st2" d="M166.9,224.4v-4.5h0.8l0.1,0.6c0.2-0.4,0.7-0.7,1.3-0.7c0.7,0,1.2,0.3,1.4,0.9c0.2-0.6,0.8-0.9,1.5-0.9
				c1,0,1.7,0.6,1.7,1.7v2.9h-0.8v-2.7c0-0.7-0.4-1.1-1-1.1c-0.7,0-1.1,0.5-1.1,1.2v2.7h-0.9v-2.7c0-0.7-0.4-1.1-1-1.1
				c-0.7,0-1.1,0.5-1.1,1.2v2.7H166.9z"/>
		</g>
		<g>
			<path class="st2" d="M24.5,221v-0.6l1.9-1.8h-3v-0.8h4.1v0.7l-1.8,1.7c1.1,0.1,2,0.9,2,2.1c0,1.3-1,2.2-2.4,2.2
				c-1.3,0-2.2-0.8-2.2-2.2H24c0,0.9,0.5,1.4,1.4,1.4c0.9,0,1.4-0.6,1.4-1.4c0-0.8-0.6-1.3-1.6-1.3H24.5z"/>
			<path class="st2" d="M33.1,219.8c1.1,0,1.9,0.6,2.1,1.6h-0.9c-0.1-0.6-0.6-0.9-1.2-0.9c-0.8,0-1.4,0.6-1.4,1.6
				c0,1,0.5,1.6,1.3,1.6c0.6,0,1.1-0.3,1.2-0.9h0.9c-0.2,1-1,1.6-2.1,1.6c-1.3,0-2.2-0.9-2.2-2.4C30.9,220.7,31.8,219.8,33.1,219.8z
				"/>
			<path class="st2" d="M36.1,224.4v-4.5h0.8l0.1,0.6c0.2-0.4,0.7-0.7,1.3-0.7c0.7,0,1.2,0.3,1.4,0.9c0.2-0.6,0.8-0.9,1.5-0.9
				c1,0,1.7,0.6,1.7,1.7v2.9H42v-2.7c0-0.7-0.4-1.1-1-1.1c-0.7,0-1.1,0.5-1.1,1.2v2.7h-0.9v-2.7c0-0.7-0.4-1.1-1-1.1
				c-0.7,0-1.1,0.5-1.1,1.2v2.7H36.1z"/>
		</g>
		<g>
			<path class="st2" d="M24.5,577.1v-0.6l1.9-1.8h-3v-0.8h4.1v0.7l-1.8,1.7c1.1,0.1,2,0.9,2,2.1c0,1.3-1,2.2-2.4,2.2
				c-1.3,0-2.2-0.8-2.2-2.2H24c0,0.9,0.5,1.4,1.4,1.4c0.9,0,1.4-0.6,1.4-1.4c0-0.8-0.6-1.3-1.6-1.3H24.5z"/>
			<path class="st2" d="M33.1,575.9c1.1,0,1.9,0.6,2.1,1.6h-0.9c-0.1-0.6-0.6-0.9-1.2-0.9c-0.8,0-1.4,0.6-1.4,1.6
				c0,1,0.5,1.6,1.3,1.6c0.6,0,1.1-0.3,1.2-0.9h0.9c-0.2,1-1,1.6-2.1,1.6c-1.3,0-2.2-0.9-2.2-2.4C30.9,576.9,31.8,575.9,33.1,575.9z
				"/>
			<path class="st2" d="M36.1,580.6v-4.5h0.8l0.1,0.6c0.2-0.4,0.7-0.7,1.3-0.7c0.7,0,1.2,0.3,1.4,0.9c0.2-0.6,0.8-0.9,1.5-0.9
				c1,0,1.7,0.6,1.7,1.7v2.9H42v-2.7c0-0.7-0.4-1.1-1-1.1c-0.7,0-1.1,0.5-1.1,1.2v2.7h-0.9v-2.7c0-0.7-0.4-1.1-1-1.1
				c-0.7,0-1.1,0.5-1.1,1.2v2.7H36.1z"/>
		</g>
		<g>
			<path class="st2" d="M24.5,177.4v-0.6l1.9-1.8h-3v-0.8h4.1v0.7l-1.8,1.7c1.1,0.1,2,0.9,2,2.1c0,1.3-1,2.2-2.4,2.2
				c-1.3,0-2.2-0.8-2.2-2.2H24c0,0.9,0.5,1.4,1.4,1.4c0.9,0,1.4-0.6,1.4-1.4c0-0.8-0.6-1.3-1.6-1.3H24.5z"/>
			<path class="st2" d="M33.1,176.2c1.1,0,1.9,0.6,2.1,1.6h-0.9c-0.1-0.6-0.6-0.9-1.2-0.9c-0.8,0-1.4,0.6-1.4,1.6
				c0,1,0.5,1.6,1.3,1.6c0.6,0,1.1-0.3,1.2-0.9h0.9c-0.2,1-1,1.6-2.1,1.6c-1.3,0-2.2-0.9-2.2-2.4C30.9,177.2,31.8,176.2,33.1,176.2z
				"/>
			<path class="st2" d="M36.1,180.9v-4.5h0.8L37,177c0.2-0.4,0.7-0.7,1.3-0.7c0.7,0,1.2,0.3,1.4,0.9c0.2-0.6,0.8-0.9,1.5-0.9
				c1,0,1.7,0.6,1.7,1.7v2.9H42v-2.7c0-0.7-0.4-1.1-1-1.1c-0.7,0-1.1,0.5-1.1,1.2v2.7h-0.9v-2.7c0-0.7-0.4-1.1-1-1.1
				c-0.7,0-1.1,0.5-1.1,1.2v2.7H36.1z"/>
		</g>
		<g>
			<path class="st2" d="M24.5,58.3v-0.6l1.9-1.8h-3v-0.8h4.1v0.7l-1.8,1.7c1.1,0.1,2,0.9,2,2.1c0,1.3-1,2.2-2.4,2.2
				c-1.3,0-2.2-0.8-2.2-2.2H24c0,0.9,0.5,1.4,1.4,1.4c0.9,0,1.4-0.6,1.4-1.4c0-0.8-0.6-1.3-1.6-1.3H24.5z"/>
			<path class="st2" d="M33.1,57.1c1.1,0,1.9,0.6,2.1,1.6h-0.9c-0.1-0.6-0.6-0.9-1.2-0.9c-0.8,0-1.4,0.6-1.4,1.6
				c0,1,0.5,1.6,1.3,1.6c0.6,0,1.1-0.3,1.2-0.9h0.9c-0.2,1-1,1.6-2.1,1.6c-1.3,0-2.2-0.9-2.2-2.4C30.9,58.1,31.8,57.1,33.1,57.1z"/>
			<path class="st2" d="M36.1,61.8v-4.5h0.8l0.1,0.6c0.2-0.4,0.7-0.7,1.3-0.7c0.7,0,1.2,0.3,1.4,0.9c0.2-0.6,0.8-0.9,1.5-0.9
				c1,0,1.7,0.6,1.7,1.7v2.9H42V59c0-0.7-0.4-1.1-1-1.1c-0.7,0-1.1,0.5-1.1,1.2v2.7h-0.9V59c0-0.7-0.4-1.1-1-1.1
				c-0.7,0-1.1,0.5-1.1,1.2v2.7H36.1z"/>
		</g>
		<g>
			<path class="st2" d="M413.6,175v-0.8h2.3v6.7H415V175H413.6z"/>
			<path class="st2" d="M417,178.8h0.9c0,0.9,0.5,1.4,1.4,1.4c0.9,0,1.5-0.6,1.5-1.5c0-0.9-0.5-1.5-1.5-1.5c-0.6,0-1.1,0.3-1.4,0.6
				l-0.8-0.2l0.8-3.4h3.3v0.8h-2.7l-0.4,1.8c0.4-0.3,0.8-0.4,1.3-0.4c1.4,0,2.2,0.9,2.2,2.2c0,1.4-1,2.3-2.4,2.3
				C417.9,181,417,180.1,417,178.8z"/>
			<path class="st2" d="M427.1,176.2c1.1,0,1.9,0.6,2.1,1.6h-0.9c-0.1-0.6-0.6-0.9-1.2-0.9c-0.8,0-1.4,0.6-1.4,1.6
				c0,1,0.5,1.6,1.3,1.6c0.6,0,1.1-0.3,1.2-0.9h0.9c-0.2,1-1,1.6-2.1,1.6c-1.3,0-2.2-0.9-2.2-2.4
				C424.9,177.2,425.8,176.2,427.1,176.2z"/>
			<path class="st2" d="M430.1,180.9v-4.5h0.8l0.1,0.6c0.2-0.4,0.7-0.7,1.3-0.7c0.7,0,1.2,0.3,1.4,0.9c0.2-0.6,0.8-0.9,1.5-0.9
				c1,0,1.7,0.6,1.7,1.7v2.9H436v-2.7c0-0.7-0.4-1.1-1-1.1c-0.7,0-1.1,0.5-1.1,1.2v2.7H433v-2.7c0-0.7-0.4-1.1-1-1.1
				c-0.7,0-1.1,0.5-1.1,1.2v2.7H430.1z"/>
		</g>
		<g>
			<path class="st2" d="M678.3,180.9h-1l1.7-2.2c-0.2,0.1-0.5,0.1-0.7,0.1c-1.4,0-2.3-1-2.3-2.3c0-1.4,1-2.4,2.4-2.4
				c1.4,0,2.4,1,2.4,2.4c0,0.8-0.2,1.3-0.9,2.3L678.3,180.9z M678.3,174.9c-0.9,0-1.5,0.7-1.5,1.6c0,0.9,0.6,1.6,1.5,1.6
				c0.9,0,1.5-0.6,1.5-1.6C679.9,175.6,679.2,174.9,678.3,174.9z"/>
			<path class="st2" d="M686.2,176.2c1.1,0,1.9,0.6,2.1,1.6h-0.9c-0.1-0.6-0.6-0.9-1.2-0.9c-0.8,0-1.4,0.6-1.4,1.6
				c0,1,0.5,1.6,1.3,1.6c0.6,0,1.1-0.3,1.2-0.9h0.9c-0.2,1-1,1.6-2.1,1.6c-1.3,0-2.2-0.9-2.2-2.4C684,177.2,684.9,176.2,686.2,176.2
				z"/>
			<path class="st2" d="M689.2,180.9v-4.5h0.8l0.1,0.6c0.2-0.4,0.7-0.7,1.3-0.7c0.7,0,1.2,0.3,1.4,0.9c0.2-0.6,0.8-0.9,1.5-0.9
				c1,0,1.7,0.6,1.7,1.7v2.9h-0.8v-2.7c0-0.7-0.4-1.1-1-1.1c-0.7,0-1.1,0.5-1.1,1.2v2.7h-0.9v-2.7c0-0.7-0.4-1.1-1-1.1
				c-0.7,0-1.1,0.5-1.1,1.2v2.7H689.2z"/>
		</g>
		<g>
			<path class="st2" d="M156,180.9h-1l1.7-2.2c-0.2,0.1-0.5,0.1-0.7,0.1c-1.4,0-2.3-1-2.3-2.3c0-1.4,1-2.4,2.4-2.4
				c1.4,0,2.4,1,2.4,2.4c0,0.8-0.2,1.3-0.9,2.3L156,180.9z M156,174.9c-0.9,0-1.5,0.7-1.5,1.6c0,0.9,0.6,1.6,1.5,1.6
				c0.9,0,1.5-0.6,1.5-1.6C157.5,175.6,156.9,174.9,156,174.9z"/>
			<path class="st2" d="M163.9,176.2c1.1,0,1.9,0.6,2.1,1.6h-0.9c-0.1-0.6-0.6-0.9-1.2-0.9c-0.8,0-1.4,0.6-1.4,1.6
				c0,1,0.5,1.6,1.3,1.6c0.6,0,1.1-0.3,1.2-0.9h0.9c-0.2,1-1,1.6-2.1,1.6c-1.3,0-2.2-0.9-2.2-2.4
				C161.7,177.2,162.6,176.2,163.9,176.2z"/>
			<path class="st2" d="M166.9,180.9v-4.5h0.8l0.1,0.6c0.2-0.4,0.7-0.7,1.3-0.7c0.7,0,1.2,0.3,1.4,0.9c0.2-0.6,0.8-0.9,1.5-0.9
				c1,0,1.7,0.6,1.7,1.7v2.9h-0.8v-2.7c0-0.7-0.4-1.1-1-1.1c-0.7,0-1.1,0.5-1.1,1.2v2.7h-0.9v-2.7c0-0.7-0.4-1.1-1-1.1
				c-0.7,0-1.1,0.5-1.1,1.2v2.7H166.9z"/>
		</g>
		<g>
			<path class="st2" d="M413.6,55.9v-0.8h2.3v6.7H415v-5.8H413.6z"/>
			<path class="st2" d="M417,59.7h0.9c0,0.9,0.5,1.4,1.4,1.4c0.9,0,1.5-0.6,1.5-1.5c0-0.9-0.5-1.5-1.5-1.5c-0.6,0-1.1,0.3-1.4,0.6
				l-0.8-0.2l0.8-3.4h3.3v0.8h-2.7l-0.4,1.8c0.4-0.3,0.8-0.4,1.3-0.4c1.4,0,2.2,0.9,2.2,2.2c0,1.4-1,2.3-2.4,2.3
				C417.9,61.9,417,61,417,59.7z"/>
			<path class="st2" d="M427.1,57.1c1.1,0,1.9,0.6,2.1,1.6h-0.9c-0.1-0.6-0.6-0.9-1.2-0.9c-0.8,0-1.4,0.6-1.4,1.6
				c0,1,0.5,1.6,1.3,1.6c0.6,0,1.1-0.3,1.2-0.9h0.9c-0.2,1-1,1.6-2.1,1.6c-1.3,0-2.2-0.9-2.2-2.4C424.9,58.1,425.8,57.1,427.1,57.1z
				"/>
			<path class="st2" d="M430.1,61.8v-4.5h0.8l0.1,0.6c0.2-0.4,0.7-0.7,1.3-0.7c0.7,0,1.2,0.3,1.4,0.9c0.2-0.6,0.8-0.9,1.5-0.9
				c1,0,1.7,0.6,1.7,1.7v2.9H436V59c0-0.7-0.4-1.1-1-1.1c-0.7,0-1.1,0.5-1.1,1.2v2.7H433V59c0-0.7-0.4-1.1-1-1.1
				c-0.7,0-1.1,0.5-1.1,1.2v2.7H430.1z"/>
		</g>
		<g>
			<path class="st2" d="M678.3,61.8h-1l1.7-2.2c-0.2,0.1-0.5,0.1-0.7,0.1c-1.4,0-2.3-1-2.3-2.3c0-1.4,1-2.4,2.4-2.4
				c1.4,0,2.4,1,2.4,2.4c0,0.8-0.2,1.3-0.9,2.3L678.3,61.8z M678.3,55.8c-0.9,0-1.5,0.7-1.5,1.6c0,0.9,0.6,1.6,1.5,1.6
				c0.9,0,1.5-0.6,1.5-1.6C679.9,56.5,679.2,55.8,678.3,55.8z"/>
			<path class="st2" d="M686.2,57.1c1.1,0,1.9,0.6,2.1,1.6h-0.9c-0.1-0.6-0.6-0.9-1.2-0.9c-0.8,0-1.4,0.6-1.4,1.6
				c0,1,0.5,1.6,1.3,1.6c0.6,0,1.1-0.3,1.2-0.9h0.9c-0.2,1-1,1.6-2.1,1.6c-1.3,0-2.2-0.9-2.2-2.4C684,58.1,684.9,57.1,686.2,57.1z"
				/>
			<path class="st2" d="M689.2,61.8v-4.5h0.8l0.1,0.6c0.2-0.4,0.7-0.7,1.3-0.7c0.7,0,1.2,0.3,1.4,0.9c0.2-0.6,0.8-0.9,1.5-0.9
				c1,0,1.7,0.6,1.7,1.7v2.9h-0.8V59c0-0.7-0.4-1.1-1-1.1c-0.7,0-1.1,0.5-1.1,1.2v2.7h-0.9V59c0-0.7-0.4-1.1-1-1.1
				c-0.7,0-1.1,0.5-1.1,1.2v2.7H689.2z"/>
		</g>
		<g>
			<path class="st2" d="M156,61.8h-1l1.7-2.2c-0.2,0.1-0.5,0.1-0.7,0.1c-1.4,0-2.3-1-2.3-2.3c0-1.4,1-2.4,2.4-2.4
				c1.4,0,2.4,1,2.4,2.4c0,0.8-0.2,1.3-0.9,2.3L156,61.8z M156,55.8c-0.9,0-1.5,0.7-1.5,1.6c0,0.9,0.6,1.6,1.5,1.6
				c0.9,0,1.5-0.6,1.5-1.6C157.5,56.5,156.9,55.8,156,55.8z"/>
			<path class="st2" d="M163.9,57.1c1.1,0,1.9,0.6,2.1,1.6h-0.9c-0.1-0.6-0.6-0.9-1.2-0.9c-0.8,0-1.4,0.6-1.4,1.6
				c0,1,0.5,1.6,1.3,1.6c0.6,0,1.1-0.3,1.2-0.9h0.9c-0.2,1-1,1.6-2.1,1.6c-1.3,0-2.2-0.9-2.2-2.4C161.7,58.1,162.6,57.1,163.9,57.1z
				"/>
			<path class="st2" d="M166.9,61.8v-4.5h0.8l0.1,0.6c0.2-0.4,0.7-0.7,1.3-0.7c0.7,0,1.2,0.3,1.4,0.9c0.2-0.6,0.8-0.9,1.5-0.9
				c1,0,1.7,0.6,1.7,1.7v2.9h-0.8V59c0-0.7-0.4-1.1-1-1.1c-0.7,0-1.1,0.5-1.1,1.2v2.7h-0.9V59c0-0.7-0.4-1.1-1-1.1
				c-0.7,0-1.1,0.5-1.1,1.2v2.7H166.9z"/>
		</g>
		<g>
			<path class="st2" d="M156,624.1h-1l1.7-2.2c-0.2,0.1-0.5,0.1-0.7,0.1c-1.4,0-2.3-1-2.3-2.3c0-1.4,1-2.4,2.4-2.4
				c1.4,0,2.4,1,2.4,2.4c0,0.8-0.2,1.3-0.9,2.3L156,624.1z M156,618.1c-0.9,0-1.5,0.7-1.5,1.6s0.6,1.6,1.5,1.6
				c0.9,0,1.5-0.6,1.5-1.6S156.9,618.1,156,618.1z"/>
			<path class="st2" d="M163.9,619.5c1.1,0,1.9,0.6,2.1,1.6h-0.9c-0.1-0.6-0.6-0.9-1.2-0.9c-0.8,0-1.4,0.6-1.4,1.6
				c0,1,0.5,1.6,1.3,1.6c0.6,0,1.1-0.3,1.2-0.9h0.9c-0.2,1-1,1.6-2.1,1.6c-1.3,0-2.2-0.9-2.2-2.4
				C161.7,620.4,162.6,619.5,163.9,619.5z"/>
			<path class="st2" d="M166.9,624.1v-4.5h0.8l0.1,0.6c0.2-0.4,0.7-0.7,1.3-0.7c0.7,0,1.2,0.3,1.4,0.9c0.2-0.6,0.8-0.9,1.5-0.9
				c1,0,1.7,0.6,1.7,1.7v2.9h-0.8v-2.7c0-0.7-0.4-1.1-1-1.1c-0.7,0-1.1,0.5-1.1,1.2v2.7h-0.9v-2.7c0-0.7-0.4-1.1-1-1.1
				c-0.7,0-1.1,0.5-1.1,1.2v2.7H166.9z"/>
		</g>
		<g>
			<path class="st2" d="M1091.8,130.1v-1l2.2,1.7c-0.1-0.2-0.1-0.5-0.1-0.7c0-1.4,1-2.3,2.3-2.3c1.4,0,2.4,1,2.4,2.4
				c0,1.4-1,2.4-2.4,2.4c-0.8,0-1.3-0.2-2.3-0.9L1091.8,130.1z M1097.8,130.1c0-0.9-0.7-1.5-1.6-1.5c-0.9,0-1.6,0.6-1.6,1.5
				c0,0.9,0.6,1.5,1.6,1.5C1097.1,131.6,1097.8,131,1097.8,130.1z"/>
			<path class="st2" d="M1099.4,126.7h-0.4c-0.1-0.4-0.3-0.6-0.6-0.6c0,0.1,0.1,0.1,0.1,0.2c0,0.3-0.2,0.6-0.6,0.6
				c-0.4,0-0.6-0.2-0.6-0.6c0-0.4,0.3-0.7,0.8-0.7C1098.8,125.6,1099.3,126.1,1099.4,126.7z"/>
			<path class="st2" d="M1094.9,123.4c-0.3,0.6-0.8,1-1.5,1c-1,0-1.7-0.9-1.7-2.2c0-1.3,0.7-2.2,1.8-2.2c0.7,0,1.2,0.4,1.5,1
				c0.2-0.7,0.9-1.2,1.7-1.2c1.2,0,2,1,2,2.5c0,1.5-0.8,2.4-2,2.4C1095.8,124.6,1095.2,124.2,1094.9,123.4z M1094.6,122.2
				c0-0.8-0.4-1.4-1.1-1.4c-0.6,0-1,0.5-1,1.4c0,0.8,0.4,1.4,1,1.4C1094.2,123.6,1094.6,123,1094.6,122.2z M1097.8,122.2
				c0-0.9-0.5-1.6-1.2-1.6c-0.7,0-1.2,0.6-1.2,1.6c0,0.9,0.5,1.6,1.2,1.6C1097.3,123.7,1097.8,123.1,1097.8,122.2z"/>
			<path class="st2" d="M1093.8,114.2c0-1.1,0.6-1.9,1.6-2.1v0.9c-0.6,0.1-0.9,0.6-0.9,1.2c0,0.8,0.6,1.4,1.6,1.4
				c1,0,1.6-0.5,1.6-1.3c0-0.6-0.3-1.1-0.9-1.2v-0.9c1,0.2,1.6,1,1.6,2.1c0,1.3-0.9,2.2-2.4,2.2
				C1094.8,116.5,1093.8,115.6,1093.8,114.2z"/>
			<path class="st2" d="M1098.5,111.2h-4.5v-0.8l0.6-0.1c-0.4-0.2-0.7-0.7-0.7-1.3c0-0.7,0.3-1.2,0.9-1.4c-0.6-0.2-0.9-0.8-0.9-1.5
				c0-1,0.6-1.7,1.7-1.7h2.9v0.8h-2.7c-0.7,0-1.1,0.4-1.1,1c0,0.7,0.5,1.1,1.2,1.1h2.7v0.9h-2.7c-0.7,0-1.1,0.4-1.1,1
				c0,0.7,0.5,1.1,1.2,1.1h2.7V111.2z"/>
		</g>
		<g>
			<path class="st2" d="M11.6,130.1v-1l2.2,1.7c-0.1-0.2-0.1-0.5-0.1-0.7c0-1.4,1-2.3,2.3-2.3c1.4,0,2.4,1,2.4,2.4
				c0,1.4-1,2.4-2.4,2.4c-0.8,0-1.3-0.2-2.3-0.9L11.6,130.1z M17.5,130.1c0-0.9-0.7-1.5-1.6-1.5s-1.6,0.6-1.6,1.5
				c0,0.9,0.6,1.5,1.6,1.5S17.5,131,17.5,130.1z"/>
			<path class="st2" d="M19.2,126.7h-0.4c-0.1-0.4-0.3-0.6-0.6-0.6c0,0.1,0.1,0.1,0.1,0.2c0,0.3-0.2,0.6-0.6,0.6
				c-0.4,0-0.6-0.2-0.6-0.6c0-0.4,0.3-0.7,0.8-0.7C18.6,125.6,19.1,126.1,19.2,126.7z"/>
			<path class="st2" d="M14.7,123.4c-0.3,0.6-0.8,1-1.5,1c-1,0-1.7-0.9-1.7-2.2c0-1.3,0.7-2.2,1.8-2.2c0.7,0,1.2,0.4,1.5,1
				c0.2-0.7,0.9-1.2,1.7-1.2c1.2,0,2,1,2,2.5c0,1.5-0.8,2.4-2,2.4C15.6,124.6,15,124.2,14.7,123.4z M14.4,122.2
				c0-0.8-0.4-1.4-1.1-1.4c-0.6,0-1,0.5-1,1.4c0,0.8,0.4,1.4,1,1.4C13.9,123.6,14.4,123,14.4,122.2z M17.6,122.2
				c0-0.9-0.5-1.6-1.2-1.6c-0.7,0-1.2,0.6-1.2,1.6c0,0.9,0.5,1.6,1.2,1.6C17.1,123.7,17.6,123.1,17.6,122.2z"/>
			<path class="st2" d="M13.6,114.2c0-1.1,0.6-1.9,1.6-2.1v0.9c-0.6,0.1-0.9,0.6-0.9,1.2c0,0.8,0.6,1.4,1.6,1.4c1,0,1.6-0.5,1.6-1.3
				c0-0.6-0.3-1.1-0.9-1.2v-0.9c1,0.2,1.6,1,1.6,2.1c0,1.3-0.9,2.2-2.4,2.2C14.6,116.5,13.6,115.6,13.6,114.2z"/>
			<path class="st2" d="M18.2,111.2h-4.5v-0.8l0.6-0.1c-0.4-0.2-0.7-0.7-0.7-1.3c0-0.7,0.3-1.2,0.9-1.4c-0.6-0.2-0.9-0.8-0.9-1.5
				c0-1,0.6-1.7,1.7-1.7h2.9v0.8h-2.7c-0.7,0-1.1,0.4-1.1,1c0,0.7,0.5,1.1,1.2,1.1h2.7v0.9h-2.7c-0.7,0-1.1,0.4-1.1,1
				c0,0.7,0.5,1.1,1.2,1.1h2.7V111.2z"/>
		</g>
		<g>
			<path class="st2" d="M12.4,42.2h-0.8v-2.3h6.7v0.9h-5.8V42.2z"/>
			<path class="st2" d="M13.6,34.1c0-1.1,0.6-1.9,1.6-2.1v0.9c-0.6,0.1-0.9,0.6-0.9,1.2c0,0.8,0.6,1.4,1.6,1.4c1,0,1.6-0.5,1.6-1.3
				c0-0.6-0.3-1.1-0.9-1.2V32c1,0.2,1.6,1,1.6,2.1c0,1.3-0.9,2.2-2.4,2.2C14.6,36.3,13.6,35.4,13.6,34.1z"/>
			<path class="st2" d="M18.2,31.1h-4.5v-0.8l0.6-0.1c-0.4-0.2-0.7-0.7-0.7-1.3c0-0.7,0.3-1.2,0.9-1.4c-0.6-0.2-0.9-0.8-0.9-1.5
				c0-1,0.6-1.7,1.7-1.7h2.9v0.8h-2.7c-0.7,0-1.1,0.4-1.1,1c0,0.7,0.5,1.1,1.2,1.1h2.7v0.9h-2.7c-0.7,0-1.1,0.4-1.1,1
				c0,0.7,0.5,1.1,1.2,1.1h2.7V31.1z"/>
		</g>
		<g>
			<path class="st2" d="M1098.5,32.2h-0.7l-1.9-2.1c-0.9-1.1-1.4-1.4-2.1-1.4c-0.8,0-1.3,0.5-1.3,1.3c0,0.8,0.6,1.4,1.5,1.4v0.9
				c-1.4,0-2.4-0.9-2.4-2.3c0-1.3,0.8-2.2,2.1-2.2c0.9,0,1.6,0.5,2.6,1.6l1.2,1.4v-3.1h0.8L1098.5,32.2z"/>
			<path class="st2" d="M1093.8,22.2c0-1.1,0.6-1.9,1.6-2.1V21c-0.6,0.1-0.9,0.6-0.9,1.2c0,0.8,0.6,1.4,1.6,1.4c1,0,1.6-0.5,1.6-1.3
				c0-0.6-0.3-1.1-0.9-1.2v-0.9c1,0.2,1.6,1,1.6,2.1c0,1.3-0.9,2.2-2.4,2.2C1094.8,24.5,1093.8,23.6,1093.8,22.2z"/>
			<path class="st2" d="M1098.5,19.2h-4.5v-0.8l0.6-0.1c-0.4-0.2-0.7-0.7-0.7-1.3c0-0.7,0.3-1.2,0.9-1.4c-0.6-0.2-0.9-0.8-0.9-1.5
				c0-1,0.6-1.7,1.7-1.7h2.9v0.8h-2.7c-0.7,0-1.1,0.4-1.1,1c0,0.7,0.5,1.1,1.2,1.1h2.7v0.9h-2.7c-0.7,0-1.1,0.4-1.1,1
				c0,0.7,0.5,1.1,1.2,1.1h2.7V19.2z"/>
		</g>
		<g>
			<path class="st2" d="M801.7,32.2H801l-1.9-2.1c-0.9-1.1-1.4-1.4-2.1-1.4c-0.8,0-1.3,0.5-1.3,1.3c0,0.8,0.6,1.4,1.5,1.4v0.9
				c-1.4,0-2.4-0.9-2.4-2.3c0-1.3,0.8-2.2,2.1-2.2c0.9,0,1.6,0.5,2.6,1.6l1.2,1.4v-3.1h0.8L801.7,32.2z"/>
			<path class="st2" d="M797.1,22.2c0-1.1,0.6-1.9,1.6-2.1V21c-0.6,0.1-0.9,0.6-0.9,1.2c0,0.8,0.6,1.4,1.6,1.4c1,0,1.6-0.5,1.6-1.3
				c0-0.6-0.3-1.1-0.9-1.2v-0.9c1,0.2,1.6,1,1.6,2.1c0,1.3-0.9,2.2-2.4,2.2C798.1,24.5,797.1,23.6,797.1,22.2z"/>
			<path class="st2" d="M801.7,19.2h-4.5v-0.8l0.6-0.1c-0.4-0.2-0.7-0.7-0.7-1.3c0-0.7,0.3-1.2,0.9-1.4c-0.6-0.2-0.9-0.8-0.9-1.5
				c0-1,0.6-1.7,1.7-1.7h2.9v0.8H799c-0.7,0-1.1,0.4-1.1,1c0,0.7,0.5,1.1,1.2,1.1h2.7v0.9H799c-0.7,0-1.1,0.4-1.1,1
				c0,0.7,0.5,1.1,1.2,1.1h2.7V19.2z"/>
		</g>
	</g>
</g>
</svg>
