<?xml version="1.0" encoding="utf-8"?>
<!-- Generator: Adobe Illustrator 26.3.1, SVG Export Plug-In . SVG Version: 6.00 Build 0)  -->
<svg version="1.1" xmlns="http://www.w3.org/2000/svg" xmlns:xlink="http://www.w3.org/1999/xlink" x="0px" y="0px"
	 viewBox="0 0 1920 136.5" style="enable-background:new 0 0 1920 136.5;" xml:space="preserve">
<style type="text/css">
	.st0{fill:#1A2121;}
	.st1{display:none;}
	.st2{display:inline;fill:#4D5648;}
	.st3{display:inline;fill:#FFFFFF;}
	.st4{display:inline;}
	.st5{fill:#4D5648;}
	.st6{fill:none;stroke:#4D5648;stroke-miterlimit:10;}
	.st7{display:inline;fill:#EC641C;}
	.st8{fill:none;stroke:#13110C;stroke-width:0.18;stroke-miterlimit:10;}
	.st9{fill:none;stroke:#13110C;stroke-width:0.48;stroke-miterlimit:10;}
	.st10{clip-path:url(#SVGID_00000016757605811518724810000015890377440576792717_);}
	.st11{fill:#EC641C;}
	.st12{fill:#FFFFFF;}
	.st13{fill:#13110C;}
	.st14{display:inline;clip-path:url(#SVGID_00000086664817085377085420000002382102359609781137_);}
	.st15{opacity:0.9;}
	.st16{fill:#EA592F;}
	.st17{fill:#4C5243;}
	.st18{fill:none;}
	.st19{fill:none;stroke:#4C5243;stroke-miterlimit:10;}
	.st20{opacity:0.5;}
	.st21{fill:none;stroke:#000000;stroke-width:0.25;stroke-miterlimit:10;}
	.st22{fill:#4B5D3D;}
	.st23{fill:#506052;}
	.st24{fill:#4C6148;}
	.st25{clip-path:url(#SVGID_00000115476729874524989190000005941190214929465532_);}
	.st26{fill:none;stroke:#000000;stroke-miterlimit:10;}
	.st27{fill:none;stroke:#EA592F;stroke-miterlimit:10;}
	.st28{enable-background:new    ;}
	.st29{fill:none;stroke:#FFFFFF;stroke-miterlimit:10;}
</style>
<g id="Ambalaj_2_" xmlns:cc="http://creativecommons.org/ns#" xmlns:svg="http://www.w3.org/2000/svg" xmlns:rdf="http://www.w3.org/1999/02/22-rdf-syntax-ns#" xmlns:dc="http://purl.org/dc/elements/1.1/">
	<g>
		<polygon class="st18" points="311.9,57.1 320.1,65.3 328.2,57.1 320.1,49 		"/>
		<polygon class="st18" points="334.5,79.7 342.6,87.8 365.2,65.3 399,99.1 407.2,91 365.2,49 		"/>
		
			<rect x="1595.9" y="17.6" transform="matrix(0.7071 -0.7071 0.7071 0.7071 457.3123 1150.6329)" class="st18" width="43.4" height="11.5"/>
		
			<rect x="1482.1" y="-0.7" transform="matrix(0.7076 -0.7067 0.7067 0.7076 414.6646 1059.8527)" class="st18" width="11.5" height="59.4"/>
		<polygon class="st18" points="365.2,94.1 342.6,116.7 297.5,71.6 289.4,79.7 342.6,133 373.3,102.3 		"/>
		<polygon class="st18" points="1335.7,26.4 1327.5,34.6 1347,54 1389.7,11.3 1381.6,3.1 1347,37.7 		"/>
		<polygon class="st18" points="413.6,68.4 421.8,76.5 433,65.3 455.6,87.8 463.7,79.7 433,49 		"/>
		<polygon class="st18" points="802.2,57.1 771.5,26.4 763.4,34.6 794.1,65.3 		"/>
		<polygon class="st18" points="503.9,45.7 515,56.5 503.7,68.3 523.2,87.7 542.6,68.3 511.9,38.3 		"/>
		
			<rect x="533" y="79.6" transform="matrix(0.7071 -0.7071 0.7071 0.7071 104.4423 422.8408)" class="st18" width="59.4" height="11.5"/>
		<polygon class="st18" points="681.1,94.1 658.5,116.7 613.4,71.6 605.3,79.7 658.5,133 689.2,102.3 		"/>
		<polygon class="st18" points="432.9,94.1 413.5,113.6 432.9,133 441,124.8 429.7,113.6 441,102.3 		"/>
		
			<rect x="1798" y="-0.7" transform="matrix(0.7071 -0.7071 0.7071 0.7071 507.8831 1283.9561)" class="st18" width="11.5" height="59.4"/>
		<polygon class="st18" points="729.5,68.4 737.7,76.5 749,65.3 771.5,87.8 779.6,79.7 749,49 		"/>
		<polygon class="st18" points="1651.6,26.4 1643.5,34.6 1662.9,54 1705.6,11.3 1697.5,3.1 1662.9,37.7 		"/>
		
			<rect x="1280" y="17.6" transform="matrix(0.7071 -0.7071 0.7071 0.7071 364.7806 927.243)" class="st18" width="43.4" height="11.5"/>
		<polygon class="st18" points="500.7,94.1 490.2,83.6 482.1,91.7 500.7,110.4 500.7,110.5 523.2,133 531.3,124.8 500.7,94.3 		"/>
		
			<rect x="461.1" y="24.2" transform="matrix(0.7071 -0.7071 0.7071 0.7071 104.3215 343.569)" class="st18" width="11.5" height="43.4"/>
		
			<rect x="648.1" y="17.6" transform="matrix(0.7071 -0.7071 0.7071 0.7071 179.7135 480.459)" class="st18" width="43.4" height="11.5"/>
		
			<rect x="217" y="79.6" transform="matrix(0.7071 -0.7071 0.7071 0.7071 11.9115 199.4517)" class="st18" width="59.4" height="11.5"/>
		<polygon class="st18" points="715.1,37.7 703.8,26.4 695.7,34.6 715.1,54 757.8,11.3 749.7,3.1 		"/>
		<polygon class="st18" points="170.4,57.1 139.7,26.4 131.5,34.6 162.2,65.3 		"/>
		<polygon class="st18" points="18.6,79.7 26.7,87.8 49.2,65.3 83.1,99.1 91.2,91 49.3,49 49.2,49 		"/>
		<polygon class="st18" points="387.9,26.4 379.8,34.6 399.2,54 441.9,11.3 433.8,3.1 399.2,37.7 		"/>
		
			<rect x="534.3" y="-0.7" transform="matrix(0.7075 -0.7067 0.7067 0.7075 137.5058 390.1204)" class="st18" width="11.5" height="59.4"/>
		<polygon class="st18" points="97.7,68.4 105.8,76.5 117.1,65.3 139.7,87.8 147.8,79.7 117.1,49 		"/>
		<polygon class="st18" points="184.8,94.3 184.8,94.1 174.3,83.6 166.1,91.7 184.8,110.4 184.8,110.5 204.3,130 204.3,130 
			207.2,133 215.4,124.8 204.3,113.8 204.3,113.8 		"/>
		
			<rect x="1166.2" y="-0.7" transform="matrix(0.7075 -0.7067 0.7067 0.7075 322.299 836.63)" class="st18" width="11.5" height="59.4"/>
		
			<rect x="850.2" y="-0.7" transform="matrix(0.7071 -0.7071 0.7071 0.7071 230.2503 613.7477)" class="st18" width="11.5" height="59.4"/>
		<polygon class="st18" points="195.9,38.3 188,45.7 199.1,56.5 187.8,68.3 204.3,84.7 204.3,84.7 207.2,87.7 226.6,68.3 
			204.3,46.5 204.3,46.5 		"/>
		<polygon class="st18" points="117,94.1 97.6,113.6 117,133 125.1,124.8 113.8,113.6 125.1,102.3 		"/>
		<polygon class="st18" points="1031,37.7 1019.7,26.4 1011.6,34.6 1031,54 1073.8,11.3 1065.6,3.1 		"/>
		
			<rect x="964" y="17.6" transform="matrix(0.7067 -0.7075 0.7075 0.7067 272.656 704.2805)" class="st18" width="43.4" height="11.5"/>
		<path class="st18" d="M1118.1,57.1l-30.7-30.7c0,0-8.1,8.1-8.1,8.1l30.7,30.7L1118.1,57.1z"/>
		<polygon class="st18" points="1451.7,45.7 1462.8,56.5 1451.5,68.3 1470.9,87.7 1490.3,68.3 1459.6,38.3 		"/>
		<polygon class="st18" points="1448.5,94.1 1438,83.6 1429.8,91.7 1448.5,110.4 1448.5,110.5 1470.9,133 1479,124.8 1448.5,94.3 		
			"/>
		<polygon class="st18" points="1064.7,94.1 1045.3,113.6 1064.7,133 1072.9,124.8 1061.6,113.6 1072.9,102.3 		"/>
		
			<rect x="1480.7" y="79.6" transform="matrix(0.7071 -0.7071 0.7071 0.7071 382.0349 1093.0084)" class="st18" width="59.4" height="11.5"/>
		
			<rect x="946.2" y="51.4" transform="matrix(0.7071 -0.7071 0.7071 0.7071 238.4107 689.8418)" class="st18" width="11.5" height="11.5"/>
		<polygon class="st18" points="966.3,79.7 974.5,87.8 997,65.3 1030.9,99.1 1039,91 997,49 		"/>
		<polygon class="st18" points="1132.6,94.1 1122,83.6 1113.9,91.7 1132.6,110.4 1132.6,110.5 1155,133 1163.1,124.8 1132.6,94.3 		
			"/>
		<polygon class="st18" points="1677.3,68.4 1685.4,76.5 1696.7,65.3 1719.3,87.8 1727.4,79.7 1696.7,49 		"/>
		<polygon class="st18" points="1628.9,94.1 1606.3,116.7 1561.2,71.6 1553.1,79.7 1606.3,133 1637,102.3 		"/>
		
			<rect x="1262.1" y="51.4" transform="matrix(0.7071 -0.7071 0.7071 0.7071 330.9449 913.2343)" class="st18" width="11.5" height="11.5"/>
		<polygon class="st18" points="1361.4,68.4 1369.5,76.5 1380.8,65.3 1403.4,87.8 1411.5,79.7 1380.8,49 		"/>
		<polygon class="st18" points="1380.6,94.1 1361.2,113.6 1380.6,133 1388.8,124.8 1377.5,113.6 1388.8,102.3 		"/>
		
			<rect x="1893.9" y="51.4" transform="matrix(0.7071 -0.7071 0.7071 0.7071 515.9915 1359.9933)" class="st18" width="11.5" height="11.5"/>
		<polygon class="st18" points="1135.7,45.7 1146.9,56.5 1135.6,68.3 1155,87.7 1174.4,68.3 1143.7,38.3 		"/>
		
			<rect x="1164.8" y="79.6" transform="matrix(0.7071 -0.7071 0.7071 0.7071 289.504 869.6193)" class="st18" width="59.4" height="11.5"/>
		<polygon class="st18" points="1313,94.1 1290.4,116.7 1245.2,71.6 1237.1,79.7 1290.4,133 1321.1,102.3 		"/>
		<polygon class="st18" points="1282.3,79.7 1290.4,87.8 1313,65.3 1346.8,99.1 1354.9,91 1313,49 		"/>
		<polygon class="st18" points="827.8,38.3 819.8,45.7 830.9,56.5 819.7,68.3 839.1,87.7 852.2,74.5 858.5,68.3 852.2,62.1 		"/>
		<polygon class="st18" points="1851.4,68.4 1843.2,60.3 1801.3,102.3 1809.4,110.4 		"/>
		<polygon class="st18" points="816.7,94.1 806.1,83.6 798,91.7 816.7,110.4 816.7,110.5 839.1,133 847.2,124.8 816.7,94.3 		"/>
		<polygon class="st18" points="1767.6,45.7 1778.7,56.5 1767.4,68.3 1786.8,87.7 1806.2,68.3 1775.5,38.3 		"/>
		<polygon class="st18" points="748.8,94.1 729.4,113.6 748.8,133 756.9,124.8 745.6,113.6 756.9,102.3 		"/>
		<polygon class="st18" points="650.4,79.7 658.5,87.8 681.1,65.3 715,99.1 723.1,91 681.1,49 681.1,49 		"/>
		<polygon class="st18" points="903.6,68.4 895.5,60.3 853.5,102.3 861.6,110.4 		"/>
		
			<rect x="630.2" y="51.4" transform="matrix(0.7071 -0.7071 0.7071 0.7071 145.8743 466.4438)" class="st18" width="11.5" height="11.5"/>
		
			<rect x="1578" y="51.4" transform="matrix(0.7071 -0.7071 0.7071 0.7071 423.4769 1136.6216)" class="st18" width="11.5" height="11.5"/>
		
			<rect x="1724.8" y="24.2" transform="matrix(0.7071 -0.7071 0.7071 0.7071 474.4448 1237.1257)" class="st18" width="11.5" height="43.4"/>
		<polygon class="st18" points="1598.2,79.7 1606.3,87.8 1628.9,65.3 1662.7,99.1 1670.8,91 1628.9,49 1628.9,49 		"/>
		
			<rect x="332.2" y="17.6" transform="matrix(0.7071 -0.7071 0.7071 0.7071 87.1854 257.0727)" class="st18" width="43.4" height="11.5"/>
		
			<rect x="1408.9" y="24.2" transform="matrix(0.7071 -0.7071 0.7071 0.7071 381.9139 1013.7366)" class="st18" width="11.5" height="43.4"/>
		<polygon class="st18" points="1045.5,68.4 1053.6,76.5 1064.9,65.3 1087.5,87.8 1095.6,79.7 1064.9,49 		"/>
		<polygon class="st18" points="1696.6,94.1 1677.2,113.6 1696.6,133 1704.7,124.8 1693.4,113.6 1704.7,102.3 		"/>
		<polygon class="st18" points="1764.4,94.1 1753.9,83.6 1745.8,91.7 1764.4,110.4 1764.4,110.5 1786.8,133 1795,124.8 1764.4,94.3 
					"/>
		<polygon class="st18" points="997,94.1 974.5,116.7 929.3,71.6 921.2,79.7 974.5,133 1005.2,102.3 		"/>
		<polygon class="st18" points="497.6,23.3 474.3,0 458,0 489.5,31.4 		"/>
		<polygon class="st18" points="1234,37.6 1200.1,3.7 1192,11.9 1234,53.8 1287.8,0 1271.6,0 1267.8,3.7 1264.1,0 1247.8,0 
			1259.7,11.9 		"/>
		<polygon class="st18" points="407.2,0.6 406.6,0 390.3,0 399,8.7 		"/>
		<polygon class="st18" points="602.1,37.6 568.3,3.7 560.2,11.9 602.1,53.8 656,0 639.7,0 636,3.7 632.2,0 616,0 627.9,11.9 		"/>
		<polygon class="st18" points="609.3,0 593.4,0 601.4,7.9 		"/>
		<polygon class="st18" points="1557.1,0 1541.2,0 1549.1,7.9 		"/>
		<polygon class="st18" points="286.2,37.6 252.4,3.7 244.2,11.9 286.2,53.8 340,0 323.8,0 320.1,3.7 316.3,0 300.1,0 311.9,11.9 		
			"/>
		<polygon class="st18" points="1241.2,0 1225.3,0 1233.2,7.9 		"/>
		<polygon class="st18" points="293.4,0 277.5,0 285.5,7.9 		"/>
		<polygon class="st18" points="621.5,12 612.7,3.1 601.4,14.4 587,0 570.7,0 602.1,31.4 		"/>
		<polygon class="st18" points="305.6,12 296.7,3.1 285.5,14.4 271,0 254.8,0 286.2,31.4 		"/>
		<polygon class="st18" points="813.5,23.3 790.2,0 774,0 805.4,31.4 		"/>
		<polygon class="st18" points="937.5,12 928.6,3.1 917.3,14.4 902.9,0 886.6,0 918.1,31.4 		"/>
		<polygon class="st18" points="1865.8,37.6 1832,3.7 1823.8,11.9 1865.8,53.8 1919.6,0 1903.4,0 1899.6,3.7 1895.9,0 1879.7,0 
			1891.5,11.9 		"/>
		<polygon class="st18" points="1039,0.6 1038.4,0 1022.2,0 1030.9,8.7 		"/>
		<polygon class="st18" points="1761.2,23.3 1738,0 1721.7,0 1753.1,31.4 		"/>
		<polygon class="st18" points="723.1,0.6 722.5,0 706.3,0 715,8.7 		"/>
		<polygon class="st18" points="925.2,0 909.4,0 917.3,7.9 		"/>
		<polygon class="st18" points="1885.2,12 1876.3,3.1 1865.1,14.4 1850.6,0 1834.4,0 1865.8,31.4 		"/>
		<polygon class="st18" points="918.1,37.6 884.2,3.7 876.1,11.9 918.1,53.8 971.9,0 955.6,0 951.9,3.7 948.2,0 931.9,0 943.8,11.9 
					"/>
		<polygon class="st18" points="181.6,23.3 158.4,0 142.1,0 173.5,31.4 		"/>
		<polygon class="st18" points="1129.4,23.3 1106.1,0 1089.9,0 1121.3,31.4 		"/>
		<polygon class="st18" points="1873,0 1857.1,0 1865.1,7.9 		"/>
		<polygon class="st18" points="72,26.4 63.9,34.6 83.2,54 126,11.3 117.9,3.1 83.2,37.7 		"/>
		
			<rect x="16.3" y="17.6" transform="matrix(0.7071 -0.7071 0.7071 0.7071 -5.3492 33.6757)" class="st18" width="43.4" height="11.5"/>
		<polygon class="st18" points="1549.9,37.6 1516,3.7 1507.9,11.9 1549.9,53.8 1603.7,0 1587.5,0 1583.7,3.7 1580,0 1563.8,0 
			1575.6,11.9 		"/>
		<polygon class="st18" points="204.3,17.2 204.3,17.2 241.1,54 249.2,45.9 207.2,3.9 207.2,3.9 204.3,6.8 204.3,6.8 199.1,12 		"/>
		<polygon class="st18" points="1445.3,23.3 1422,0 1405.8,0 1437.2,31.4 		"/>
		<polygon class="st18" points="1569.3,12 1560.4,3.1 1549.1,14.4 1534.7,0 1518.5,0 1549.9,31.4 		"/>
		<polygon class="st18" points="1354.9,0.6 1354.3,0 1338.1,0 1346.8,8.7 		"/>
		<polygon class="st18" points="1670.8,0.6 1670.2,0 1654,0 1662.7,8.7 		"/>
		<polygon class="st18" points="91.2,0.6 90.6,0 74.4,0 83.1,8.7 		"/>
		<polygon class="st18" points="1253.4,12 1244.5,3.1 1233.2,14.4 1218.8,0 1202.6,0 1234,31.4 		"/>
		<path class="st16" d="M816.7,88L806,77.3l-14.4,14.4l25.1,25.1l19.7,19.7h5.5l10.4-10.4l1.3-1.3l-1.3-1.3L816.7,88z M839.1,133
			l-22.4-22.4v-0.1L798,91.7l8.1-8.1l10.5,10.5v0.1l30.5,30.5L839.1,133z"/>
		<polygon class="st16" points="858.1,136.5 864.2,136.5 906.8,94 937.5,124.7 929.3,132.8 906.8,110.2 892.3,124.7 904.2,136.5 
			910.4,136.5 898.7,124.8 906.8,116.7 926.6,136.5 932.1,136.5 943.8,124.8 906.8,87.8 		"/>
		<polygon class="st16" points="880.5,136.5 887.9,136.5 884.2,132.8 		"/>
		<polygon class="st16" points="1132.4,4.6 1132.6,4.5 1137.1,0 1127.8,0 		"/>
		<polygon class="st16" points="1038.6,136.5 1045.7,136.5 1042.2,133 		"/>
		<polygon class="st16" points="951.9,133 948.3,136.5 955.5,136.5 951.9,133 		"/>
		<path class="st16" d="M997,87.8l-22.6,22.6l-45.1-45.1l-14.4,14.5l56.9,56.8h5.5l34.3-34.3L997,87.8z M974.5,133l-53.3-53.2
			l8.1-8.1l45.1,45.1L997,94.1l8.1,8.1L974.5,133z"/>
		<path class="st16" d="M1121.9,77.3L1121.9,77.3l-14.5,14.4l44.8,44.8h5.5l11.7-11.7L1132.6,88L1121.9,77.3z M1155,133l-22.4-22.4
			v-0.1l-18.6-18.7l8.1-8.1l10.5,10.5v0.1l30.5,30.5L1155,133z"/>
		<polygon class="st16" points="1084.1,113.6 1095.4,124.8 1083.7,136.5 1090.2,136.5 1101.9,124.8 1090.6,113.6 1098.7,105.4 
			1118.1,124.8 1106.4,136.5 1112.6,136.5 1124.3,124.8 1098.6,99.1 		"/>
		<path class="st16" d="M861.6,116.7l48.3-48.3L895.5,54l-43.3,43.3l-5,5L861.6,116.7z M895.5,60.3l8.1,8.1l-42,42l-8.1-8.1
			L895.5,60.3z"/>
		<polygon class="st16" points="1042.2,133 1042.2,133 1042.2,133 		"/>
		<path class="st16" d="M960,79.7l14.4,14.4L997,71.6l33.8,33.9l14.5-14.4L997,42.7L960,79.7z M1030.9,99.1L997,65.3l-22.6,22.6
			l-8.1-8.1L997,49l42,42L1030.9,99.1z"/>
		<polygon class="st16" points="861.6,4.2 865.9,0 857.5,0 		"/>
		<path class="st16" d="M1039.2,68.4l14.4,14.4l11.3-11.3l22.6,22.6l14.4-14.4l-37-37L1039.2,68.4z M1087.5,87.8l-22.6-22.6
			l-11.3,11.3l-8.1-8.1l19.4-19.4l30.7,30.7L1087.5,87.8z"/>
		<path class="st16" d="M1030.9,31.4l-11.3-11.3l-14.4,14.4l25.7,25.7l49-49L1068.7,0h-6.4L1030.9,31.4z M1031,54l-19.4-19.4
			l8.1-8.1l11.3,11.3l34.6-34.6l8.1,8.1L1031,54z"/>
		<polygon class="st16" points="918.1,53.8 876.1,11.9 884.2,3.7 918.1,37.6 943.8,11.9 931.9,0 925.2,0 917.3,7.9 909.4,0 902.9,0 
			917.3,14.4 928.6,3.1 937.5,12 918.1,31.4 886.6,0 881.8,0 869.8,12 918.1,60.3 978.4,0 971.9,0 		"/>
		<polygon class="st16" points="1039,0.6 1030.9,8.7 1022.2,0 1015.7,0 1030.9,15.2 1045.3,0.7 1044.6,0 1038.4,0 		"/>
		<polygon class="st16" points="955.6,0 948.2,0 951.9,3.7 		"/>
		<path class="st16" d="M937.5,57.1l14.4,14.4l14.4-14.4l-14.4-14.4L937.5,57.1z M951.9,65.3l-8.1-8.1l8.1-8.1l8.1,8.1L951.9,65.3z"
			/>
		<polygon class="st16" points="993.9,136.1 994.3,136.5 1000.6,136.5 1000.2,136.1 1019.6,116.7 1027.7,124.8 1016,136.5 
			1022.3,136.5 1034,124.8 1019.6,110.4 		"/>
		<path class="st16" d="M1124.3,57.1l-37-37l-14.4,14.4l37,37L1124.3,57.1z M1087.5,26.4l30.7,30.7l-8.1,8.1l-30.7-30.7
			C1079.3,34.6,1087.4,26.4,1087.5,26.4z"/>
		<path class="st16" d="M1132.6,42.6l-3.5,3.2l3.5,3.3l8,7.7l-8,8.2l-3.3,3.4l3.3,3.3l22.4,22.4l25.7-25.7l-37-36.2L1132.6,42.6z
			 M1155,87.7l-19.4-19.4l11.3-11.7l-11.1-10.8l8-7.4l30.7,29.9L1155,87.7z"/>
		<path class="st16" d="M1064.7,87.8l-25.7,25.7l23,23h5.5l11.7-11.7l-11.3-11.3l11.3-11.3L1064.7,87.8z M1072.9,124.8l-8.1,8.1
			l-19.4-19.4l19.4-19.4l8.1,8.1l-11.3,11.3L1072.9,124.8z"/>
		<path class="st16" d="M960,34.6L974.5,49l37-37l-12-12h-4.9L960,34.6z M974.5,42.7l-8.1-8.1L997,3.9l8.1,8.1L974.5,42.7z"/>
		<polygon class="st16" points="1196.4,136.5 1203.9,136.5 1200.1,132.8 		"/>
		<polygon class="st16" points="1174,136.5 1180.1,136.5 1222.7,94 1253.4,124.7 1245.2,132.8 1222.7,110.2 1208.2,124.7 
			1220.1,136.5 1226.3,136.5 1214.6,124.8 1222.7,116.7 1242.5,136.5 1248,136.5 1259.7,124.8 1222.7,87.8 		"/>
		<polygon class="st16" points="1132.6,133.1 1132.4,133 1128.8,136.5 1136,136.5 1132.6,133.1 		"/>
		<polygon class="st16" points="1400.1,113.6 1411.3,124.8 1399.6,136.5 1406.1,136.5 1417.8,124.8 1406.5,113.6 1414.6,105.4 
			1434.1,124.8 1422.3,136.5 1428.5,136.5 1440.2,124.8 1414.5,99.1 		"/>
		<polygon class="st16" points="1448.3,4.6 1448.5,4.5 1453,0 1443.7,0 		"/>
		<polygon class="st16" points="1335.5,110.4 1309.8,136.1 1310.2,136.5 1316.5,136.5 1316.1,136.1 1335.5,116.7 1343.6,124.8 
			1331.9,136.5 1338.2,136.5 1350,124.8 1335.5,110.4 		"/>
		<polygon class="st16" points="1354.5,136.5 1361.7,136.5 1358.1,133 		"/>
		<polygon class="st16" points="1358.1,133 1358.1,133 1358.1,133 		"/>
		<polygon class="st16" points="1267.8,133 1264.2,136.5 1271.4,136.5 1267.8,133 		"/>
		<path class="st16" d="M1437.8,77.3l-14.4,14.4l44.8,44.8h5.5l11.7-11.7L1448.5,88L1437.8,77.3z M1470.9,133l-22.4-22.4v-0.1
			l-18.6-18.7l8.1-8.1l10.5,10.5v0.1l30.5,30.5L1470.9,133z"/>
		<path class="st16" d="M1313,87.8l-22.6,22.6l-45.1-45.1l-14.4,14.5l56.8,56.8h5.5l34.3-34.3L1313,87.8z M1290.4,133l-53.2-53.2
			l8.1-8.1l45.1,45.1l22.6-22.6l8.1,8.1L1290.4,133z"/>
		<path class="st16" d="M1448.5,42.6l-3.5,3.2l3.5,3.3l8,7.7l-8,8.2l-3.3,3.4l25.7,25.7l25.7-25.7l-37-36.2L1448.5,42.6z
			 M1470.9,87.7l-19.4-19.4l11.3-11.7l-11.1-10.8l8-7.4l30.7,29.9L1470.9,87.7z"/>
		<path class="st16" d="M1275.9,79.7l14.4,14.4l22.6-22.6l33.8,33.9l14.5-14.4L1313,42.7L1275.9,79.7z M1346.8,99.1L1313,65.3
			l-22.6,22.6l-8.1-8.1L1313,49l42,42L1346.8,99.1z"/>
		<path class="st16" d="M1355.1,68.4l14.4,14.4l11.3-11.3l22.6,22.6l14.4-14.4l-37-37L1355.1,68.4z M1403.4,87.8l-22.6-22.6
			l-11.3,11.3l-8.1-8.1l19.4-19.4l30.7,30.7L1403.4,87.8z"/>
		<path class="st16" d="M1346.8,31.4l-11.3-11.3l-14.5,14.4l25.7,25.7l49.1-49L1384.6,0h-6.4L1346.8,31.4z M1389.7,11.3L1347,54
			l-19.4-19.4l8.1-8.1l11.3,11.3l34.6-34.6L1389.7,11.3z"/>
		<path class="st16" d="M1440.2,57.1l-37-37l-14.4,14.4l37,37L1440.2,57.1z M1403.4,26.4l30.7,30.7l-8.1,8.1l-30.7-30.7L1403.4,26.4
			z"/>
		<path class="st16" d="M1380.6,87.8l-25.7,25.7l23,23h5.5l11.7-11.7l-11.3-11.3l11.3-11.3L1380.6,87.8z M1388.8,124.8l-8.1,8.1
			l-19.4-19.4l19.4-19.4l8.1,8.1l-11.3,11.3L1388.8,124.8z"/>
		<path class="st16" d="M1275.9,34.6l14.4,14.4l37-37l-12-12h-4.9L1275.9,34.6z M1321.1,12l-30.7,30.7l-8.1-8.1L1313,3.9L1321.1,12z
			"/>
		<path class="st16" d="M1253.4,57.1l14.4,14.4l14.4-14.4l-14.4-14.4L1253.4,57.1z M1267.8,65.3l-8.1-8.1l8.1-8.1l8.1,8.1
			L1267.8,65.3z"/>
		<polygon class="st16" points="1177.6,4.2 1181.8,0 1173.5,0 		"/>
		<polygon class="st16" points="1129.4,23.3 1121.3,31.4 1089.9,0 1083.4,0 1121.1,37.7 1132.6,26.3 1135.6,23.3 1132.6,20.3 
			1112.3,0 1106.1,0 		"/>
		<path class="st16" d="M1225.8,68.4L1211.4,54l-48.3,48.3l14.4,14.4L1225.8,68.4z M1211.4,60.3l8.1,8.1l-42,42l-8.1-8.1
			L1211.4,60.3z"/>
		<polygon class="st16" points="1354.9,0.6 1346.8,8.7 1338.1,0 1331.6,0 1346.8,15.2 1361.2,0.7 1360.5,0 1354.3,0 		"/>
		<polygon class="st16" points="1271.6,0 1264.1,0 1267.8,3.7 		"/>
		<polygon class="st16" points="1234,53.8 1192,11.9 1200.1,3.7 1234,37.6 1259.7,11.9 1247.8,0 1241.2,0 1233.2,7.9 1225.3,0 
			1218.8,0 1233.2,14.4 1244.5,3.1 1253.4,12 1234,31.4 1202.6,0 1197.7,0 1185.7,12 1234,60.3 1294.3,0 1287.8,0 		"/>
		<path class="st16" d="M1140.5,12l48.3,48.3l14.4-14.4L1157.4,0h-4.9L1140.5,12z M1197,45.9l-8.1,8.1l-42-42l8.1-8.1L1197,45.9z"/>
		<polygon class="st16" points="1512.3,136.5 1519.8,136.5 1516,132.8 		"/>
		<polygon class="st16" points="1489.9,136.5 1496.1,136.5 1538.6,94 1569.3,124.7 1561.2,132.8 1538.6,110.2 1524.2,124.7 
			1536,136.5 1542.2,136.5 1530.5,124.8 1538.6,116.7 1558.4,136.5 1563.9,136.5 1575.6,124.8 1538.6,87.8 		"/>
		<path class="st16" d="M1628.9,87.8l-22.6,22.6l-45.1-45.1l-14.4,14.5l56.8,56.8h5.5l34.3-34.3L1628.9,87.8z M1606.3,133
			l-53.2-53.2l8.1-8.1l45.1,45.1l22.6-22.6l8.1,8.1L1606.3,133z"/>
		<polygon class="st16" points="1583.7,133 1580.1,136.5 1587.3,136.5 1583.7,133 		"/>
		<path class="st16" d="M1541.8,68.4L1527.3,54l-48.3,48.3l14.4,14.4L1541.8,68.4z M1527.3,60.3l8.1,8.1l-42,42l-8.1-8.1
			L1527.3,60.3z"/>
		<polygon class="st16" points="1493.5,4.2 1497.7,0 1489.4,0 		"/>
		<polygon class="st16" points="1445.3,23.3 1437.2,31.4 1405.8,0 1399.3,0 1437.1,37.7 1448.5,26.3 1451.5,23.3 1448.5,20.3 
			1428.2,0 1422,0 		"/>
		<path class="st16" d="M1456.5,12l48.3,48.3l14.4-14.4L1473.3,0h-4.9L1456.5,12z M1512.9,45.9l-8.1,8.1l-42-42l8.1-8.1L1512.9,45.9
			z"/>
		<polygon class="st16" points="1764.3,4.6 1768.9,0 1759.6,0 		"/>
		<polygon class="st16" points="1625.7,136.1 1626.1,136.5 1632.5,136.5 1632,136.1 1651.4,116.7 1659.6,124.8 1647.8,136.5 
			1654.2,136.5 1665.9,124.8 1651.4,110.4 		"/>
		<path class="st16" d="M1696.6,87.8l-25.7,25.7l23,23h5.5l11.7-11.7l-11.3-11.3l11.3-11.3L1696.6,87.8z M1704.7,124.8l-8.1,8.1
			l-19.4-19.4l19.4-19.4l8.1,8.1l-11.3,11.3L1704.7,124.8z"/>
		<path class="st16" d="M1753.7,77.3l-14.5,14.4l25.1,25.1l19.7,19.7h5.5l11.7-11.7L1764.4,88L1753.7,77.3z M1786.8,133l-22.4-22.4
			v-0.1l-18.6-18.7l8.1-8.1l10.5,10.5v0.1l30.5,30.5L1786.8,133z"/>
		<path class="st16" d="M1756.1,57.1l-37-37l-14.4,14.4l37,37L1756.1,57.1z M1719.3,26.4l30.7,30.7l-8.1,8.1l-30.7-30.7L1719.3,26.4
			z"/>
		<polygon class="st16" points="1716,113.6 1727.2,124.8 1715.5,136.5 1722,136.5 1733.7,124.8 1722.4,113.6 1730.6,105.4 
			1750,124.8 1738.3,136.5 1744.4,136.5 1756.1,124.8 1730.4,99.1 		"/>
		<path class="st16" d="M1671,68.4l14.4,14.4l11.3-11.3l22.6,22.6l14.4-14.4l-37-37L1671,68.4z M1719.3,87.8l-22.6-22.6l-11.3,11.3
			l-8.1-8.1l19.4-19.4l30.7,30.7L1719.3,87.8z"/>
		<path class="st16" d="M1591.9,34.6l14.4,14.4l37-37l-12-12h-4.9L1591.9,34.6z M1637,12l-30.7,30.7l-8.1-8.1l30.7-30.7L1637,12z"/>
		<path class="st16" d="M1569.3,57.1l14.4,14.4l14.4-14.4l-14.4-14.4L1569.3,57.1z M1583.7,65.3l-8.1-8.1l8.1-8.1l8.1,8.1
			L1583.7,65.3z"/>
		<path class="st16" d="M1591.9,79.7l14.4,14.4l22.6-22.6l33.8,33.9l14.4-14.4l-48.3-48.3L1591.9,79.7z M1670.8,91l-8.1,8.1
			l-33.8-33.9l-22.6,22.6l-8.1-8.1l30.7-30.7h0L1670.8,91z"/>
		<polygon class="st16" points="1674,133 1674,133 1674,133 		"/>
		<polygon class="st16" points="1587.5,0 1580,0 1583.7,3.7 		"/>
		<polygon class="st16" points="1670.8,0.6 1662.7,8.7 1654,0 1647.5,0 1662.7,15.2 1677.2,0.7 1676.4,0 1670.2,0 		"/>
		<polygon class="st16" points="1549.9,53.8 1507.9,11.9 1516,3.7 1549.9,37.6 1575.6,11.9 1563.8,0 1557.1,0 1549.1,7.9 1541.2,0 
			1534.7,0 1549.1,14.4 1560.4,3.1 1569.3,12 1549.9,31.4 1518.5,0 1513.6,0 1501.6,12 1549.9,60.3 1610.2,0 1603.7,0 		"/>
		<path class="st16" d="M1764.4,42.6l-3.5,3.2l3.5,3.3l8,7.7l-8,8.2l-3.3,3.4l3.3,3.3l22.4,22.4l25.7-25.7l-37-36.2L1764.4,42.6z
			 M1786.8,87.7l-19.4-19.4l11.3-11.7l-11.1-10.8l8-7.4l30.7,29.9L1786.8,87.7z"/>
		<path class="st16" d="M1662.7,31.4l-11.3-11.3L1637,34.6l25.7,25.7l49.1-49L1700.5,0h-6.4L1662.7,31.4z M1705.6,11.3L1662.9,54
			l-19.4-19.4l8.1-8.1l11.3,11.3l34.6-34.6L1705.6,11.3z"/>
		<polygon class="st16" points="1670.4,136.5 1677.6,136.5 1674,133 		"/>
		<polygon class="st16" points="1444.8,136.5 1451.9,136.5 1448.3,133 		"/>
		<polygon class="st16" points="1896.1,136.5 1903.2,136.5 1899.7,133 		"/>
		<polygon class="st16" points="1862.7,79.7 1919.5,136.5 1920,136.5 1920,130.7 1869,79.7 1877.1,71.6 1920,114.5 1920,108.2 
			1877.1,65.3 		"/>
		<polygon class="st16" points="1828.2,136.5 1835.7,136.5 1832,132.8 		"/>
		<polygon class="st16" points="1805.8,136.5 1812,136.5 1854.5,94 1885.2,124.7 1877.1,132.8 1854.5,110.2 1840.1,124.7 
			1852,136.5 1858.1,136.5 1846.4,124.8 1854.5,116.7 1874.4,136.5 1879.8,136.5 1891.5,124.8 1854.5,87.8 		"/>
		<polygon class="st16" points="1809.4,4.2 1813.6,0 1805.3,0 		"/>
		<polygon class="st16" points="1920,91.9 1920,85.6 1914.1,79.7 1920,73.8 1920,67.5 1907.8,79.7 		"/>
		<polygon class="st16" points="1920,46.8 1920,40.5 1914.1,34.6 1920,28.7 1920,22.4 1907.8,34.6 		"/>
		<path class="st16" d="M1899.7,42.7l-14.4,14.4l14.4,14.4l14.4-14.4L1899.7,42.7z M1891.5,57.1l8.1-8.1l8.1,8.1l-8.1,8.1
			L1891.5,57.1z"/>
		<path class="st16" d="M1857.7,68.4L1843.2,54l-48.3,48.3l14.4,14.4L1857.7,68.4z M1843.2,60.3l8.1,8.1l-42,42l-8.1-8.1
			L1843.2,60.3z"/>
		<polygon class="st16" points="1865.8,53.8 1823.8,11.9 1832,3.7 1865.8,37.6 1891.5,11.9 1879.7,0 1873,0 1865.1,7.9 1857.1,0 
			1850.6,0 1865.1,14.4 1876.3,3.1 1885.2,12 1865.8,31.4 1834.4,0 1829.5,0 1817.5,12 1865.8,60.3 1920,6.1 1920,0 1919.6,0 		"/>
		<polygon class="st16" points="1903.4,0 1895.9,0 1899.6,3.7 		"/>
		<path class="st16" d="M1772.4,12l48.3,48.3l14.4-14.4L1789.3,0h-4.9L1772.4,12z M1828.8,45.9l-8.1,8.1l-42-42l8.1-8.1L1828.8,45.9
			z"/>
		<polygon class="st16" points="1761.2,23.3 1753.1,31.4 1721.7,0 1715.2,0 1753,37.7 1767.4,23.3 1764.4,20.3 1744.1,0 1738,0 		
			"/>
		<polygon class="st16" points="1764.4,133.1 1764.3,133 1760.7,136.5 1767.8,136.5 1764.4,133.1 		"/>
		<polygon class="st16" points="204.3,40.3 204.3,46.5 226.6,68.3 207.2,87.7 204.3,84.7 204.3,84.7 204.3,91.2 207.2,94.2 
			233,68.4 204.3,40.3 		"/>
		<polygon class="st16" points="204.3,107.4 204.3,113.8 215.4,124.8 207.2,133 204.3,130 204.3,130 204.3,136.3 204.5,136.5 
			210,136.5 221.7,124.8 204.3,107.4 		"/>
		<polygon class="st16" points="286.2,53.8 244.2,11.9 252.4,3.7 286.2,37.6 311.9,11.9 300.1,0 293.4,0 285.5,7.9 277.5,0 271,0 
			285.5,14.4 296.7,3.1 305.6,12 286.2,31.4 254.8,0 249.9,0 237.9,12 286.2,60.3 346.5,0 340,0 		"/>
		<polygon class="st16" points="323.8,0 316.3,0 320.1,3.7 		"/>
		<polygon class="st16" points="407.2,0.6 399,8.7 390.3,0 383.9,0 399,15.2 413.5,0.7 412.8,0 406.6,0 		"/>
		<path class="st16" d="M492.5,57.1l-37-37L441,34.6l37,37L492.5,57.1z M455.6,26.4l30.7,30.7l-8.1,8.1l-30.7-30.7L455.6,26.4z"/>
		<path class="st16" d="M407.3,68.4l14.4,14.4L433,71.6l22.6,22.6L470,79.7l-37-37L407.3,68.4z M455.6,87.8L433,65.3l-11.3,11.3
			l-8.1-8.1L433,49l30.7,30.7L455.6,87.8z"/>
		<polygon class="st16" points="500.6,4.6 505.2,0 495.9,0 		"/>
		<path class="st16" d="M490.1,77.3l-14.4,14.4l44.8,44.8h5.5l11.7-11.7L500.7,88L490.1,77.3z M523.2,133l-22.4-22.4v-0.1
			l-18.7-18.7l8.1-8.1l10.5,10.5v0.1l30.5,30.5L523.2,133z"/>
		<path class="st16" d="M328.2,34.6L342.6,49l37-37l-12-12h-4.9L328.2,34.6z M373.3,12l-30.7,30.7l-8.1-8.1l30.7-30.7L373.3,12z"/>
		<path class="st16" d="M500.7,42.6l-3.5,3.2l3.5,3.3l8,7.7l-8,8.2l-3.3,3.4l25.7,25.7l25.7-25.7l-37-36.2L500.7,42.6z M523.2,87.7
			l-19.4-19.4L515,56.5l-11.1-10.8l8-7.4l30.7,29.9L523.2,87.7z"/>
		<path class="st16" d="M432.9,87.8l-25.7,25.7l23,23h5.5l11.7-11.7L436,113.6l11.3-11.3L432.9,87.8z M441,124.8l-8.1,8.1
			l-19.4-19.4l19.4-19.4l8.1,8.1l-11.3,11.3L441,124.8z"/>
		<path class="st16" d="M399,31.4l-11.3-11.3l-14.5,14.4L399,60.3l49-49L436.8,0h-6.4L399,31.4z M441.9,11.3L399.2,54l-19.4-19.4
			l8.1-8.1l11.3,11.3l34.6-34.6L441.9,11.3z"/>
		<path class="st16" d="M328.2,79.7l14.4,14.4l22.6-22.6l33.8,33.9L413.5,91l-48.3-48.3L328.2,79.7z M399,99.1l-33.8-33.9
			l-22.6,22.6l-8.1-8.1L365.2,49l42,42L399,99.1z"/>
		<path class="st16" d="M305.6,57.1l14.4,14.4l14.4-14.4l-14.4-14.4L305.6,57.1z M320.1,65.3l-8.1-8.1l8.1-8.1l8.1,8.1L320.1,65.3z"
			/>
		<polygon class="st16" points="320.1,133 316.5,136.5 323.7,136.5 320.1,133 		"/>
		<path class="st16" d="M278.1,68.4L263.6,54l-48.3,48.3l14.4,14.4L278.1,68.4z M263.6,60.3l8.1,8.1l-42,42l-8.1-8.1L263.6,60.3z"/>
		<path class="st16" d="M365.2,87.8l-22.6,22.6l-45.1-45.1l-14.4,14.5l56.8,56.8h5.5l34.3-34.3L365.2,87.8z M342.6,133l-53.2-53.2
			l8.1-8.1l45.1,45.1l22.6-22.6l8.1,8.1L342.6,133z"/>
		<polygon class="st16" points="226.2,136.5 232.4,136.5 274.9,94 305.6,124.7 297.5,132.8 274.9,110.2 260.5,124.7 272.4,136.5 
			278.5,136.5 266.8,124.8 274.9,116.7 294.8,136.5 300.2,136.5 311.9,124.8 274.9,87.8 		"/>
		<polygon class="st16" points="248.6,136.5 256.1,136.5 252.4,132.8 		"/>
		<polygon class="st16" points="204.3,0.5 204.3,6.8 204.3,6.8 207.2,3.9 207.2,3.9 249.2,45.9 241.1,54 204.3,17.2 204.3,17.2 
			204.3,23.5 241.1,60.3 255.5,45.9 209.7,0 204.8,0 		"/>
		<polygon class="st16" points="452.3,113.6 463.6,124.8 451.9,136.5 458.3,136.5 470,124.8 458.8,113.6 466.9,105.4 486.3,124.8 
			474.6,136.5 480.8,136.5 492.5,124.8 466.7,99.1 		"/>
		<polygon class="st16" points="229.8,4.2 234,0 225.7,0 		"/>
		<polygon class="st16" points="410.3,133 410.3,133 410.3,133 		"/>
		<polygon class="st16" points="387.8,110.4 362,136.1 362.5,136.5 368.8,136.5 368.4,136.1 387.8,116.7 395.9,124.8 384.2,136.5 
			390.5,136.5 402.2,124.8 387.8,110.4 		"/>
		<polygon class="st16" points="406.7,136.5 413.9,136.5 410.3,133 		"/>
		<path class="st16" d="M621.5,57.1L636,71.6l14.5-14.4L636,42.7L621.5,57.1z M636,65.3l-8.1-8.1L636,49l8.1,8.1L636,65.3z"/>
		<path class="st16" d="M715,31.4l-11.3-11.3l-14.4,14.4L715,60.3l49-49L752.7,0h-6.4L715,31.4z M757.8,11.3L715.1,54l-19.4-19.4
			l8.1-8.1l11.3,11.3l34.6-34.6L757.8,11.3z"/>
		<path class="st16" d="M644.1,34.6L658.5,49l37-37l-12-12h-4.9L644.1,34.6z M689.2,12l-30.7,30.7l-8.1-8.1l30.7-30.7L689.2,12z"/>
		<path class="st16" d="M748.8,87.8l-25.7,25.7l23,23h5.5l11.7-11.7L752,113.6l11.3-11.3L748.8,87.8z M756.9,124.8l-8.1,8.1
			l-19.4-19.4l19.4-19.4l8.1,8.1l-11.3,11.3L756.9,124.8z"/>
		<path class="st16" d="M644.1,79.7l14.4,14.4l22.6-22.6l33.9,33.9L729.4,91l-48.3-48.3L644.1,79.7z M723.1,91l-8.1,8.1l-33.9-33.9
			l-22.6,22.6l-8.1-8.1L681.1,49h0L723.1,91z"/>
		<path class="st16" d="M852.2,56.1l-24.4-23.9l-11.1,10.4l-3.5,3.2l3.5,3.3l8,7.7l-8,8.2l-3.3,3.4l3.3,3.3l22.4,22.4l25.7-25.7
			L852.2,56.1L852.2,56.1z M852.2,74.5l-13.1,13.1l-19.4-19.4l11.3-11.7l-11.1-10.8l8-7.4l24.4,23.8l6.3,6.1L852.2,74.5z"/>
		<path class="st16" d="M723.2,68.4l14.4,14.4L749,71.6l22.6,22.6L786,79.7l-37-37L723.2,68.4z M771.5,87.8L749,65.3l-11.3,11.3
			l-8.1-8.1L749,49l30.7,30.7L771.5,87.8z"/>
		<polygon class="st16" points="816.5,4.6 816.7,4.5 821.1,0 811.9,0 		"/>
		<polygon class="st16" points="500.7,133.1 500.6,133 497,136.5 504.2,136.5 500.7,133.1 		"/>
		<polygon class="st16" points="768.2,113.6 779.5,124.8 767.8,136.5 774.2,136.5 786,124.8 774.7,113.6 782.8,105.4 802.2,124.8 
			790.5,136.5 796.7,136.5 808.4,124.8 782.7,99.1 		"/>
		<path class="st16" d="M681.1,87.8l-22.6,22.6l-45.1-45.1L599,79.7l56.8,56.8h5.5l34.3-34.3L681.1,87.8z M658.5,133l-53.2-53.2
			l8.1-8.1l45.1,45.1l22.6-22.6l8.1,8.1L658.5,133z"/>
		<path class="st16" d="M508.7,12L557,60.3l14.4-14.4L525.6,0h-4.9L508.7,12z M565.1,45.9L557,54l-42-42l8.1-8.1L565.1,45.9z"/>
		<polygon class="st16" points="722.7,136.5 729.8,136.5 726.2,133 		"/>
		<polygon class="st16" points="726.2,133 726.2,133 726.2,133 		"/>
		<polygon class="st16" points="636,133 632.4,136.5 639.6,136.5 636,133 		"/>
		<polygon class="st16" points="678,136.1 678.4,136.5 684.7,136.5 684.3,136.1 703.7,116.7 711.8,124.8 700.1,136.5 706.4,136.5 
			718.1,124.8 703.7,110.4 		"/>
		<polygon class="st16" points="497.6,23.3 489.5,31.4 458,0 451.6,0 489.3,37.7 500.7,26.3 503.7,23.3 500.7,20.3 480.4,0 474.3,0 
					"/>
		<path class="st16" d="M594,68.4L579.6,54l-48.3,48.3l14.4,14.4L594,68.4z M579.6,60.3l8.1,8.1l-42,42l-8.1-8.1L579.6,60.3z"/>
		<polygon class="st16" points="545.7,4.2 550,0 541.6,0 		"/>
		<polygon class="st16" points="564.5,136.5 572,136.5 568.3,132.8 		"/>
		<polygon class="st16" points="542.1,136.5 548.3,136.5 590.8,94 621.5,124.7 613.4,132.8 590.8,110.2 576.4,124.7 588.3,136.5 
			594.4,136.5 582.7,124.8 590.8,116.7 610.7,136.5 616.1,136.5 627.9,124.8 590.8,87.8 		"/>
		<polygon class="st16" points="813.5,23.3 805.4,31.4 774,0 767.5,0 805.2,37.7 819.7,23.3 816.7,20.3 796.4,0 790.2,0 		"/>
		<path class="st16" d="M808.4,57.1l-37-37l-14.4,14.4l37,37L808.4,57.1z M771.5,26.4l30.7,30.7l-8.1,8.1l-30.7-30.7L771.5,26.4z"/>
		<polygon class="st16" points="723.1,0.6 715,8.7 706.3,0 699.8,0 715,15.2 729.4,0.7 728.7,0 722.5,0 		"/>
		<polygon class="st16" points="639.7,0 632.2,0 636,3.7 		"/>
		<polygon class="st16" points="602.1,53.8 560.2,11.9 568.3,3.7 602.1,37.6 627.9,11.9 616,0 609.3,0 601.4,7.9 593.4,0 587,0 
			601.4,14.4 612.7,3.1 621.5,12 602.1,31.4 570.7,0 565.8,0 553.8,12 602.1,60.3 662.4,0 656,0 		"/>
		<polygon class="st16" points="816.6,133.1 816.5,133 812.9,136.5 820.1,136.5 816.6,133.1 		"/>
		<path class="st16" d="M824.6,12l48.3,48.3l14.4-14.4l-35.2-35.2L841.5,0h-4.9L824.6,12z M881,45.9l-8.1,8.1l-42-42l8.1-8.1
			L881,45.9z"/>
		<polygon class="st16" points="0,61.1 0,67.5 4.1,71.6 18.6,57.1 4.1,42.7 0,46.8 0,53.1 4.1,49 12.2,57.1 4.1,65.3 		"/>
		<polygon class="st16" points="187.8,68.3 199.1,56.5 188,45.7 195.9,38.3 204.3,46.5 204.3,46.5 204.3,40.3 195.9,32.2 
			184.8,42.6 181.3,45.9 184.8,49.2 192.8,56.8 184.8,65 181.5,68.4 184.8,71.7 184.8,71.7 204.3,91.2 204.3,91.2 204.3,84.7 		"/>
		<path class="st16" d="M12.2,79.7l14.5,14.4l22.6-22.6l33.9,33.9L97.5,91L49.2,42.7L12.2,79.7z M91.2,91l-8.1,8.1L49.2,65.3
			L26.7,87.8l-8.1-8.1L49.2,49h0L91.2,91z"/>
		<path class="st16" d="M83.1,31.4L71.8,20.1L57.4,34.6l25.7,25.7l49.1-49L120.9,0h-6.4L83.1,31.4z M126,11.3L83.2,54L63.9,34.6
			l8.1-8.1l11.3,11.3l34.6-34.6L126,11.3z"/>
		<path class="st16" d="M117,87.8l-25.7,25.7l23,23h5.5l11.7-11.7l-11.3-11.3l11.3-11.3L117,87.8z M125.1,124.8L117,133l-19.4-19.4
			L117,94.1l8.1,8.1l-11.3,11.3L125.1,124.8z"/>
		<path class="st16" d="M12.2,34.6L26.7,49l37-37l-12-12h-4.9L12.2,34.6z M57.4,12L26.7,42.7l-8.1-8.1L49.3,3.9L57.4,12z"/>
		<path class="st16" d="M91.4,68.4l14.4,14.4l11.3-11.3l22.6,22.6l14.4-14.4l-37-37L91.4,68.4z M139.7,87.8l-22.6-22.6l-11.3,11.3
			l-8.1-8.1L117.1,49l30.7,30.7L139.7,87.8z"/>
		<polygon class="st16" points="91.2,0.6 83.1,8.7 74.4,0 67.9,0 83.1,15.2 97.6,0.7 96.8,0 90.6,0 		"/>
		<polygon class="st16" points="4.1,3.7 7.9,0 0.4,0 		"/>
		<polygon class="st16" points="0,24.1 0,30.6 30.6,0 24.1,0 		"/>
		<path class="st16" d="M176.5,57.1l-37-37l-14.4,14.4l37,37L176.5,57.1z M139.7,26.4l30.7,30.7l-8.1,8.1l-30.7-30.7L139.7,26.4z"/>
		<polygon class="st16" points="181.6,23.3 173.5,31.4 142.1,0 135.6,0 173.4,37.7 184.8,26.3 184.8,20.3 164.5,0 158.4,0 		"/>
		<polygon class="st16" points="184.6,4.6 184.8,4.5 189.3,0 180,0 		"/>
		<path class="st16" d="M49.3,87.8l-22.6,22.6c0,0-14.2-14.2-26.7-26.7V90l26.7,26.7l22.6-22.6l8.1,8.1L26.7,133L0,106.3v6.3l24,24
			h5.5l34.3-34.3L49.3,87.8z"/>
		<polygon class="st16" points="0.5,136.5 7.7,136.5 4.1,133 		"/>
		<polygon class="st16" points="46.1,136.1 46.5,136.5 52.9,136.5 52.4,136.1 71.8,116.7 79.9,124.8 68.2,136.5 74.6,136.5 
			86.3,124.8 71.8,110.4 		"/>
		<polygon class="st16" points="94.4,133 94.4,133 94.4,133 		"/>
		<polygon class="st16" points="136.4,113.6 147.6,124.8 135.9,136.5 142.4,136.5 154.1,124.8 142.8,113.6 151,105.4 170.4,124.8 
			158.6,136.5 164.8,136.5 176.5,124.8 150.8,99.1 		"/>
		<polygon class="st16" points="90.8,136.5 98,136.5 94.4,133 		"/>
		<polygon class="st16" points="184.8,110.5 184.8,110.4 166.1,91.7 174.3,83.6 184.8,94.1 184.8,94.3 204.3,113.8 204.3,113.8 
			204.3,107.4 184.8,88 184.8,88 174.1,77.3 174.1,77.3 159.7,91.7 184.8,116.9 184.8,116.9 204.3,136.3 204.3,136.3 204.3,130 		
			"/>
		<polygon class="st16" points="184.8,133.1 184.6,133 181.1,136.5 188.2,136.5 184.8,133.1 		"/>
		<polygon class="st16" points="184.8,26.3 187.8,23.3 184.8,20.3 184.8,20.3 184.8,26.3 		"/>
		<polygon class="st16" points="199.1,12 204.3,6.8 204.3,0.5 204.3,0.5 192.8,12 204.3,23.5 204.3,23.5 204.3,17.2 		"/>
	</g>
</g>
<g id="Teknik_Çizim">
</g>
</svg>
